{"glyphs":{"0":{"ha":971,"x_min":65,"x_max":906,"o":"m 486 -22 q 261 40 356 -22 q 116 218 167 103 q 65 492 65 333 q 117 767 65 651 q 262 946 168 883 q 486 1008 356 1008 q 709 946 615 1008 q 854 767 803 883 q 906 492 906 651 q 855 218 906 333 q 710 40 804 103 q 486 -22 615 -22 m 486 156 q 635 240 583 156 q 688 492 688 325 q 635 744 688 658 q 486 831 583 831 q 335 744 388 831 q 283 492 283 658 q 335 240 283 325 q 486 156 388 156 z "},"1":{"ha":624,"x_min":53,"x_max":478,"o":"m 267 0 l 267 649 l 53 649 l 53 803 l 138 803 q 269 842 229 803 q 310 986 310 882 l 478 986 l 478 0 l 267 0 z "},"2":{"ha":907,"x_min":81,"x_max":828,"o":"m 81 0 q 115 219 81 126 q 226 385 149 313 q 431 526 303 458 q 538 588 499 561 q 594 643 578 615 q 611 708 611 671 q 576 797 611 763 q 472 831 540 831 q 352 786 396 831 q 299 660 308 742 l 82 672 q 197 919 96 829 q 469 1008 297 1008 q 734 926 640 1008 q 828 711 828 844 q 802 581 828 633 q 719 483 776 528 q 569 389 663 439 q 393 272 450 325 q 332 178 336 218 l 828 178 l 828 0 l 81 0 z "},"3":{"ha":903,"x_min":61,"x_max":842,"o":"m 450 -22 q 167 62 267 -22 q 61 289 68 146 l 276 297 q 329 190 283 224 q 450 156 375 156 q 574 190 524 156 q 624 292 624 224 q 575 398 624 363 q 443 433 526 433 l 356 433 l 356 590 l 443 590 q 549 617 507 590 q 592 710 592 644 q 557 798 592 765 q 447 831 522 831 q 335 800 372 831 q 289 721 297 769 l 76 732 q 187 933 90 857 q 447 1008 283 1008 q 715 934 622 1008 q 808 732 808 860 q 765 602 808 656 q 638 522 721 549 q 788 433 735 496 q 842 276 842 369 q 793 116 842 183 q 657 13 744 49 q 450 -22 569 -22 z "},"4":{"ha":911,"x_min":33,"x_max":850,"o":"m 524 0 l 524 188 l 33 188 l 33 356 l 483 986 l 735 986 l 735 365 l 850 365 l 850 188 l 735 188 l 735 0 l 524 0 m 257 365 l 524 365 l 524 726 l 257 365 z "},"5":{"ha":932,"x_min":78,"x_max":854,"o":"m 464 -22 q 185 58 282 -22 q 78 272 89 138 l 292 282 q 347 187 303 218 q 464 156 392 156 q 591 201 544 156 q 638 328 638 247 q 590 455 638 407 q 463 503 543 503 q 360 476 403 503 q 300 410 317 450 l 89 410 l 157 986 l 786 986 l 786 808 l 336 808 l 308 581 q 399 638 344 617 q 522 658 454 658 q 699 615 625 658 q 814 497 774 571 q 854 328 854 422 q 806 142 854 221 q 669 21 757 64 q 464 -22 582 -22 z "},"6":{"ha":918,"x_min":78,"x_max":839,"o":"m 461 -22 q 174 98 271 -22 q 78 435 78 218 q 122 728 78 599 q 259 933 167 858 q 494 1008 351 1008 q 722 939 638 1008 q 835 750 807 869 l 639 736 q 590 808 622 782 q 494 835 558 835 q 351 766 406 835 q 283 553 297 697 q 372 620 317 593 q 506 647 428 647 q 681 607 606 647 q 798 494 757 567 q 839 325 839 422 q 792 137 839 214 q 659 19 744 60 q 461 -22 574 -22 m 460 146 q 582 194 535 146 q 629 322 629 242 q 584 449 629 400 q 467 497 539 497 q 340 449 389 497 q 290 322 290 401 q 336 195 290 244 q 460 146 382 146 z "},"7":{"ha":756,"x_min":28,"x_max":756,"o":"m 228 0 q 314 435 228 229 q 542 808 400 642 l 28 808 l 28 986 l 756 986 l 756 821 q 583 581 653 704 q 477 317 513 458 q 442 0 442 175 l 228 0 z "},"8":{"ha":928,"x_min":50,"x_max":878,"o":"m 464 -22 q 163 51 275 -22 q 50 268 50 125 q 103 433 50 365 q 250 529 157 500 q 138 609 179 556 q 97 738 97 663 q 192 933 97 858 q 464 1008 288 1008 q 735 933 640 1008 q 829 738 829 858 q 788 609 829 663 q 675 529 747 556 q 824 433 769 500 q 878 268 878 365 q 765 51 878 125 q 464 -22 653 -22 m 464 599 q 574 627 535 599 q 614 715 614 656 q 576 800 614 768 q 464 832 538 832 q 351 800 390 832 q 313 715 313 768 q 353 627 313 656 q 464 599 393 599 m 464 156 q 606 193 553 156 q 660 300 660 231 q 609 409 660 368 q 464 450 558 450 q 318 409 369 450 q 267 300 267 368 q 321 193 267 231 q 464 156 375 156 z "},"9":{"ha":924,"x_min":78,"x_max":846,"o":"m 436 -22 q 214 40 299 -22 q 94 222 129 103 l 297 235 q 436 151 328 151 q 580 215 531 151 q 638 424 629 279 q 406 321 561 321 q 234 362 308 321 q 119 478 160 403 q 78 651 78 553 q 124 841 78 761 q 253 965 169 921 q 447 1008 336 1008 q 747 883 649 1008 q 846 528 846 758 q 747 124 846 269 q 436 -22 649 -22 m 451 472 q 576 521 529 472 q 622 654 622 569 q 578 790 622 739 q 454 840 533 840 q 333 790 378 840 q 289 656 289 740 q 333 522 289 571 q 451 472 378 472 z "},"A":{"ha":1014,"x_min":26,"x_max":988,"o":"m 26 0 l 382 986 l 632 986 l 988 0 l 768 0 l 696 210 l 317 210 l 244 0 l 26 0 m 376 383 l 638 383 l 507 764 l 376 383 z "},"Á":{"ha":1014,"x_min":26,"x_max":988,"o":"m 26 0 l 382 986 l 632 986 l 988 0 l 768 0 l 696 210 l 317 210 l 244 0 l 26 0 m 376 383 l 638 383 l 507 764 l 376 383 m 413 1063 l 494 1268 l 696 1268 l 571 1063 l 413 1063 z "},"Ă":{"ha":1014,"x_min":26,"x_max":988,"o":"m 26 0 l 382 986 l 632 986 l 988 0 l 768 0 l 696 210 l 317 210 l 244 0 l 26 0 m 376 383 l 638 383 l 507 764 l 376 383 m 508 1064 q 353 1117 411 1064 q 290 1268 294 1171 l 411 1268 q 441 1199 415 1219 q 508 1178 467 1178 q 575 1199 550 1178 q 604 1268 600 1219 l 725 1268 q 663 1117 721 1171 q 508 1064 604 1064 z "},"Ǎ":{"ha":1014,"x_min":26,"x_max":988,"o":"m 26 0 l 382 986 l 632 986 l 988 0 l 768 0 l 696 210 l 317 210 l 244 0 l 26 0 m 376 383 l 638 383 l 507 764 l 376 383 m 274 1275 l 419 1275 l 507 1151 l 594 1275 l 740 1275 l 607 1063 l 407 1063 l 274 1275 z "},"Â":{"ha":1014,"x_min":26,"x_max":988,"o":"m 26 0 l 382 986 l 632 986 l 988 0 l 768 0 l 696 210 l 317 210 l 244 0 l 26 0 m 376 383 l 638 383 l 507 764 l 376 383 m 274 1063 l 407 1275 l 607 1275 l 740 1063 l 594 1063 l 507 1186 l 419 1063 l 274 1063 z "},"Ä":{"ha":1014,"x_min":26,"x_max":988,"o":"m 26 0 l 382 986 l 632 986 l 988 0 l 768 0 l 696 210 l 317 210 l 244 0 l 26 0 m 376 383 l 638 383 l 507 764 l 376 383 m 258 1074 l 258 1242 l 457 1242 l 457 1074 l 258 1074 m 557 1074 l 557 1242 l 756 1242 l 756 1074 l 557 1074 z "},"À":{"ha":1014,"x_min":26,"x_max":988,"o":"m 26 0 l 382 986 l 632 986 l 988 0 l 768 0 l 696 210 l 317 210 l 244 0 l 26 0 m 376 383 l 638 383 l 507 764 l 376 383 m 442 1072 l 317 1276 l 518 1276 l 600 1072 l 442 1072 z "},"Ā":{"ha":1014,"x_min":26,"x_max":988,"o":"m 26 0 l 382 986 l 632 986 l 988 0 l 768 0 l 696 210 l 317 210 l 244 0 l 26 0 m 376 383 l 638 383 l 507 764 l 376 383 m 300 1085 l 300 1238 l 715 1238 l 715 1085 l 300 1085 z "},"Ą":{"ha":1014,"x_min":26,"x_max":1039,"o":"m 26 0 l 382 986 l 632 986 l 988 0 l 768 0 l 696 210 l 317 210 l 244 0 l 26 0 m 376 383 l 638 383 l 507 764 l 376 383 m 890 -301 q 775 -271 817 -301 q 733 -183 733 -240 q 755 -101 733 -140 q 803 -28 776 -61 l 849 33 l 988 0 l 946 -56 q 913 -104 925 -83 q 901 -143 901 -125 q 913 -169 901 -160 q 938 -178 924 -178 q 1000 -160 975 -178 l 1039 -265 q 977 -291 1019 -281 q 890 -301 935 -301 z "},"Å":{"ha":1022,"x_min":18,"x_max":979,"o":"m 18 0 l 374 986 l 624 986 l 979 0 l 760 0 l 688 210 l 308 210 l 236 0 l 18 0 m 368 383 l 629 383 l 499 764 l 368 383 m 504 1049 q 402 1089 443 1049 q 361 1189 361 1129 q 402 1290 361 1250 q 504 1331 443 1331 q 605 1290 564 1331 q 646 1189 646 1250 q 605 1089 646 1129 q 504 1049 564 1049 m 504 1138 q 541 1152 526 1138 q 556 1189 556 1167 q 541 1227 556 1213 q 504 1242 526 1242 q 466 1227 481 1242 q 451 1189 451 1213 q 466 1152 451 1167 q 504 1138 481 1138 z "},"Ã":{"ha":1022,"x_min":18,"x_max":979,"o":"m 18 0 l 374 986 l 624 986 l 979 0 l 760 0 l 688 210 l 308 210 l 236 0 l 18 0 m 368 383 l 629 383 l 499 764 l 368 383 m 576 1083 q 520 1092 543 1083 q 471 1125 497 1101 q 442 1144 454 1138 q 417 1150 431 1150 q 381 1135 396 1150 q 364 1076 367 1119 l 260 1076 q 301 1220 260 1167 q 413 1274 342 1274 q 526 1232 475 1274 q 579 1207 558 1207 q 615 1223 601 1207 q 632 1283 629 1239 l 735 1283 q 692 1138 733 1192 q 576 1083 651 1083 z "},"Æ":{"ha":1447,"x_min":26,"x_max":1385,"o":"m 26 0 l 554 986 l 1374 986 l 1374 808 l 939 808 l 939 582 l 1357 582 l 1357 407 l 939 407 l 939 178 l 1385 178 l 1385 0 l 728 0 l 728 211 l 357 211 l 249 0 l 26 0 m 728 811 l 668 811 l 446 382 l 728 382 l 728 811 z "},"B":{"ha":976,"x_min":103,"x_max":906,"o":"m 103 0 l 103 986 l 486 986 q 767 922 669 986 q 864 718 864 857 q 811 574 864 629 q 660 510 758 519 q 842 438 779 500 q 906 272 906 375 q 809 67 906 135 q 533 0 713 0 l 103 0 m 314 578 l 481 578 q 605 608 558 578 q 651 696 651 638 q 606 785 651 757 q 481 814 561 814 l 314 814 l 314 578 m 314 172 l 524 172 q 646 203 599 172 q 693 297 693 233 q 647 392 693 360 q 524 425 600 425 l 314 425 l 314 172 z "},"C":{"ha":1019,"x_min":58,"x_max":968,"o":"m 521 -22 q 282 39 386 -22 q 118 215 178 100 q 58 492 58 331 q 116 765 58 649 q 278 944 174 881 q 525 1008 383 1008 q 825 913 718 1008 q 964 642 932 818 l 744 633 q 672 778 728 726 q 525 831 617 831 q 342 738 407 831 q 276 492 276 646 q 343 246 276 336 q 524 156 410 156 q 678 212 622 156 q 747 368 733 268 l 968 360 q 826 78 938 179 q 521 -22 714 -22 z "},"Ć":{"ha":1019,"x_min":58,"x_max":968,"o":"m 521 -22 q 282 39 386 -22 q 118 215 178 100 q 58 492 58 331 q 116 765 58 649 q 278 944 174 881 q 525 1008 383 1008 q 825 913 718 1008 q 964 642 932 818 l 744 633 q 672 778 728 726 q 525 831 617 831 q 342 738 407 831 q 276 492 276 646 q 343 246 276 336 q 524 156 410 156 q 678 212 622 156 q 747 368 733 268 l 968 360 q 826 78 938 179 q 521 -22 714 -22 m 429 1063 l 511 1268 l 713 1268 l 588 1063 l 429 1063 z "},"Č":{"ha":1019,"x_min":58,"x_max":968,"o":"m 521 -22 q 282 39 386 -22 q 118 215 178 100 q 58 492 58 331 q 116 765 58 649 q 278 944 174 881 q 525 1008 383 1008 q 825 913 718 1008 q 964 642 932 818 l 744 633 q 672 778 728 726 q 525 831 617 831 q 342 738 407 831 q 276 492 276 646 q 343 246 276 336 q 524 156 410 156 q 678 212 622 156 q 747 368 733 268 l 968 360 q 826 78 938 179 q 521 -22 714 -22 m 290 1275 l 436 1275 l 524 1151 l 611 1275 l 757 1275 l 624 1063 l 424 1063 l 290 1275 z "},"Ç":{"ha":1019,"x_min":58,"x_max":968,"o":"m 521 -22 q 282 39 386 -22 q 118 215 178 100 q 58 492 58 331 q 116 765 58 649 q 278 944 174 881 q 525 1008 383 1008 q 825 913 718 1008 q 964 642 932 818 l 744 633 q 672 778 728 726 q 525 831 617 831 q 342 738 407 831 q 276 492 276 646 q 343 246 276 336 q 524 156 410 156 q 678 212 622 156 q 747 368 733 268 l 968 360 q 826 78 938 179 q 521 -22 714 -22 m 518 -322 q 403 -290 449 -322 q 340 -207 358 -258 l 432 -168 q 463 -208 443 -194 q 514 -221 482 -221 q 563 -208 544 -221 q 581 -171 581 -194 q 563 -131 581 -146 q 490 -117 546 -117 l 433 -62 l 479 14 l 599 14 l 561 -43 q 663 -87 631 -50 q 694 -175 694 -124 q 643 -286 694 -250 q 518 -322 592 -322 z "},"Ĉ":{"ha":1019,"x_min":58,"x_max":968,"o":"m 521 -22 q 282 39 386 -22 q 118 215 178 100 q 58 492 58 331 q 116 765 58 649 q 278 944 174 881 q 525 1008 383 1008 q 825 913 718 1008 q 964 642 932 818 l 744 633 q 672 778 728 726 q 525 831 617 831 q 342 738 407 831 q 276 492 276 646 q 343 246 276 336 q 524 156 410 156 q 678 212 622 156 q 747 368 733 268 l 968 360 q 826 78 938 179 q 521 -22 714 -22 m 290 1063 l 424 1275 l 624 1275 l 757 1063 l 611 1063 l 524 1186 l 436 1063 l 290 1063 z "},"Ċ":{"ha":1019,"x_min":58,"x_max":968,"o":"m 521 -22 q 282 39 386 -22 q 118 215 178 100 q 58 492 58 331 q 116 765 58 649 q 278 944 174 881 q 525 1008 383 1008 q 825 913 718 1008 q 964 642 932 818 l 744 633 q 672 778 728 726 q 525 831 617 831 q 342 738 407 831 q 276 492 276 646 q 343 246 276 336 q 524 156 410 156 q 678 212 622 156 q 747 368 733 268 l 968 360 q 826 78 938 179 q 521 -22 714 -22 m 417 1078 l 417 1244 l 632 1244 l 632 1078 l 417 1078 z "},"D":{"ha":1000,"x_min":103,"x_max":942,"o":"m 103 0 l 103 986 l 443 986 q 812 858 682 986 q 942 492 942 729 q 814 128 942 256 q 451 0 686 0 l 103 0 m 314 178 l 443 178 q 655 255 586 178 q 724 493 724 332 q 655 731 724 653 q 443 808 586 808 l 314 808 l 314 178 z "},"Ď":{"ha":1000,"x_min":103,"x_max":942,"o":"m 103 0 l 103 986 l 443 986 q 812 858 682 986 q 942 492 942 729 q 814 128 942 256 q 451 0 686 0 l 103 0 m 314 178 l 443 178 q 655 255 586 178 q 724 493 724 332 q 655 731 724 653 q 443 808 586 808 l 314 808 l 314 178 m 218 1275 l 364 1275 l 451 1151 l 539 1275 l 685 1275 l 551 1063 l 351 1063 l 218 1275 z "},"Đ":{"ha":1000,"x_min":13,"x_max":942,"o":"m 103 0 l 103 986 l 443 986 q 812 858 682 986 q 942 492 942 729 q 814 128 942 256 q 451 0 686 0 l 103 0 m 314 178 l 443 178 q 655 255 586 178 q 724 493 724 332 q 655 731 724 653 q 443 808 586 808 l 314 808 l 314 178 m 13 414 l 13 574 l 571 574 l 571 414 l 13 414 z "},"Ð":{"ha":1000,"x_min":13,"x_max":942,"o":"m 103 0 l 103 986 l 443 986 q 812 858 682 986 q 942 492 942 729 q 814 128 942 256 q 451 0 686 0 l 103 0 m 314 178 l 443 178 q 655 255 586 178 q 724 493 724 332 q 655 731 724 653 q 443 808 586 808 l 314 808 l 314 178 m 13 414 l 13 574 l 571 574 l 571 414 l 13 414 z "},"E":{"ha":864,"x_min":103,"x_max":800,"o":"m 103 0 l 103 986 l 789 986 l 789 808 l 314 808 l 314 582 l 772 582 l 772 407 l 314 407 l 314 178 l 800 178 l 800 0 l 103 0 z "},"É":{"ha":864,"x_min":103,"x_max":800,"o":"m 103 0 l 103 986 l 789 986 l 789 808 l 314 808 l 314 582 l 772 582 l 772 407 l 314 407 l 314 178 l 800 178 l 800 0 l 103 0 m 353 1063 l 435 1268 l 636 1268 l 511 1063 l 353 1063 z "},"Ě":{"ha":864,"x_min":103,"x_max":800,"o":"m 103 0 l 103 986 l 789 986 l 789 808 l 314 808 l 314 582 l 772 582 l 772 407 l 314 407 l 314 178 l 800 178 l 800 0 l 103 0 m 214 1275 l 360 1275 l 447 1151 l 535 1275 l 681 1275 l 547 1063 l 347 1063 l 214 1275 z "},"Ê":{"ha":864,"x_min":103,"x_max":800,"o":"m 103 0 l 103 986 l 789 986 l 789 808 l 314 808 l 314 582 l 772 582 l 772 407 l 314 407 l 314 178 l 800 178 l 800 0 l 103 0 m 214 1063 l 347 1275 l 547 1275 l 681 1063 l 535 1063 l 447 1186 l 360 1063 l 214 1063 z "},"Ë":{"ha":864,"x_min":103,"x_max":800,"o":"m 103 0 l 103 986 l 789 986 l 789 808 l 314 808 l 314 582 l 772 582 l 772 407 l 314 407 l 314 178 l 800 178 l 800 0 l 103 0 m 199 1074 l 199 1242 l 397 1242 l 397 1074 l 199 1074 m 497 1074 l 497 1242 l 696 1242 l 696 1074 l 497 1074 z "},"Ė":{"ha":864,"x_min":103,"x_max":800,"o":"m 103 0 l 103 986 l 789 986 l 789 808 l 314 808 l 314 582 l 772 582 l 772 407 l 314 407 l 314 178 l 800 178 l 800 0 l 103 0 m 339 1078 l 339 1244 l 554 1244 l 554 1078 l 339 1078 z "},"È":{"ha":864,"x_min":103,"x_max":800,"o":"m 103 0 l 103 986 l 789 986 l 789 808 l 314 808 l 314 582 l 772 582 l 772 407 l 314 407 l 314 178 l 800 178 l 800 0 l 103 0 m 381 1072 l 256 1276 l 457 1276 l 539 1072 l 381 1072 z "},"Ē":{"ha":864,"x_min":103,"x_max":800,"o":"m 103 0 l 103 986 l 789 986 l 789 808 l 314 808 l 314 582 l 772 582 l 772 407 l 314 407 l 314 178 l 800 178 l 800 0 l 103 0 m 239 1085 l 239 1238 l 654 1238 l 654 1085 l 239 1085 z "},"Ę":{"ha":864,"x_min":103,"x_max":851,"o":"m 103 0 l 103 986 l 789 986 l 789 808 l 314 808 l 314 582 l 772 582 l 772 407 l 314 407 l 314 178 l 800 178 l 800 0 l 103 0 m 703 -301 q 588 -271 629 -301 q 546 -183 546 -240 q 567 -101 546 -140 q 615 -28 589 -61 l 661 33 l 800 0 l 758 -56 q 726 -104 738 -83 q 714 -143 714 -125 q 725 -169 714 -160 q 750 -178 736 -178 q 813 -160 788 -178 l 851 -265 q 790 -291 832 -281 q 703 -301 747 -301 z "},"Ẽ":{"ha":864,"x_min":103,"x_max":800,"o":"m 103 0 l 103 986 l 789 986 l 789 808 l 314 808 l 314 582 l 772 582 l 772 407 l 314 407 l 314 178 l 800 178 l 800 0 l 103 0 m 525 1075 q 469 1084 492 1075 q 419 1117 446 1093 q 391 1135 403 1129 q 365 1142 379 1142 q 330 1126 344 1142 q 313 1068 315 1111 l 208 1068 q 249 1212 208 1158 q 361 1265 290 1265 q 475 1224 424 1265 q 528 1199 507 1199 q 564 1215 550 1199 q 581 1275 578 1231 l 683 1275 q 641 1129 682 1183 q 525 1075 600 1075 z "},"Ə":{"ha":1051,"x_min":58,"x_max":993,"o":"m 993 493 q 928 209 993 324 q 756 36 864 94 q 517 -22 647 -22 q 342 10 425 -22 q 196 105 260 42 q 95 263 132 168 q 58 483 58 358 l 58 561 l 774 561 q 690 760 760 690 q 515 831 619 831 q 394 793 450 831 q 308 683 339 756 l 86 696 q 244 924 132 840 q 517 1008 357 1008 q 765 948 657 1008 q 933 772 872 888 q 993 493 993 657 m 519 156 q 689 217 622 156 q 772 396 756 278 l 285 396 q 365 213 304 271 q 519 156 425 156 z "},"F":{"ha":839,"x_min":103,"x_max":783,"o":"m 103 0 l 103 986 l 783 986 l 783 808 l 314 808 l 314 569 l 758 569 l 758 394 l 314 394 l 314 0 l 103 0 z "},"G":{"ha":1025,"x_min":58,"x_max":960,"o":"m 514 -22 q 269 43 371 -22 q 113 224 168 108 q 58 492 58 340 q 114 757 58 640 q 274 941 169 874 q 526 1008 379 1008 q 822 914 718 1008 q 957 663 925 819 l 739 653 q 674 783 724 735 q 528 831 625 831 q 387 786 443 831 q 303 665 331 742 q 276 492 276 589 q 303 317 276 393 q 387 199 331 242 q 532 156 443 156 q 688 213 629 156 q 753 358 746 269 l 528 358 l 528 513 l 960 513 l 960 0 l 829 0 l 822 140 q 701 22 783 67 q 514 -22 618 -22 z "},"Ğ":{"ha":1025,"x_min":58,"x_max":960,"o":"m 514 -22 q 269 43 371 -22 q 113 224 168 108 q 58 492 58 340 q 114 757 58 640 q 274 941 169 874 q 526 1008 379 1008 q 822 914 718 1008 q 957 663 925 819 l 739 653 q 674 783 724 735 q 528 831 625 831 q 387 786 443 831 q 303 665 331 742 q 276 492 276 589 q 303 317 276 393 q 387 199 331 242 q 532 156 443 156 q 688 213 629 156 q 753 358 746 269 l 528 358 l 528 513 l 960 513 l 960 0 l 829 0 l 822 140 q 701 22 783 67 q 514 -22 618 -22 m 529 1064 q 374 1117 432 1064 q 311 1268 315 1171 l 432 1268 q 462 1199 436 1219 q 529 1178 488 1178 q 596 1199 571 1178 q 625 1268 621 1219 l 746 1268 q 683 1117 742 1171 q 529 1064 625 1064 z "},"Ǧ":{"ha":1025,"x_min":58,"x_max":960,"o":"m 514 -22 q 269 43 371 -22 q 113 224 168 108 q 58 492 58 340 q 114 757 58 640 q 274 941 169 874 q 526 1008 379 1008 q 822 914 718 1008 q 957 663 925 819 l 739 653 q 674 783 724 735 q 528 831 625 831 q 387 786 443 831 q 303 665 331 742 q 276 492 276 589 q 303 317 276 393 q 387 199 331 242 q 532 156 443 156 q 688 213 629 156 q 753 358 746 269 l 528 358 l 528 513 l 960 513 l 960 0 l 829 0 l 822 140 q 701 22 783 67 q 514 -22 618 -22 m 294 1275 l 440 1275 l 528 1151 l 615 1275 l 761 1275 l 628 1063 l 428 1063 l 294 1275 z "},"Ĝ":{"ha":1025,"x_min":58,"x_max":960,"o":"m 514 -22 q 269 43 371 -22 q 113 224 168 108 q 58 492 58 340 q 114 757 58 640 q 274 941 169 874 q 526 1008 379 1008 q 822 914 718 1008 q 957 663 925 819 l 739 653 q 674 783 724 735 q 528 831 625 831 q 387 786 443 831 q 303 665 331 742 q 276 492 276 589 q 303 317 276 393 q 387 199 331 242 q 532 156 443 156 q 688 213 629 156 q 753 358 746 269 l 528 358 l 528 513 l 960 513 l 960 0 l 829 0 l 822 140 q 701 22 783 67 q 514 -22 618 -22 m 294 1063 l 428 1275 l 628 1275 l 761 1063 l 615 1063 l 528 1186 l 440 1063 l 294 1063 z "},"Ģ":{"ha":1025,"x_min":58,"x_max":960,"o":"m 514 -22 q 269 43 371 -22 q 113 224 168 108 q 58 492 58 340 q 114 757 58 640 q 274 941 169 874 q 526 1008 379 1008 q 822 914 718 1008 q 957 663 925 819 l 739 653 q 674 783 724 735 q 528 831 625 831 q 387 786 443 831 q 303 665 331 742 q 276 492 276 589 q 303 317 276 393 q 387 199 331 242 q 532 156 443 156 q 688 213 629 156 q 753 358 746 269 l 528 358 l 528 513 l 960 513 l 960 0 l 829 0 l 822 140 q 701 22 783 67 q 514 -22 618 -22 m 418 -351 l 490 -229 l 442 -229 l 442 -68 l 622 -68 l 622 -214 l 540 -351 l 418 -351 z "},"Ġ":{"ha":1025,"x_min":58,"x_max":960,"o":"m 514 -22 q 269 43 371 -22 q 113 224 168 108 q 58 492 58 340 q 114 757 58 640 q 274 941 169 874 q 526 1008 379 1008 q 822 914 718 1008 q 957 663 925 819 l 739 653 q 674 783 724 735 q 528 831 625 831 q 387 786 443 831 q 303 665 331 742 q 276 492 276 589 q 303 317 276 393 q 387 199 331 242 q 532 156 443 156 q 688 213 629 156 q 753 358 746 269 l 528 358 l 528 513 l 960 513 l 960 0 l 829 0 l 822 140 q 701 22 783 67 q 514 -22 618 -22 m 421 1078 l 421 1244 l 636 1244 l 636 1078 l 421 1078 z "},"Ḡ":{"ha":1025,"x_min":58,"x_max":960,"o":"m 514 -22 q 269 43 371 -22 q 113 224 168 108 q 58 492 58 340 q 114 757 58 640 q 274 941 169 874 q 526 1008 379 1008 q 822 914 718 1008 q 957 663 925 819 l 739 653 q 674 783 724 735 q 528 831 625 831 q 387 786 443 831 q 303 665 331 742 q 276 492 276 589 q 303 317 276 393 q 387 199 331 242 q 532 156 443 156 q 688 213 629 156 q 753 358 746 269 l 528 358 l 528 513 l 960 513 l 960 0 l 829 0 l 822 140 q 701 22 783 67 q 514 -22 618 -22 m 321 1085 l 321 1238 l 736 1238 l 736 1085 l 321 1085 z "},"Ǥ":{"ha":1082,"x_min":58,"x_max":1031,"o":"m 529 -22 q 268 45 372 -22 q 111 229 164 113 q 58 492 58 346 q 114 756 58 639 q 276 940 169 872 q 535 1008 382 1008 q 821 916 714 1008 q 957 663 928 824 l 739 653 q 676 782 724 733 q 531 831 628 831 q 385 786 442 831 q 303 665 329 742 q 276 492 276 589 q 303 317 276 393 q 385 199 331 242 q 525 156 440 156 q 710 235 653 156 l 528 235 l 528 335 l 747 335 q 753 396 751 363 l 528 396 l 528 513 l 960 513 l 960 454 q 951 335 960 390 l 1031 335 l 1031 235 l 926 235 q 776 42 879 107 q 529 -22 674 -22 z "},"H":{"ha":1001,"x_min":103,"x_max":899,"o":"m 103 0 l 103 986 l 314 986 l 314 585 l 688 585 l 688 986 l 899 986 l 899 0 l 688 0 l 688 407 l 314 407 l 314 0 l 103 0 z "},"Ħ":{"ha":1001,"x_min":4,"x_max":999,"o":"m 103 0 l 103 986 l 314 986 l 314 585 l 688 585 l 688 986 l 899 986 l 899 0 l 688 0 l 688 407 l 314 407 l 314 0 l 103 0 m 4 722 l 4 876 l 999 876 l 999 722 l 4 722 z "},"Ĥ":{"ha":1001,"x_min":103,"x_max":899,"o":"m 103 0 l 103 986 l 314 986 l 314 585 l 688 585 l 688 986 l 899 986 l 899 0 l 688 0 l 688 407 l 314 407 l 314 0 l 103 0 m 268 1063 l 401 1275 l 601 1275 l 735 1063 l 589 1063 l 501 1186 l 414 1063 l 268 1063 z "},"I":{"ha":417,"x_min":103,"x_max":314,"o":"m 103 0 l 103 986 l 314 986 l 314 0 l 103 0 z "},"Ĳ":{"ha":1268,"x_min":103,"x_max":1186,"o":"m 103 0 l 103 986 l 314 986 l 314 0 l 103 0 m 826 -22 q 631 26 711 -22 q 509 159 551 75 q 465 351 467 243 l 678 361 q 718 206 679 256 q 826 156 757 156 q 936 204 897 156 q 975 354 975 253 l 975 986 l 1186 986 l 1186 354 q 1141 155 1186 239 q 1015 24 1096 71 q 826 -22 935 -22 z "},"Í":{"ha":417,"x_min":103,"x_max":397,"o":"m 103 0 l 103 986 l 314 986 l 314 0 l 103 0 m 114 1063 l 196 1268 l 397 1268 l 272 1063 l 114 1063 z "},"Î":{"ha":417,"x_min":-25,"x_max":442,"o":"m 103 0 l 103 986 l 314 986 l 314 0 l 103 0 m -25 1063 l 108 1275 l 308 1275 l 442 1063 l 296 1063 l 208 1186 l 121 1063 l -25 1063 z "},"Ï":{"ha":417,"x_min":-40,"x_max":457,"o":"m 103 0 l 103 986 l 314 986 l 314 0 l 103 0 m -40 1074 l -40 1242 l 158 1242 l 158 1074 l -40 1074 m 258 1074 l 258 1242 l 457 1242 l 457 1074 l 258 1074 z "},"İ":{"ha":417,"x_min":101,"x_max":317,"o":"m 103 0 l 103 986 l 314 986 l 314 0 l 103 0 m 101 1078 l 101 1244 l 317 1244 l 317 1078 l 101 1078 z "},"Ì":{"ha":417,"x_min":17,"x_max":314,"o":"m 103 0 l 103 986 l 314 986 l 314 0 l 103 0 m 142 1072 l 17 1276 l 218 1276 l 300 1072 l 142 1072 z "},"Ī":{"ha":417,"x_min":1,"x_max":417,"o":"m 103 0 l 103 986 l 314 986 l 314 0 l 103 0 m 1 1085 l 1 1238 l 417 1238 l 417 1085 l 1 1085 z "},"Į":{"ha":417,"x_min":60,"x_max":365,"o":"m 103 0 l 103 986 l 314 986 l 314 0 l 103 0 m 217 -301 q 101 -271 143 -301 q 60 -183 60 -240 q 81 -101 60 -140 q 129 -28 103 -61 l 175 33 l 314 0 l 272 -56 q 240 -104 251 -83 q 228 -143 228 -125 q 239 -169 228 -160 q 264 -178 250 -178 q 326 -160 301 -178 l 365 -265 q 303 -291 346 -281 q 217 -301 261 -301 z "},"Ĩ":{"ha":417,"x_min":-31,"x_max":444,"o":"m 103 0 l 103 986 l 314 986 l 314 0 l 103 0 m 286 1075 q 230 1084 253 1075 q 181 1117 207 1093 q 152 1135 164 1129 q 126 1142 140 1142 q 91 1126 106 1142 q 74 1068 76 1111 l -31 1068 q 10 1212 -31 1158 q 122 1265 51 1265 q 236 1224 185 1265 q 289 1199 268 1199 q 325 1215 311 1199 q 342 1275 339 1231 l 444 1275 q 402 1129 443 1183 q 286 1075 361 1075 z "},"J":{"ha":871,"x_min":68,"x_max":789,"o":"m 429 -22 q 234 26 314 -22 q 112 159 154 75 q 68 351 69 243 l 281 361 q 321 206 282 256 q 429 156 360 156 q 539 204 500 156 q 578 354 578 253 l 578 986 l 789 986 l 789 354 q 744 155 789 239 q 618 24 699 71 q 429 -22 538 -22 z "},"Ĵ":{"ha":871,"x_min":68,"x_max":917,"o":"m 429 -22 q 234 26 314 -22 q 112 159 154 75 q 68 351 69 243 l 281 361 q 321 206 282 256 q 429 156 360 156 q 539 204 500 156 q 578 354 578 253 l 578 986 l 789 986 l 789 354 q 744 155 789 239 q 618 24 699 71 q 429 -22 538 -22 m 450 1063 l 583 1275 l 783 1275 l 917 1063 l 771 1063 l 683 1186 l 596 1063 l 450 1063 z "},"K":{"ha":957,"x_min":103,"x_max":940,"o":"m 103 0 l 103 986 l 314 986 l 314 556 l 672 986 l 918 986 l 556 551 l 940 0 l 700 0 l 417 410 l 314 290 l 314 0 l 103 0 z "},"Ǩ":{"ha":957,"x_min":103,"x_max":940,"o":"m 103 0 l 103 986 l 314 986 l 314 556 l 672 986 l 918 986 l 556 551 l 940 0 l 700 0 l 417 410 l 314 290 l 314 0 l 103 0 m 247 1275 l 393 1275 l 481 1151 l 568 1275 l 714 1275 l 581 1063 l 381 1063 l 247 1275 z "},"Ķ":{"ha":957,"x_min":103,"x_max":940,"o":"m 103 0 l 103 986 l 314 986 l 314 556 l 672 986 l 918 986 l 556 551 l 940 0 l 700 0 l 417 410 l 314 290 l 314 0 l 103 0 m 382 -351 l 454 -229 l 406 -229 l 406 -68 l 586 -68 l 586 -214 l 504 -351 l 382 -351 z "},"L":{"ha":818,"x_min":103,"x_max":768,"o":"m 103 0 l 103 986 l 314 986 l 314 178 l 768 178 l 768 0 l 103 0 z "},"Ĺ":{"ha":818,"x_min":103,"x_max":768,"o":"m 103 0 l 103 986 l 314 986 l 314 178 l 768 178 l 768 0 l 103 0 m 114 1063 l 196 1268 l 397 1268 l 272 1063 l 114 1063 z "},"Ľ":{"ha":818,"x_min":103,"x_max":768,"o":"m 103 0 l 103 986 l 314 986 l 314 178 l 768 178 l 768 0 l 103 0 m 531 589 l 571 986 l 750 986 l 675 589 l 531 589 z "},"Ļ":{"ha":818,"x_min":103,"x_max":768,"o":"m 103 0 l 103 986 l 314 986 l 314 178 l 768 178 l 768 0 l 103 0 m 322 -351 l 394 -229 l 346 -229 l 346 -68 l 526 -68 l 526 -214 l 444 -351 l 322 -351 z "},"Ł":{"ha":818,"x_min":7,"x_max":768,"o":"m 103 0 l 103 986 l 314 986 l 314 178 l 768 178 l 768 0 l 103 0 m 7 336 l 7 478 l 503 718 l 503 575 l 7 336 z "},"M":{"ha":1271,"x_min":103,"x_max":1168,"o":"m 103 0 l 103 986 l 385 986 l 636 268 l 886 986 l 1168 986 l 1168 0 l 957 0 l 957 639 l 725 3 l 544 3 l 314 639 l 314 0 l 103 0 z "},"N":{"ha":1042,"x_min":103,"x_max":939,"o":"m 103 0 l 103 986 l 336 986 l 728 306 l 728 986 l 939 986 l 939 0 l 703 0 l 314 657 l 314 0 l 103 0 z "},"Ń":{"ha":1042,"x_min":103,"x_max":939,"o":"m 103 0 l 103 986 l 336 986 l 728 306 l 728 986 l 939 986 l 939 0 l 703 0 l 314 657 l 314 0 l 103 0 m 435 1063 l 517 1268 l 718 1268 l 593 1063 l 435 1063 z "},"Ň":{"ha":1042,"x_min":103,"x_max":939,"o":"m 103 0 l 103 986 l 336 986 l 728 306 l 728 986 l 939 986 l 939 0 l 703 0 l 314 657 l 314 0 l 103 0 m 296 1275 l 442 1275 l 529 1151 l 617 1275 l 763 1275 l 629 1063 l 429 1063 l 296 1275 z "},"Ņ":{"ha":1042,"x_min":103,"x_max":939,"o":"m 103 0 l 103 986 l 336 986 l 728 306 l 728 986 l 939 986 l 939 0 l 703 0 l 314 657 l 314 0 l 103 0 m 404 -351 l 476 -229 l 428 -229 l 428 -68 l 608 -68 l 608 -214 l 526 -351 l 404 -351 z "},"Ñ":{"ha":1042,"x_min":103,"x_max":939,"o":"m 103 0 l 103 986 l 336 986 l 728 306 l 728 986 l 939 986 l 939 0 l 703 0 l 314 657 l 314 0 l 103 0 m 608 1075 q 552 1084 575 1075 q 503 1117 529 1093 q 474 1135 486 1129 q 449 1142 463 1142 q 413 1126 428 1142 q 396 1068 399 1111 l 292 1068 q 333 1212 292 1158 q 444 1265 374 1265 q 558 1224 507 1265 q 611 1199 590 1199 q 647 1215 633 1199 q 664 1275 661 1231 l 767 1275 q 724 1129 765 1183 q 608 1075 683 1075 z "},"Ŋ":{"ha":1042,"x_min":103,"x_max":939,"o":"m 103 0 l 103 986 l 336 986 l 728 307 l 728 986 l 939 986 l 939 -8 q 883 -167 939 -110 q 715 -225 826 -225 l 535 -225 l 535 -81 l 665 -81 q 721 -65 703 -81 q 739 -11 739 -49 l 739 0 l 703 0 l 314 657 l 314 0 l 103 0 z "},"O":{"ha":1078,"x_min":58,"x_max":1019,"o":"m 539 -22 q 281 40 389 -22 q 116 218 174 103 q 58 492 58 333 q 116 766 58 650 q 281 945 174 882 q 539 1008 389 1008 q 797 945 689 1008 q 962 766 904 882 q 1019 492 1019 650 q 962 218 1019 333 q 797 40 904 103 q 539 -22 689 -22 m 539 156 q 732 244 663 156 q 801 492 801 332 q 732 741 801 651 q 539 831 663 831 q 346 741 415 831 q 276 492 276 651 q 346 244 276 332 q 539 156 415 156 z "},"Ó":{"ha":1078,"x_min":58,"x_max":1019,"o":"m 539 -22 q 281 40 389 -22 q 116 218 174 103 q 58 492 58 333 q 116 766 58 650 q 281 945 174 882 q 539 1008 389 1008 q 797 945 689 1008 q 962 766 904 882 q 1019 492 1019 650 q 962 218 1019 333 q 797 40 904 103 q 539 -22 689 -22 m 539 156 q 732 244 663 156 q 801 492 801 332 q 732 741 801 651 q 539 831 663 831 q 346 741 415 831 q 276 492 276 651 q 346 244 276 332 q 539 156 415 156 m 444 1063 l 526 1268 l 728 1268 l 603 1063 l 444 1063 z "},"Ô":{"ha":1078,"x_min":58,"x_max":1019,"o":"m 539 -22 q 281 40 389 -22 q 116 218 174 103 q 58 492 58 333 q 116 766 58 650 q 281 945 174 882 q 539 1008 389 1008 q 797 945 689 1008 q 962 766 904 882 q 1019 492 1019 650 q 962 218 1019 333 q 797 40 904 103 q 539 -22 689 -22 m 539 156 q 732 244 663 156 q 801 492 801 332 q 732 741 801 651 q 539 831 663 831 q 346 741 415 831 q 276 492 276 651 q 346 244 276 332 q 539 156 415 156 m 306 1063 l 439 1275 l 639 1275 l 772 1063 l 626 1063 l 539 1186 l 451 1063 l 306 1063 z "},"Ö":{"ha":1078,"x_min":58,"x_max":1019,"o":"m 539 -22 q 281 40 389 -22 q 116 218 174 103 q 58 492 58 333 q 116 766 58 650 q 281 945 174 882 q 539 1008 389 1008 q 797 945 689 1008 q 962 766 904 882 q 1019 492 1019 650 q 962 218 1019 333 q 797 40 904 103 q 539 -22 689 -22 m 539 156 q 732 244 663 156 q 801 492 801 332 q 732 741 801 651 q 539 831 663 831 q 346 741 415 831 q 276 492 276 651 q 346 244 276 332 q 539 156 415 156 m 290 1074 l 290 1242 l 489 1242 l 489 1074 l 290 1074 m 589 1074 l 589 1242 l 788 1242 l 788 1074 l 589 1074 z "},"Ò":{"ha":1078,"x_min":58,"x_max":1019,"o":"m 539 -22 q 281 40 389 -22 q 116 218 174 103 q 58 492 58 333 q 116 766 58 650 q 281 945 174 882 q 539 1008 389 1008 q 797 945 689 1008 q 962 766 904 882 q 1019 492 1019 650 q 962 218 1019 333 q 797 40 904 103 q 539 -22 689 -22 m 539 156 q 732 244 663 156 q 801 492 801 332 q 732 741 801 651 q 539 831 663 831 q 346 741 415 831 q 276 492 276 651 q 346 244 276 332 q 539 156 415 156 m 472 1072 l 347 1276 l 549 1276 l 631 1072 l 472 1072 z "},"Ő":{"ha":1078,"x_min":58,"x_max":1019,"o":"m 539 -22 q 281 40 389 -22 q 116 218 174 103 q 58 492 58 333 q 116 766 58 650 q 281 945 174 882 q 539 1008 389 1008 q 797 945 689 1008 q 962 766 904 882 q 1019 492 1019 650 q 962 218 1019 333 q 797 40 904 103 q 539 -22 689 -22 m 539 156 q 732 244 663 156 q 801 492 801 332 q 732 741 801 651 q 539 831 663 831 q 346 741 415 831 q 276 492 276 651 q 346 244 276 332 q 539 156 415 156 m 336 1063 l 418 1268 l 619 1268 l 494 1063 l 336 1063 m 582 1063 l 664 1268 l 865 1268 l 740 1063 l 582 1063 z "},"Ō":{"ha":1078,"x_min":58,"x_max":1019,"o":"m 539 -22 q 281 40 389 -22 q 116 218 174 103 q 58 492 58 333 q 116 766 58 650 q 281 945 174 882 q 539 1008 389 1008 q 797 945 689 1008 q 962 766 904 882 q 1019 492 1019 650 q 962 218 1019 333 q 797 40 904 103 q 539 -22 689 -22 m 539 156 q 732 244 663 156 q 801 492 801 332 q 732 741 801 651 q 539 831 663 831 q 346 741 415 831 q 276 492 276 651 q 346 244 276 332 q 539 156 415 156 m 331 1085 l 331 1238 l 746 1238 l 746 1085 l 331 1085 z "},"Ø":{"ha":1078,"x_min":58,"x_max":1019,"o":"m 539 -22 q 281 40 389 -22 q 116 218 174 103 q 58 492 58 333 q 116 766 58 650 q 281 945 174 882 q 539 1008 389 1008 q 797 945 689 1008 q 962 766 904 882 q 1019 492 1019 650 q 962 218 1019 333 q 797 40 904 103 q 539 -22 689 -22 m 539 156 q 732 244 663 156 q 801 492 801 332 q 732 741 801 651 q 539 831 663 831 q 346 741 415 831 q 276 492 276 651 q 346 244 276 332 q 539 156 415 156 m 100 -22 l 822 1008 l 978 1008 l 256 -22 l 100 -22 z "},"Õ":{"ha":1078,"x_min":58,"x_max":1019,"o":"m 539 -22 q 281 40 389 -22 q 116 218 174 103 q 58 492 58 333 q 116 766 58 650 q 281 945 174 882 q 539 1008 389 1008 q 797 945 689 1008 q 962 766 904 882 q 1019 492 1019 650 q 962 218 1019 333 q 797 40 904 103 q 539 -22 689 -22 m 539 156 q 732 244 663 156 q 801 492 801 332 q 732 741 801 651 q 539 831 663 831 q 346 741 415 831 q 276 492 276 651 q 346 244 276 332 q 539 156 415 156 m 617 1075 q 560 1084 583 1075 q 511 1117 538 1093 q 483 1135 494 1129 q 457 1142 471 1142 q 422 1126 436 1142 q 404 1068 407 1111 l 300 1068 q 341 1212 300 1158 q 453 1265 382 1265 q 567 1224 515 1265 q 619 1199 599 1199 q 656 1215 642 1199 q 672 1275 669 1231 l 775 1275 q 733 1129 774 1183 q 617 1075 692 1075 z "},"Œ":{"ha":1556,"x_min":58,"x_max":1492,"o":"m 536 -22 q 284 40 392 -22 q 117 217 176 103 q 58 492 58 332 q 117 769 58 653 q 284 947 176 885 q 536 1008 392 1008 q 705 978 631 1008 q 833 890 779 947 l 833 986 l 1481 986 l 1481 808 l 1044 808 l 1044 582 l 1464 582 l 1464 407 l 1044 407 l 1044 178 l 1492 178 l 1492 0 l 833 0 l 833 96 q 705 8 779 39 q 536 -22 631 -22 m 536 156 q 686 199 628 156 q 772 319 744 243 q 800 492 800 396 q 772 665 800 588 q 686 786 744 742 q 536 831 628 831 q 390 786 447 831 q 304 665 332 742 q 276 492 276 589 q 305 319 276 396 q 391 199 333 243 q 536 156 449 156 z "},"P":{"ha":933,"x_min":103,"x_max":876,"o":"m 103 0 l 103 986 l 497 986 q 776 900 675 986 q 876 664 876 814 q 776 427 876 514 q 497 340 675 340 l 314 340 l 314 0 l 103 0 m 314 518 l 485 518 q 614 555 568 518 q 660 664 660 592 q 614 772 660 736 q 485 808 568 808 l 314 808 l 314 518 z "},"Þ":{"ha":892,"x_min":103,"x_max":835,"o":"m 103 0 l 103 986 l 314 986 l 314 810 l 467 810 q 738 731 642 810 q 835 510 835 651 q 738 286 835 365 q 467 207 642 207 l 314 207 l 314 0 l 103 0 m 463 631 l 314 631 l 314 385 l 463 385 q 618 508 618 385 q 463 631 618 631 z "},"Q":{"ha":1068,"x_min":58,"x_max":1010,"o":"m 788 -86 l 711 10 q 535 -22 643 -22 q 282 44 389 -22 q 117 226 175 110 q 58 492 58 342 q 113 756 58 639 q 274 940 168 872 q 535 1008 381 1008 q 794 940 689 1008 q 955 756 900 872 q 1010 492 1010 639 q 963 250 1010 354 q 831 76 917 146 l 961 -86 l 788 -86 m 535 156 q 597 165 574 156 l 460 333 l 635 333 l 707 238 q 769 338 747 276 q 792 492 792 400 q 765 659 792 582 q 681 783 738 736 q 535 831 624 831 q 388 783 444 831 q 303 659 331 736 q 276 492 276 582 q 303 326 276 403 q 388 202 331 249 q 535 156 444 156 z "},"R":{"ha":968,"x_min":103,"x_max":899,"o":"m 103 0 l 103 986 l 535 986 q 722 950 643 986 q 845 848 801 914 q 889 692 889 782 q 841 539 889 601 q 715 453 793 476 q 874 283 861 432 l 899 0 l 683 0 l 665 250 q 630 334 661 307 q 524 361 599 361 l 314 361 l 314 0 l 103 0 m 314 538 l 511 538 q 630 573 588 538 q 672 674 672 608 q 629 774 672 740 q 504 808 586 808 l 314 808 l 314 538 z "},"Ŕ":{"ha":968,"x_min":103,"x_max":899,"o":"m 103 0 l 103 986 l 535 986 q 722 950 643 986 q 845 848 801 914 q 889 692 889 782 q 841 539 889 601 q 715 453 793 476 q 874 283 861 432 l 899 0 l 683 0 l 665 250 q 630 334 661 307 q 524 361 599 361 l 314 361 l 314 0 l 103 0 m 314 538 l 511 538 q 630 573 588 538 q 672 674 672 608 q 629 774 672 740 q 504 808 586 808 l 314 808 l 314 538 m 385 1063 l 467 1268 l 668 1268 l 543 1063 l 385 1063 z "},"Ř":{"ha":968,"x_min":103,"x_max":899,"o":"m 103 0 l 103 986 l 535 986 q 722 950 643 986 q 845 848 801 914 q 889 692 889 782 q 841 539 889 601 q 715 453 793 476 q 874 283 861 432 l 899 0 l 683 0 l 665 250 q 630 334 661 307 q 524 361 599 361 l 314 361 l 314 0 l 103 0 m 314 538 l 511 538 q 630 573 588 538 q 672 674 672 608 q 629 774 672 740 q 504 808 586 808 l 314 808 l 314 538 m 246 1275 l 392 1275 l 479 1151 l 567 1275 l 713 1275 l 579 1063 l 379 1063 l 246 1275 z "},"Ŗ":{"ha":968,"x_min":103,"x_max":899,"o":"m 103 0 l 103 986 l 535 986 q 722 950 643 986 q 845 848 801 914 q 889 692 889 782 q 841 539 889 601 q 715 453 793 476 q 874 283 861 432 l 899 0 l 683 0 l 665 250 q 630 334 661 307 q 524 361 599 361 l 314 361 l 314 0 l 103 0 m 314 538 l 511 538 q 630 573 588 538 q 672 674 672 608 q 629 774 672 740 q 504 808 586 808 l 314 808 l 314 538 m 386 -351 l 458 -229 l 410 -229 l 410 -68 l 590 -68 l 590 -214 l 508 -351 l 386 -351 z "},"S":{"ha":946,"x_min":72,"x_max":874,"o":"m 493 -22 q 192 72 301 -22 q 72 325 83 167 l 285 335 q 349 200 297 247 q 496 153 400 153 q 617 181 574 153 q 661 267 661 210 q 644 327 661 301 q 581 374 628 353 q 442 417 533 396 q 238 482 315 446 q 126 573 161 518 q 92 711 92 628 q 135 866 92 799 q 263 971 179 933 q 461 1008 346 1008 q 668 965 583 1008 q 800 847 753 922 q 858 675 847 772 l 647 664 q 591 787 639 740 q 458 833 543 833 q 345 801 386 833 q 304 718 304 769 q 322 658 304 682 q 385 615 340 633 q 510 581 429 597 q 726 510 647 553 q 840 410 806 468 q 874 276 874 351 q 827 117 874 185 q 695 14 781 50 q 493 -22 610 -22 z "},"Ś":{"ha":946,"x_min":72,"x_max":874,"o":"m 493 -22 q 192 72 301 -22 q 72 325 83 167 l 285 335 q 349 200 297 247 q 496 153 400 153 q 617 181 574 153 q 661 267 661 210 q 644 327 661 301 q 581 374 628 353 q 442 417 533 396 q 238 482 315 446 q 126 573 161 518 q 92 711 92 628 q 135 866 92 799 q 263 971 179 933 q 461 1008 346 1008 q 668 965 583 1008 q 800 847 753 922 q 858 675 847 772 l 647 664 q 591 787 639 740 q 458 833 543 833 q 345 801 386 833 q 304 718 304 769 q 322 658 304 682 q 385 615 340 633 q 510 581 429 597 q 726 510 647 553 q 840 410 806 468 q 874 276 874 351 q 827 117 874 185 q 695 14 781 50 q 493 -22 610 -22 m 368 1063 l 450 1268 l 651 1268 l 526 1063 l 368 1063 z "},"Š":{"ha":946,"x_min":72,"x_max":874,"o":"m 493 -22 q 192 72 301 -22 q 72 325 83 167 l 285 335 q 349 200 297 247 q 496 153 400 153 q 617 181 574 153 q 661 267 661 210 q 644 327 661 301 q 581 374 628 353 q 442 417 533 396 q 238 482 315 446 q 126 573 161 518 q 92 711 92 628 q 135 866 92 799 q 263 971 179 933 q 461 1008 346 1008 q 668 965 583 1008 q 800 847 753 922 q 858 675 847 772 l 647 664 q 591 787 639 740 q 458 833 543 833 q 345 801 386 833 q 304 718 304 769 q 322 658 304 682 q 385 615 340 633 q 510 581 429 597 q 726 510 647 553 q 840 410 806 468 q 874 276 874 351 q 827 117 874 185 q 695 14 781 50 q 493 -22 610 -22 m 229 1275 l 375 1275 l 463 1151 l 550 1275 l 696 1275 l 563 1063 l 363 1063 l 229 1275 z "},"Ş":{"ha":946,"x_min":72,"x_max":874,"o":"m 493 -22 q 192 72 301 -22 q 72 325 83 167 l 285 335 q 349 200 297 247 q 496 153 400 153 q 617 181 574 153 q 661 267 661 210 q 644 327 661 301 q 581 374 628 353 q 442 417 533 396 q 238 482 315 446 q 126 573 161 518 q 92 711 92 628 q 135 866 92 799 q 263 971 179 933 q 461 1008 346 1008 q 668 965 583 1008 q 800 847 753 922 q 858 675 847 772 l 647 664 q 591 787 639 740 q 458 833 543 833 q 345 801 386 833 q 304 718 304 769 q 322 658 304 682 q 385 615 340 633 q 510 581 429 597 q 726 510 647 553 q 840 410 806 468 q 874 276 874 351 q 827 117 874 185 q 695 14 781 50 q 493 -22 610 -22 m 476 -322 q 362 -290 407 -322 q 299 -207 317 -258 l 390 -168 q 421 -208 401 -194 q 472 -221 440 -221 q 521 -208 503 -221 q 539 -171 539 -194 q 522 -131 539 -146 q 449 -117 504 -117 l 392 -62 l 438 14 l 557 14 l 519 -43 q 621 -87 589 -50 q 653 -175 653 -124 q 601 -286 653 -250 q 476 -322 550 -322 z "},"Ŝ":{"ha":946,"x_min":72,"x_max":874,"o":"m 493 -22 q 192 72 301 -22 q 72 325 83 167 l 285 335 q 349 200 297 247 q 496 153 400 153 q 617 181 574 153 q 661 267 661 210 q 644 327 661 301 q 581 374 628 353 q 442 417 533 396 q 238 482 315 446 q 126 573 161 518 q 92 711 92 628 q 135 866 92 799 q 263 971 179 933 q 461 1008 346 1008 q 668 965 583 1008 q 800 847 753 922 q 858 675 847 772 l 647 664 q 591 787 639 740 q 458 833 543 833 q 345 801 386 833 q 304 718 304 769 q 322 658 304 682 q 385 615 340 633 q 510 581 429 597 q 726 510 647 553 q 840 410 806 468 q 874 276 874 351 q 827 117 874 185 q 695 14 781 50 q 493 -22 610 -22 m 229 1063 l 363 1275 l 563 1275 l 696 1063 l 550 1063 l 463 1186 l 375 1063 l 229 1063 z "},"Ș":{"ha":946,"x_min":72,"x_max":874,"o":"m 493 -22 q 192 72 301 -22 q 72 325 83 167 l 285 335 q 349 200 297 247 q 496 153 400 153 q 617 181 574 153 q 661 267 661 210 q 644 327 661 301 q 581 374 628 353 q 442 417 533 396 q 238 482 315 446 q 126 573 161 518 q 92 711 92 628 q 135 866 92 799 q 263 971 179 933 q 461 1008 346 1008 q 668 965 583 1008 q 800 847 753 922 q 858 675 847 772 l 647 664 q 591 787 639 740 q 458 833 543 833 q 345 801 386 833 q 304 718 304 769 q 322 658 304 682 q 385 615 340 633 q 510 581 429 597 q 726 510 647 553 q 840 410 806 468 q 874 276 874 351 q 827 117 874 185 q 695 14 781 50 q 493 -22 610 -22 m 371 -351 l 443 -229 l 394 -229 l 394 -68 l 575 -68 l 575 -214 l 493 -351 l 371 -351 z "},"ẞ":{"ha":1029,"x_min":103,"x_max":960,"o":"m 103 0 l 103 651 q 194 900 103 814 q 463 986 286 986 l 911 986 l 911 804 l 667 585 q 885 494 811 565 q 960 307 960 424 q 859 81 960 161 q 575 0 758 0 l 407 0 l 407 178 l 575 178 q 699 213 654 178 q 743 310 743 247 q 695 408 743 374 q 563 442 647 442 l 426 442 l 426 588 l 664 808 l 463 808 q 314 651 314 808 l 314 0 l 103 0 z "},"T":{"ha":832,"x_min":15,"x_max":818,"o":"m 310 0 l 310 808 l 15 808 l 15 986 l 818 986 l 818 808 l 522 808 l 522 0 l 310 0 z "},"Ŧ":{"ha":832,"x_min":15,"x_max":818,"o":"m 310 0 l 310 808 l 15 808 l 15 986 l 818 986 l 818 808 l 522 808 l 522 0 l 310 0 m 138 374 l 138 533 l 696 533 l 696 374 l 138 374 z "},"Ť":{"ha":832,"x_min":15,"x_max":818,"o":"m 310 0 l 310 808 l 15 808 l 15 986 l 818 986 l 818 808 l 522 808 l 522 0 l 310 0 m 182 1275 l 328 1275 l 415 1151 l 503 1275 l 649 1275 l 515 1063 l 315 1063 l 182 1275 z "},"Ţ":{"ha":832,"x_min":15,"x_max":818,"o":"m 310 0 l 310 808 l 15 808 l 15 986 l 818 986 l 818 808 l 522 808 l 522 0 l 310 0 m 407 -322 q 292 -290 338 -322 q 229 -207 247 -258 l 321 -168 q 351 -208 332 -194 q 403 -221 371 -221 q 451 -208 433 -221 q 469 -171 469 -194 q 452 -131 469 -146 q 379 -117 435 -117 l 322 -62 l 368 14 l 488 14 l 450 -43 q 551 -87 519 -50 q 583 -175 583 -124 q 532 -286 583 -250 q 407 -322 481 -322 z "},"Ț":{"ha":832,"x_min":15,"x_max":818,"o":"m 310 0 l 310 808 l 15 808 l 15 986 l 818 986 l 818 808 l 522 808 l 522 0 l 310 0 m 301 -351 l 374 -229 l 325 -229 l 325 -68 l 506 -68 l 506 -214 l 424 -351 l 301 -351 z "},"U":{"ha":976,"x_min":82,"x_max":894,"o":"m 489 -22 q 273 24 364 -22 q 132 156 182 71 q 82 356 82 240 l 82 988 l 293 988 l 293 356 q 344 208 293 260 q 489 156 394 156 q 633 208 582 156 q 683 356 683 260 l 683 988 l 894 988 l 894 356 q 845 156 894 240 q 704 24 796 71 q 489 -22 613 -22 z "},"Ú":{"ha":976,"x_min":82,"x_max":894,"o":"m 489 -22 q 273 24 364 -22 q 132 156 182 71 q 82 356 82 240 l 82 988 l 293 988 l 293 356 q 344 208 293 260 q 489 156 394 156 q 633 208 582 156 q 683 356 683 260 l 683 988 l 894 988 l 894 356 q 845 156 894 240 q 704 24 796 71 q 489 -22 613 -22 m 394 1063 l 476 1268 l 678 1268 l 553 1063 l 394 1063 z "},"Ŭ":{"ha":976,"x_min":82,"x_max":894,"o":"m 489 -22 q 273 24 364 -22 q 132 156 182 71 q 82 356 82 240 l 82 988 l 293 988 l 293 356 q 344 208 293 260 q 489 156 394 156 q 633 208 582 156 q 683 356 683 260 l 683 988 l 894 988 l 894 356 q 845 156 894 240 q 704 24 796 71 q 489 -22 613 -22 m 489 1064 q 333 1117 392 1064 q 271 1268 275 1171 l 392 1268 q 422 1199 396 1219 q 489 1178 447 1178 q 556 1199 531 1178 q 585 1268 581 1219 l 706 1268 q 643 1117 701 1171 q 489 1064 585 1064 z "},"Û":{"ha":976,"x_min":82,"x_max":894,"o":"m 489 -22 q 273 24 364 -22 q 132 156 182 71 q 82 356 82 240 l 82 988 l 293 988 l 293 356 q 344 208 293 260 q 489 156 394 156 q 633 208 582 156 q 683 356 683 260 l 683 988 l 894 988 l 894 356 q 845 156 894 240 q 704 24 796 71 q 489 -22 613 -22 m 256 1063 l 389 1275 l 589 1275 l 722 1063 l 576 1063 l 489 1186 l 401 1063 l 256 1063 z "},"Ü":{"ha":976,"x_min":82,"x_max":894,"o":"m 489 -22 q 273 24 364 -22 q 132 156 182 71 q 82 356 82 240 l 82 988 l 293 988 l 293 356 q 344 208 293 260 q 489 156 394 156 q 633 208 582 156 q 683 356 683 260 l 683 988 l 894 988 l 894 356 q 845 156 894 240 q 704 24 796 71 q 489 -22 613 -22 m 240 1074 l 240 1242 l 439 1242 l 439 1074 l 240 1074 m 539 1074 l 539 1242 l 738 1242 l 738 1074 l 539 1074 z "},"Ù":{"ha":976,"x_min":82,"x_max":894,"o":"m 489 -22 q 273 24 364 -22 q 132 156 182 71 q 82 356 82 240 l 82 988 l 293 988 l 293 356 q 344 208 293 260 q 489 156 394 156 q 633 208 582 156 q 683 356 683 260 l 683 988 l 894 988 l 894 356 q 845 156 894 240 q 704 24 796 71 q 489 -22 613 -22 m 422 1072 l 297 1276 l 499 1276 l 581 1072 l 422 1072 z "},"Ű":{"ha":976,"x_min":82,"x_max":894,"o":"m 489 -22 q 273 24 364 -22 q 132 156 182 71 q 82 356 82 240 l 82 988 l 293 988 l 293 356 q 344 208 293 260 q 489 156 394 156 q 633 208 582 156 q 683 356 683 260 l 683 988 l 894 988 l 894 356 q 845 156 894 240 q 704 24 796 71 q 489 -22 613 -22 m 286 1063 l 368 1268 l 569 1268 l 444 1063 l 286 1063 m 532 1063 l 614 1268 l 815 1268 l 690 1063 l 532 1063 z "},"Ū":{"ha":976,"x_min":82,"x_max":894,"o":"m 489 -22 q 273 24 364 -22 q 132 156 182 71 q 82 356 82 240 l 82 988 l 293 988 l 293 356 q 344 208 293 260 q 489 156 394 156 q 633 208 582 156 q 683 356 683 260 l 683 988 l 894 988 l 894 356 q 845 156 894 240 q 704 24 796 71 q 489 -22 613 -22 m 281 1085 l 281 1238 l 696 1238 l 696 1085 l 281 1085 z "},"Ų":{"ha":976,"x_min":82,"x_max":894,"o":"m 489 -22 q 273 24 364 -22 q 132 156 182 71 q 82 356 82 240 l 82 988 l 293 988 l 293 356 q 344 208 293 260 q 489 156 394 156 q 633 208 582 156 q 683 356 683 260 l 683 988 l 894 988 l 894 356 q 845 156 894 240 q 704 24 796 71 q 489 -22 613 -22 m 551 -300 q 436 -269 478 -300 q 394 -182 394 -239 q 416 -99 394 -139 q 464 -26 438 -60 l 510 35 l 649 1 l 607 -54 q 574 -103 586 -82 q 563 -142 563 -124 q 574 -167 563 -158 q 599 -176 585 -176 q 661 -158 636 -176 l 700 -264 q 638 -290 681 -279 q 551 -300 596 -300 z "},"Ů":{"ha":976,"x_min":82,"x_max":894,"o":"m 489 -22 q 273 24 364 -22 q 132 156 182 71 q 82 356 82 240 l 82 988 l 293 988 l 293 356 q 344 208 293 260 q 489 156 394 156 q 633 208 582 156 q 683 356 683 260 l 683 988 l 894 988 l 894 356 q 845 156 894 240 q 704 24 796 71 q 489 -22 613 -22 m 489 1040 q 387 1081 428 1040 q 346 1181 346 1121 q 387 1282 346 1242 q 489 1322 428 1322 q 590 1282 549 1322 q 631 1181 631 1242 q 590 1081 631 1121 q 489 1040 549 1040 m 489 1129 q 526 1144 511 1129 q 540 1181 540 1158 q 526 1219 540 1204 q 489 1233 511 1233 q 451 1219 465 1233 q 436 1181 436 1204 q 451 1144 436 1158 q 489 1129 465 1129 z "},"Ũ":{"ha":976,"x_min":82,"x_max":894,"o":"m 489 -22 q 273 24 364 -22 q 132 156 182 71 q 82 356 82 240 l 82 988 l 293 988 l 293 356 q 344 208 293 260 q 489 156 394 156 q 633 208 582 156 q 683 356 683 260 l 683 988 l 894 988 l 894 356 q 845 156 894 240 q 704 24 796 71 q 489 -22 613 -22 m 567 1075 q 510 1084 533 1075 q 461 1117 488 1093 q 433 1135 444 1129 q 407 1142 421 1142 q 372 1126 386 1142 q 354 1068 357 1111 l 250 1068 q 291 1212 250 1158 q 403 1265 332 1265 q 517 1224 465 1265 q 569 1199 549 1199 q 606 1215 592 1199 q 622 1275 619 1231 l 725 1275 q 683 1129 724 1183 q 567 1075 642 1075 z "},"V":{"ha":1014,"x_min":26,"x_max":988,"o":"m 382 0 l 26 986 l 244 986 l 507 238 l 769 986 l 988 986 l 631 0 l 382 0 z "},"W":{"ha":1410,"x_min":51,"x_max":1358,"o":"m 318 0 l 51 986 l 272 986 l 442 292 l 613 986 l 797 986 l 969 292 l 1138 986 l 1358 986 l 1093 0 l 865 0 l 704 631 l 543 0 l 318 0 z "},"Ẃ":{"ha":1410,"x_min":51,"x_max":1358,"o":"m 318 0 l 51 986 l 272 986 l 442 292 l 613 986 l 797 986 l 969 292 l 1138 986 l 1358 986 l 1093 0 l 865 0 l 704 631 l 543 0 l 318 0 m 610 1063 l 692 1268 l 893 1268 l 768 1063 l 610 1063 z "},"Ŵ":{"ha":1410,"x_min":51,"x_max":1358,"o":"m 318 0 l 51 986 l 272 986 l 442 292 l 613 986 l 797 986 l 969 292 l 1138 986 l 1358 986 l 1093 0 l 865 0 l 704 631 l 543 0 l 318 0 m 471 1063 l 604 1275 l 804 1275 l 938 1063 l 792 1063 l 704 1186 l 617 1063 l 471 1063 z "},"Ẅ":{"ha":1410,"x_min":51,"x_max":1358,"o":"m 318 0 l 51 986 l 272 986 l 442 292 l 613 986 l 797 986 l 969 292 l 1138 986 l 1358 986 l 1093 0 l 865 0 l 704 631 l 543 0 l 318 0 m 457 1074 l 457 1242 l 656 1242 l 656 1074 l 457 1074 m 756 1074 l 756 1242 l 954 1242 l 954 1074 l 756 1074 z "},"Ẁ":{"ha":1410,"x_min":51,"x_max":1358,"o":"m 318 0 l 51 986 l 272 986 l 442 292 l 613 986 l 797 986 l 969 292 l 1138 986 l 1358 986 l 1093 0 l 865 0 l 704 631 l 543 0 l 318 0 m 639 1072 l 514 1276 l 715 1276 l 797 1072 l 639 1072 z "},"X":{"ha":956,"x_min":17,"x_max":939,"o":"m 17 0 l 351 494 l 19 986 l 264 986 l 479 654 l 689 986 l 935 986 l 603 497 l 939 0 l 693 0 l 476 338 l 263 0 l 17 0 z "},"Y":{"ha":876,"x_min":-10,"x_max":886,"o":"m 333 0 l 333 383 l -10 986 l 224 986 l 439 589 l 653 986 l 886 986 l 544 383 l 544 0 l 333 0 z "},"Ý":{"ha":876,"x_min":-10,"x_max":886,"o":"m 333 0 l 333 383 l -10 986 l 224 986 l 439 589 l 653 986 l 886 986 l 544 383 l 544 0 l 333 0 m 344 1063 l 426 1268 l 628 1268 l 503 1063 l 344 1063 z "},"Ŷ":{"ha":876,"x_min":-10,"x_max":886,"o":"m 333 0 l 333 383 l -10 986 l 224 986 l 439 589 l 653 986 l 886 986 l 544 383 l 544 0 l 333 0 m 206 1063 l 339 1275 l 539 1275 l 672 1063 l 526 1063 l 439 1186 l 351 1063 l 206 1063 z "},"Ÿ":{"ha":876,"x_min":-10,"x_max":886,"o":"m 333 0 l 333 383 l -10 986 l 224 986 l 439 589 l 653 986 l 886 986 l 544 383 l 544 0 l 333 0 m 190 1074 l 190 1242 l 389 1242 l 389 1074 l 190 1074 m 489 1074 l 489 1242 l 688 1242 l 688 1074 l 489 1074 z "},"Ỳ":{"ha":876,"x_min":-10,"x_max":886,"o":"m 333 0 l 333 383 l -10 986 l 224 986 l 439 589 l 653 986 l 886 986 l 544 383 l 544 0 l 333 0 m 374 1072 l 249 1276 l 450 1276 l 532 1072 l 374 1072 z "},"Ỹ":{"ha":876,"x_min":-10,"x_max":886,"o":"m 333 0 l 333 383 l -10 986 l 224 986 l 439 589 l 653 986 l 886 986 l 544 383 l 544 0 l 333 0 m 518 1075 q 462 1084 485 1075 q 413 1117 439 1093 q 384 1135 396 1129 q 358 1142 372 1142 q 323 1126 338 1142 q 306 1068 308 1111 l 201 1068 q 242 1212 201 1158 q 354 1265 283 1265 q 468 1224 417 1265 q 521 1199 500 1199 q 557 1215 543 1199 q 574 1275 571 1231 l 676 1275 q 634 1129 675 1183 q 518 1075 593 1075 z "},"Z":{"ha":825,"x_min":38,"x_max":788,"o":"m 38 0 l 38 172 l 507 808 l 60 808 l 60 986 l 769 986 l 769 814 l 290 178 l 788 178 l 788 0 l 38 0 z "},"Ź":{"ha":825,"x_min":38,"x_max":788,"o":"m 38 0 l 38 172 l 507 808 l 60 808 l 60 986 l 769 986 l 769 814 l 290 178 l 788 178 l 788 0 l 38 0 m 331 1063 l 413 1268 l 614 1268 l 489 1063 l 331 1063 z "},"Ž":{"ha":825,"x_min":38,"x_max":788,"o":"m 38 0 l 38 172 l 507 808 l 60 808 l 60 986 l 769 986 l 769 814 l 290 178 l 788 178 l 788 0 l 38 0 m 192 1275 l 338 1275 l 425 1151 l 513 1275 l 658 1275 l 525 1063 l 325 1063 l 192 1275 z "},"Ż":{"ha":825,"x_min":38,"x_max":788,"o":"m 38 0 l 38 172 l 507 808 l 60 808 l 60 986 l 769 986 l 769 814 l 290 178 l 788 178 l 788 0 l 38 0 m 317 1078 l 317 1244 l 532 1244 l 532 1078 l 317 1078 z "},"Ꞌ":{"ha":314,"x_min":58,"x_max":256,"o":"m 76 458 l 58 792 l 58 986 l 256 986 l 256 792 l 238 458 l 76 458 z "},"a":{"ha":825,"x_min":51,"x_max":807,"o":"m 313 -17 q 124 37 196 -17 q 51 186 51 90 q 113 338 51 285 q 296 417 175 392 l 536 464 q 410 610 536 610 q 274 503 294 610 l 64 513 q 174 698 85 635 q 410 761 264 761 q 660 681 576 761 q 744 450 744 601 l 744 196 q 755 153 744 164 q 786 143 765 143 l 807 143 l 807 0 q 776 -6 797 -3 q 733 -8 754 -8 q 629 17 675 -8 q 569 114 583 43 q 475 19 542 54 q 313 -17 408 -17 m 363 126 q 488 172 440 126 q 536 297 536 218 l 536 333 l 367 297 q 265 206 265 278 q 363 126 265 126 z "},"á":{"ha":825,"x_min":51,"x_max":807,"o":"m 313 -17 q 124 37 196 -17 q 51 186 51 90 q 113 338 51 285 q 296 417 175 392 l 536 464 q 410 610 536 610 q 274 503 294 610 l 64 513 q 174 698 85 635 q 410 761 264 761 q 660 681 576 761 q 744 450 744 601 l 744 196 q 755 153 744 164 q 786 143 765 143 l 807 143 l 807 0 q 776 -6 797 -3 q 733 -8 754 -8 q 629 17 675 -8 q 569 114 583 43 q 475 19 542 54 q 313 -17 408 -17 m 363 126 q 488 172 440 126 q 536 297 536 218 l 536 333 l 367 297 q 265 206 265 278 q 363 126 265 126 m 318 821 l 400 1026 l 601 1026 l 476 821 l 318 821 z "},"ă":{"ha":825,"x_min":51,"x_max":807,"o":"m 313 -17 q 124 37 196 -17 q 51 186 51 90 q 113 338 51 285 q 296 417 175 392 l 536 464 q 410 610 536 610 q 274 503 294 610 l 64 513 q 174 698 85 635 q 410 761 264 761 q 660 681 576 761 q 744 450 744 601 l 744 196 q 755 153 744 164 q 786 143 765 143 l 807 143 l 807 0 q 776 -6 797 -3 q 733 -8 754 -8 q 629 17 675 -8 q 569 114 583 43 q 475 19 542 54 q 313 -17 408 -17 m 363 126 q 488 172 440 126 q 536 297 536 218 l 536 333 l 367 297 q 265 206 265 278 q 363 126 265 126 m 413 822 q 257 876 315 822 q 194 1026 199 929 l 315 1026 q 345 957 319 978 q 413 936 371 936 q 479 957 454 936 q 508 1026 504 978 l 629 1026 q 567 876 625 929 q 413 822 508 822 z "},"ǎ":{"ha":825,"x_min":51,"x_max":807,"o":"m 313 -17 q 124 37 196 -17 q 51 186 51 90 q 113 338 51 285 q 296 417 175 392 l 536 464 q 410 610 536 610 q 274 503 294 610 l 64 513 q 174 698 85 635 q 410 761 264 761 q 660 681 576 761 q 744 450 744 601 l 744 196 q 755 153 744 164 q 786 143 765 143 l 807 143 l 807 0 q 776 -6 797 -3 q 733 -8 754 -8 q 629 17 675 -8 q 569 114 583 43 q 475 19 542 54 q 313 -17 408 -17 m 363 126 q 488 172 440 126 q 536 297 536 218 l 536 333 l 367 297 q 265 206 265 278 q 363 126 265 126 m 179 1033 l 325 1033 l 413 910 l 500 1033 l 646 1033 l 513 821 l 313 821 l 179 1033 z "},"â":{"ha":825,"x_min":51,"x_max":807,"o":"m 313 -17 q 124 37 196 -17 q 51 186 51 90 q 113 338 51 285 q 296 417 175 392 l 536 464 q 410 610 536 610 q 274 503 294 610 l 64 513 q 174 698 85 635 q 410 761 264 761 q 660 681 576 761 q 744 450 744 601 l 744 196 q 755 153 744 164 q 786 143 765 143 l 807 143 l 807 0 q 776 -6 797 -3 q 733 -8 754 -8 q 629 17 675 -8 q 569 114 583 43 q 475 19 542 54 q 313 -17 408 -17 m 363 126 q 488 172 440 126 q 536 297 536 218 l 536 333 l 367 297 q 265 206 265 278 q 363 126 265 126 m 179 821 l 313 1033 l 513 1033 l 646 821 l 500 821 l 413 944 l 325 821 l 179 821 z "},"ä":{"ha":825,"x_min":51,"x_max":807,"o":"m 313 -17 q 124 37 196 -17 q 51 186 51 90 q 113 338 51 285 q 296 417 175 392 l 536 464 q 410 610 536 610 q 274 503 294 610 l 64 513 q 174 698 85 635 q 410 761 264 761 q 660 681 576 761 q 744 450 744 601 l 744 196 q 755 153 744 164 q 786 143 765 143 l 807 143 l 807 0 q 776 -6 797 -3 q 733 -8 754 -8 q 629 17 675 -8 q 569 114 583 43 q 475 19 542 54 q 313 -17 408 -17 m 363 126 q 488 172 440 126 q 536 297 536 218 l 536 333 l 367 297 q 265 206 265 278 q 363 126 265 126 m 164 832 l 164 1000 l 363 1000 l 363 832 l 164 832 m 463 832 l 463 1000 l 661 1000 l 661 832 l 463 832 z "},"à":{"ha":825,"x_min":51,"x_max":807,"o":"m 313 -17 q 124 37 196 -17 q 51 186 51 90 q 113 338 51 285 q 296 417 175 392 l 536 464 q 410 610 536 610 q 274 503 294 610 l 64 513 q 174 698 85 635 q 410 761 264 761 q 660 681 576 761 q 744 450 744 601 l 744 196 q 755 153 744 164 q 786 143 765 143 l 807 143 l 807 0 q 776 -6 797 -3 q 733 -8 754 -8 q 629 17 675 -8 q 569 114 583 43 q 475 19 542 54 q 313 -17 408 -17 m 363 126 q 488 172 440 126 q 536 297 536 218 l 536 333 l 367 297 q 265 206 265 278 q 363 126 265 126 m 346 831 l 221 1035 l 422 1035 l 504 831 l 346 831 z "},"ā":{"ha":825,"x_min":51,"x_max":807,"o":"m 313 -17 q 124 37 196 -17 q 51 186 51 90 q 113 338 51 285 q 296 417 175 392 l 536 464 q 410 610 536 610 q 274 503 294 610 l 64 513 q 174 698 85 635 q 410 761 264 761 q 660 681 576 761 q 744 450 744 601 l 744 196 q 755 153 744 164 q 786 143 765 143 l 807 143 l 807 0 q 776 -6 797 -3 q 733 -8 754 -8 q 629 17 675 -8 q 569 114 583 43 q 475 19 542 54 q 313 -17 408 -17 m 363 126 q 488 172 440 126 q 536 297 536 218 l 536 333 l 367 297 q 265 206 265 278 q 363 126 265 126 m 204 843 l 204 996 l 619 996 l 619 843 l 204 843 z "},"ą":{"ha":825,"x_min":51,"x_max":858,"o":"m 313 -17 q 124 37 196 -17 q 51 186 51 90 q 113 338 51 285 q 296 417 175 392 l 536 464 q 410 610 536 610 q 274 503 294 610 l 64 513 q 174 698 85 635 q 410 761 264 761 q 660 681 576 761 q 744 450 744 601 l 744 196 q 755 153 744 164 q 786 143 765 143 l 807 143 l 807 0 q 776 -6 797 -3 q 733 -8 754 -8 q 629 17 675 -8 q 569 114 583 43 q 475 19 542 54 q 313 -17 408 -17 m 363 126 q 488 172 440 126 q 536 297 536 218 l 536 333 l 367 297 q 265 206 265 278 q 363 126 265 126 m 710 -301 q 594 -271 636 -301 q 553 -183 553 -240 q 574 -101 553 -140 q 622 -28 596 -61 l 668 33 l 807 0 l 765 -56 q 733 -104 744 -83 q 721 -143 721 -125 q 732 -169 721 -160 q 757 -178 743 -178 q 819 -160 794 -178 l 858 -265 q 797 -291 839 -281 q 710 -301 754 -301 z "},"å":{"ha":825,"x_min":51,"x_max":807,"o":"m 313 -17 q 124 37 196 -17 q 51 186 51 90 q 113 338 51 285 q 296 417 175 392 l 536 464 q 410 610 536 610 q 274 503 294 610 l 64 513 q 174 698 85 635 q 410 761 264 761 q 660 681 576 761 q 744 450 744 601 l 744 196 q 755 153 744 164 q 786 143 765 143 l 807 143 l 807 0 q 776 -6 797 -3 q 733 -8 754 -8 q 629 17 675 -8 q 569 114 583 43 q 475 19 542 54 q 313 -17 408 -17 m 363 126 q 488 172 440 126 q 536 297 536 218 l 536 333 l 367 297 q 265 206 265 278 q 363 126 265 126 m 413 799 q 310 839 351 799 q 269 939 269 879 q 310 1040 269 1000 q 413 1081 351 1081 q 513 1040 472 1081 q 554 939 554 1000 q 513 839 554 879 q 413 799 472 799 m 413 888 q 449 902 435 888 q 464 939 464 917 q 449 977 464 963 q 413 992 435 992 q 374 977 389 992 q 360 939 360 963 q 374 902 360 917 q 413 888 389 888 z "},"ã":{"ha":825,"x_min":51,"x_max":807,"o":"m 313 -17 q 124 37 196 -17 q 51 186 51 90 q 113 338 51 285 q 296 417 175 392 l 536 464 q 410 610 536 610 q 274 503 294 610 l 64 513 q 174 698 85 635 q 410 761 264 761 q 660 681 576 761 q 744 450 744 601 l 744 196 q 755 153 744 164 q 786 143 765 143 l 807 143 l 807 0 q 776 -6 797 -3 q 733 -8 754 -8 q 629 17 675 -8 q 569 114 583 43 q 475 19 542 54 q 313 -17 408 -17 m 363 126 q 488 172 440 126 q 536 297 536 218 l 536 333 l 367 297 q 265 206 265 278 q 363 126 265 126 m 490 833 q 434 842 457 833 q 385 875 411 851 q 356 894 368 888 q 331 900 344 900 q 295 885 310 900 q 278 826 281 869 l 174 826 q 215 970 174 917 q 326 1024 256 1024 q 440 982 389 1024 q 493 957 472 957 q 529 973 515 957 q 546 1033 543 989 l 649 1033 q 606 888 647 942 q 490 833 565 833 z "},"æ":{"ha":1332,"x_min":51,"x_max":1281,"o":"m 314 -17 q 125 35 199 -17 q 51 186 51 88 q 119 345 51 294 q 296 417 186 396 l 536 458 q 503 574 536 538 q 407 610 469 610 q 315 581 349 610 q 274 503 282 553 l 64 513 q 174 697 86 633 q 406 761 263 761 q 665 675 581 761 q 777 739 714 717 q 915 761 840 761 q 1108 713 1026 761 q 1235 574 1190 664 q 1281 358 1281 483 l 1281 317 l 757 317 q 805 185 761 228 q 921 142 849 142 q 1060 232 1031 142 l 1269 219 q 1146 46 1240 108 q 918 -17 1051 -17 q 738 22 817 -17 q 611 129 660 60 q 494 20 569 57 q 314 -17 418 -17 m 757 444 l 1068 444 q 1022 567 1063 526 q 915 607 981 607 q 808 565 850 607 q 757 444 765 522 m 378 125 q 492 169 449 126 q 536 294 536 211 l 536 328 l 367 297 q 290 265 314 289 q 265 206 265 242 q 292 144 265 165 q 378 125 318 122 z "},"b":{"ha":881,"x_min":92,"x_max":829,"o":"m 519 -17 q 384 17 442 -17 q 294 110 326 50 l 290 0 l 92 0 l 92 986 l 300 986 l 300 639 q 386 726 329 690 q 519 761 443 761 q 683 713 614 761 q 791 578 753 665 q 829 372 829 490 q 791 167 829 254 q 683 31 753 79 q 519 -17 614 -17 m 461 143 q 573 203 531 143 q 615 372 615 264 q 574 541 615 481 q 463 601 532 601 q 342 541 385 601 q 300 372 300 481 q 342 204 300 265 q 461 143 385 143 z "},"c":{"ha":831,"x_min":51,"x_max":793,"o":"m 429 -17 q 230 32 315 -17 q 98 167 144 81 q 51 372 51 254 q 98 576 51 489 q 230 713 144 664 q 429 761 315 761 q 606 726 528 761 q 733 626 685 692 q 793 469 782 561 l 578 460 q 528 565 568 529 q 429 600 489 600 q 308 540 351 600 q 265 372 265 481 q 308 203 265 264 q 429 143 351 143 q 529 180 489 143 q 578 292 569 217 l 793 283 q 735 124 783 192 q 609 20 688 57 q 429 -17 531 -17 z "},"ć":{"ha":831,"x_min":51,"x_max":793,"o":"m 429 -17 q 230 32 315 -17 q 98 167 144 81 q 51 372 51 254 q 98 576 51 489 q 230 713 144 664 q 429 761 315 761 q 606 726 528 761 q 733 626 685 692 q 793 469 782 561 l 578 460 q 528 565 568 529 q 429 600 489 600 q 308 540 351 600 q 265 372 265 481 q 308 203 265 264 q 429 143 351 143 q 529 180 489 143 q 578 292 569 217 l 793 283 q 735 124 783 192 q 609 20 688 57 q 429 -17 531 -17 m 335 821 l 417 1026 l 618 1026 l 493 821 l 335 821 z "},"č":{"ha":831,"x_min":51,"x_max":793,"o":"m 429 -17 q 230 32 315 -17 q 98 167 144 81 q 51 372 51 254 q 98 576 51 489 q 230 713 144 664 q 429 761 315 761 q 606 726 528 761 q 733 626 685 692 q 793 469 782 561 l 578 460 q 528 565 568 529 q 429 600 489 600 q 308 540 351 600 q 265 372 265 481 q 308 203 265 264 q 429 143 351 143 q 529 180 489 143 q 578 292 569 217 l 793 283 q 735 124 783 192 q 609 20 688 57 q 429 -17 531 -17 m 196 1033 l 342 1033 l 429 910 l 517 1033 l 663 1033 l 529 821 l 329 821 l 196 1033 z "},"ç":{"ha":831,"x_min":51,"x_max":793,"o":"m 429 -17 q 230 32 315 -17 q 98 167 144 81 q 51 372 51 254 q 98 576 51 489 q 230 713 144 664 q 429 761 315 761 q 606 726 528 761 q 733 626 685 692 q 793 469 782 561 l 578 460 q 528 565 568 529 q 429 600 489 600 q 308 540 351 600 q 265 372 265 481 q 308 203 265 264 q 429 143 351 143 q 529 180 489 143 q 578 292 569 217 l 793 283 q 735 124 783 192 q 609 20 688 57 q 429 -17 531 -17 m 421 -322 q 306 -290 351 -322 q 243 -207 261 -258 l 335 -168 q 365 -208 346 -194 q 417 -221 385 -221 q 465 -208 447 -221 q 483 -171 483 -194 q 466 -131 483 -146 q 393 -117 449 -117 l 336 -62 l 382 14 l 501 14 l 464 -43 q 565 -87 533 -50 q 597 -175 597 -124 q 546 -286 597 -250 q 421 -322 494 -322 z "},"ĉ":{"ha":831,"x_min":51,"x_max":793,"o":"m 429 -17 q 230 32 315 -17 q 98 167 144 81 q 51 372 51 254 q 98 576 51 489 q 230 713 144 664 q 429 761 315 761 q 606 726 528 761 q 733 626 685 692 q 793 469 782 561 l 578 460 q 528 565 568 529 q 429 600 489 600 q 308 540 351 600 q 265 372 265 481 q 308 203 265 264 q 429 143 351 143 q 529 180 489 143 q 578 292 569 217 l 793 283 q 735 124 783 192 q 609 20 688 57 q 429 -17 531 -17 m 196 821 l 329 1033 l 529 1033 l 663 821 l 517 821 l 429 944 l 342 821 l 196 821 z "},"ċ":{"ha":831,"x_min":51,"x_max":793,"o":"m 429 -17 q 230 32 315 -17 q 98 167 144 81 q 51 372 51 254 q 98 576 51 489 q 230 713 144 664 q 429 761 315 761 q 606 726 528 761 q 733 626 685 692 q 793 469 782 561 l 578 460 q 528 565 568 529 q 429 600 489 600 q 308 540 351 600 q 265 372 265 481 q 308 203 265 264 q 429 143 351 143 q 529 180 489 143 q 578 292 569 217 l 793 283 q 735 124 783 192 q 609 20 688 57 q 429 -17 531 -17 m 322 836 l 322 1003 l 538 1003 l 538 836 l 322 836 z "},"d":{"ha":881,"x_min":51,"x_max":789,"o":"m 357 -17 q 194 31 263 -17 q 88 165 125 78 q 51 372 51 253 q 89 578 51 492 q 195 713 126 665 q 357 761 264 761 q 494 728 436 761 q 581 639 551 696 l 581 986 l 789 986 l 789 0 l 590 0 l 586 110 q 494 17 554 50 q 357 -17 433 -17 m 425 143 q 540 201 500 143 q 581 372 581 260 q 540 544 581 486 q 425 601 500 601 q 308 540 351 601 q 265 372 265 479 q 309 206 265 268 q 425 143 353 143 z "},"ď":{"ha":1029,"x_min":51,"x_max":1072,"o":"m 357 -17 q 194 31 263 -17 q 88 165 125 78 q 51 372 51 253 q 89 578 51 492 q 195 713 126 665 q 357 761 264 761 q 494 728 436 761 q 581 639 551 696 l 581 986 l 789 986 l 789 0 l 590 0 l 586 110 q 494 17 554 50 q 357 -17 433 -17 m 425 143 q 540 201 500 143 q 581 372 581 260 q 540 544 581 486 q 425 601 500 601 q 308 540 351 601 q 265 372 265 479 q 309 206 265 268 q 425 143 353 143 m 853 589 l 893 986 l 1072 986 l 997 589 l 853 589 z "},"đ":{"ha":881,"x_min":51,"x_max":882,"o":"m 357 -17 q 194 31 263 -17 q 88 165 125 78 q 51 372 51 253 q 89 578 51 492 q 195 713 126 665 q 357 761 264 761 q 494 728 436 761 q 581 639 551 696 l 581 986 l 789 986 l 789 0 l 590 0 l 586 110 q 494 17 554 50 q 357 -17 433 -17 m 425 143 q 540 201 500 143 q 581 372 581 260 q 540 544 581 486 q 425 601 500 601 q 308 540 351 601 q 265 372 265 479 q 309 206 265 268 q 425 143 353 143 m 399 800 l 399 921 l 882 921 l 882 800 l 399 800 z "},"ð":{"ha":858,"x_min":51,"x_max":807,"o":"m 429 -17 q 149 75 246 -17 q 51 326 51 167 q 149 578 51 486 q 429 669 246 669 q 513 659 472 669 q 590 632 553 649 q 499 771 560 718 l 321 696 l 282 792 l 385 835 q 243 861 322 857 l 299 1003 q 448 972 381 994 q 568 913 515 949 l 751 989 l 790 894 l 656 838 q 771 626 735 749 q 807 365 807 504 q 710 80 807 176 q 429 -17 613 -17 m 429 140 q 550 190 507 140 q 593 332 593 240 q 550 463 593 413 q 429 513 507 513 q 308 462 351 513 q 265 326 265 411 q 308 190 265 240 q 429 140 351 140 z "},"e":{"ha":840,"x_min":51,"x_max":790,"o":"m 426 -17 q 228 32 313 -17 q 98 167 144 81 q 51 372 51 254 q 97 576 51 489 q 227 713 143 664 q 425 761 311 761 q 618 713 536 761 q 745 574 700 664 q 790 358 790 483 l 790 317 l 267 317 q 315 185 271 228 q 431 142 358 142 q 569 232 539 142 l 779 219 q 655 46 749 108 q 426 -17 561 -17 m 267 444 l 576 444 q 531 567 572 526 q 425 607 490 607 q 317 565 360 607 q 267 444 275 522 z "},"é":{"ha":840,"x_min":51,"x_max":790,"o":"m 426 -17 q 228 32 313 -17 q 98 167 144 81 q 51 372 51 254 q 97 576 51 489 q 227 713 143 664 q 425 761 311 761 q 618 713 536 761 q 745 574 700 664 q 790 358 790 483 l 790 317 l 267 317 q 315 185 271 228 q 431 142 358 142 q 569 232 539 142 l 779 219 q 655 46 749 108 q 426 -17 561 -17 m 267 444 l 576 444 q 531 567 572 526 q 425 607 490 607 q 317 565 360 607 q 267 444 275 522 m 335 818 l 417 1024 l 618 1024 l 493 818 l 335 818 z "},"ě":{"ha":840,"x_min":51,"x_max":790,"o":"m 426 -17 q 228 32 313 -17 q 98 167 144 81 q 51 372 51 254 q 97 576 51 489 q 227 713 143 664 q 425 761 311 761 q 618 713 536 761 q 745 574 700 664 q 790 358 790 483 l 790 317 l 267 317 q 315 185 271 228 q 431 142 358 142 q 569 232 539 142 l 779 219 q 655 46 749 108 q 426 -17 561 -17 m 267 444 l 576 444 q 531 567 572 526 q 425 607 490 607 q 317 565 360 607 q 267 444 275 522 m 196 1031 l 342 1031 l 429 907 l 517 1031 l 663 1031 l 529 818 l 329 818 l 196 1031 z "},"ê":{"ha":840,"x_min":51,"x_max":790,"o":"m 426 -17 q 228 32 313 -17 q 98 167 144 81 q 51 372 51 254 q 97 576 51 489 q 227 713 143 664 q 425 761 311 761 q 618 713 536 761 q 745 574 700 664 q 790 358 790 483 l 790 317 l 267 317 q 315 185 271 228 q 431 142 358 142 q 569 232 539 142 l 779 219 q 655 46 749 108 q 426 -17 561 -17 m 267 444 l 576 444 q 531 567 572 526 q 425 607 490 607 q 317 565 360 607 q 267 444 275 522 m 196 818 l 329 1031 l 529 1031 l 663 818 l 517 818 l 429 942 l 342 818 l 196 818 z "},"ë":{"ha":840,"x_min":51,"x_max":790,"o":"m 426 -17 q 228 32 313 -17 q 98 167 144 81 q 51 372 51 254 q 97 576 51 489 q 227 713 143 664 q 425 761 311 761 q 618 713 536 761 q 745 574 700 664 q 790 358 790 483 l 790 317 l 267 317 q 315 185 271 228 q 431 142 358 142 q 569 232 539 142 l 779 219 q 655 46 749 108 q 426 -17 561 -17 m 267 444 l 576 444 q 531 567 572 526 q 425 607 490 607 q 317 565 360 607 q 267 444 275 522 m 181 829 l 181 997 l 379 997 l 379 829 l 181 829 m 479 829 l 479 997 l 678 997 l 678 829 l 479 829 z "},"ė":{"ha":840,"x_min":51,"x_max":790,"o":"m 426 -17 q 228 32 313 -17 q 98 167 144 81 q 51 372 51 254 q 97 576 51 489 q 227 713 143 664 q 425 761 311 761 q 618 713 536 761 q 745 574 700 664 q 790 358 790 483 l 790 317 l 267 317 q 315 185 271 228 q 431 142 358 142 q 569 232 539 142 l 779 219 q 655 46 749 108 q 426 -17 561 -17 m 267 444 l 576 444 q 531 567 572 526 q 425 607 490 607 q 317 565 360 607 q 267 444 275 522 m 322 833 l 322 1000 l 538 1000 l 538 833 l 322 833 z "},"è":{"ha":840,"x_min":51,"x_max":790,"o":"m 426 -17 q 228 32 313 -17 q 98 167 144 81 q 51 372 51 254 q 97 576 51 489 q 227 713 143 664 q 425 761 311 761 q 618 713 536 761 q 745 574 700 664 q 790 358 790 483 l 790 317 l 267 317 q 315 185 271 228 q 431 142 358 142 q 569 232 539 142 l 779 219 q 655 46 749 108 q 426 -17 561 -17 m 267 444 l 576 444 q 531 567 572 526 q 425 607 490 607 q 317 565 360 607 q 267 444 275 522 m 364 828 l 239 1032 l 440 1032 l 522 828 l 364 828 z "},"ē":{"ha":840,"x_min":51,"x_max":790,"o":"m 426 -17 q 228 32 313 -17 q 98 167 144 81 q 51 372 51 254 q 97 576 51 489 q 227 713 143 664 q 425 761 311 761 q 618 713 536 761 q 745 574 700 664 q 790 358 790 483 l 790 317 l 267 317 q 315 185 271 228 q 431 142 358 142 q 569 232 539 142 l 779 219 q 655 46 749 108 q 426 -17 561 -17 m 267 444 l 576 444 q 531 567 572 526 q 425 607 490 607 q 317 565 360 607 q 267 444 275 522 m 222 840 l 222 993 l 638 993 l 638 840 l 222 840 z "},"ę":{"ha":840,"x_min":51,"x_max":790,"o":"m 426 -17 q 228 32 313 -17 q 98 167 144 81 q 51 372 51 254 q 97 576 51 489 q 227 713 143 664 q 425 761 311 761 q 618 713 536 761 q 745 574 700 664 q 790 358 790 483 l 790 317 l 267 317 q 315 185 271 228 q 431 142 358 142 q 569 232 539 142 l 779 219 q 717 100 761 151 l 718 99 l 596 -47 q 553 -139 553 -100 q 564 -169 553 -160 q 589 -178 575 -178 q 649 -160 624 -178 l 686 -265 q 627 -291 668 -281 q 542 -301 586 -301 q 427 -268 468 -301 q 386 -175 386 -235 q 403 -96 386 -131 q 447 -29 419 -61 l 458 -15 q 426 -17 443 -17 m 267 444 l 576 444 q 531 567 572 526 q 425 607 490 607 q 317 565 360 607 q 267 444 275 522 z "},"ẽ":{"ha":840,"x_min":51,"x_max":790,"o":"m 426 -17 q 228 32 313 -17 q 98 167 144 81 q 51 372 51 254 q 97 576 51 489 q 227 713 143 664 q 425 761 311 761 q 618 713 536 761 q 745 574 700 664 q 790 358 790 483 l 790 317 l 267 317 q 315 185 271 228 q 431 142 358 142 q 569 232 539 142 l 779 219 q 655 46 749 108 q 426 -17 561 -17 m 267 444 l 576 444 q 531 567 572 526 q 425 607 490 607 q 317 565 360 607 q 267 444 275 522 m 508 831 q 452 840 475 831 q 403 872 429 849 q 374 891 386 885 q 349 897 363 897 q 313 882 328 897 q 296 824 299 867 l 192 824 q 233 967 192 914 q 344 1021 274 1021 q 458 979 407 1021 q 511 954 490 954 q 547 970 533 954 q 564 1031 561 986 l 667 1031 q 624 885 665 939 q 508 831 583 831 z "},"ə":{"ha":840,"x_min":51,"x_max":790,"o":"m 414 761 q 613 713 528 761 q 744 578 697 665 q 790 372 790 490 q 744 168 790 256 q 613 32 697 81 q 417 -17 529 -17 q 224 32 306 -17 q 97 171 142 81 q 51 386 51 261 l 51 428 l 574 428 q 526 560 571 517 q 411 603 482 603 q 271 513 301 603 l 61 525 q 185 699 92 636 q 414 761 279 761 m 574 300 l 264 300 q 310 178 268 218 q 417 138 351 138 q 524 180 482 138 q 574 300 565 222 z "},"f":{"ha":621,"x_min":64,"x_max":576,"o":"m 172 0 l 172 561 l 64 561 l 64 717 l 172 717 l 172 754 q 232 925 172 864 q 418 986 292 986 l 576 986 l 576 831 l 463 831 q 400 809 419 831 q 381 744 381 788 l 381 717 l 565 717 l 565 561 l 381 561 l 381 0 l 172 0 z "},"g":{"ha":881,"x_min":51,"x_max":789,"o":"m 425 -225 q 182 -167 265 -225 q 74 -17 99 -108 l 288 -1 q 329 -58 299 -37 q 425 -79 360 -79 q 539 -44 499 -79 q 579 69 579 -8 l 579 149 q 494 66 553 97 q 364 35 436 35 q 201 79 272 35 q 91 206 131 124 q 51 397 51 288 q 91 586 51 504 q 201 715 131 668 q 361 761 271 761 q 499 725 443 761 q 585 629 556 689 l 585 744 l 789 744 l 789 74 q 743 -93 789 -26 q 615 -192 697 -160 q 425 -225 533 -225 m 424 189 q 538 244 494 189 q 581 399 581 299 q 539 552 582 496 q 424 608 496 608 q 307 551 349 608 q 265 399 265 494 q 308 246 265 303 q 424 189 351 189 z "},"ğ":{"ha":881,"x_min":51,"x_max":789,"o":"m 425 -225 q 182 -167 265 -225 q 74 -17 99 -108 l 288 -1 q 329 -58 299 -37 q 425 -79 360 -79 q 539 -44 499 -79 q 579 69 579 -8 l 579 149 q 494 66 553 97 q 364 35 436 35 q 201 79 272 35 q 91 206 131 124 q 51 397 51 288 q 91 586 51 504 q 201 715 131 668 q 361 761 271 761 q 499 725 443 761 q 585 629 556 689 l 585 744 l 789 744 l 789 74 q 743 -93 789 -26 q 615 -192 697 -160 q 425 -225 533 -225 m 424 189 q 538 244 494 189 q 581 399 581 299 q 539 552 582 496 q 424 608 496 608 q 307 551 349 608 q 265 399 265 494 q 308 246 265 303 q 424 189 351 189 m 431 822 q 275 876 333 822 q 213 1026 217 929 l 333 1026 q 363 957 338 978 q 431 936 389 936 q 497 957 472 936 q 526 1026 522 978 l 647 1026 q 585 876 643 929 q 431 822 526 822 z "},"ǧ":{"ha":881,"x_min":51,"x_max":789,"o":"m 425 -225 q 182 -167 265 -225 q 74 -17 99 -108 l 288 -1 q 329 -58 299 -37 q 425 -79 360 -79 q 539 -44 499 -79 q 579 69 579 -8 l 579 149 q 494 66 553 97 q 364 35 436 35 q 201 79 272 35 q 91 206 131 124 q 51 397 51 288 q 91 586 51 504 q 201 715 131 668 q 361 761 271 761 q 499 725 443 761 q 585 629 556 689 l 585 744 l 789 744 l 789 74 q 743 -93 789 -26 q 615 -192 697 -160 q 425 -225 533 -225 m 424 189 q 538 244 494 189 q 581 399 581 299 q 539 552 582 496 q 424 608 496 608 q 307 551 349 608 q 265 399 265 494 q 308 246 265 303 q 424 189 351 189 m 196 1033 l 342 1033 l 429 910 l 517 1033 l 663 1033 l 529 821 l 329 821 l 196 1033 z "},"ĝ":{"ha":881,"x_min":51,"x_max":789,"o":"m 425 -225 q 182 -167 265 -225 q 74 -17 99 -108 l 288 -1 q 329 -58 299 -37 q 425 -79 360 -79 q 539 -44 499 -79 q 579 69 579 -8 l 579 149 q 494 66 553 97 q 364 35 436 35 q 201 79 272 35 q 91 206 131 124 q 51 397 51 288 q 91 586 51 504 q 201 715 131 668 q 361 761 271 761 q 499 725 443 761 q 585 629 556 689 l 585 744 l 789 744 l 789 74 q 743 -93 789 -26 q 615 -192 697 -160 q 425 -225 533 -225 m 424 189 q 538 244 494 189 q 581 399 581 299 q 539 552 582 496 q 424 608 496 608 q 307 551 349 608 q 265 399 265 494 q 308 246 265 303 q 424 189 351 189 m 196 821 l 329 1033 l 529 1033 l 663 821 l 517 821 l 429 944 l 342 821 l 196 821 z "},"ģ":{"ha":881,"x_min":51,"x_max":789,"o":"m 425 -225 q 182 -167 265 -225 q 74 -17 99 -108 l 288 -1 q 329 -58 299 -37 q 425 -79 360 -79 q 539 -44 499 -79 q 579 69 579 -8 l 579 149 q 494 66 553 97 q 364 35 436 35 q 201 79 272 35 q 91 206 131 124 q 51 397 51 288 q 91 586 51 504 q 201 715 131 668 q 361 761 271 761 q 499 725 443 761 q 585 629 556 689 l 585 744 l 789 744 l 789 74 q 743 -93 789 -26 q 615 -192 697 -160 q 425 -225 533 -225 m 424 189 q 538 244 494 189 q 581 399 581 299 q 539 552 582 496 q 424 608 496 608 q 307 551 349 608 q 265 399 265 494 q 308 246 265 303 q 424 189 351 189 m 340 822 l 340 967 l 422 1106 l 544 1106 l 472 983 l 521 983 l 521 822 l 340 822 z "},"ġ":{"ha":881,"x_min":51,"x_max":789,"o":"m 425 -225 q 182 -167 265 -225 q 74 -17 99 -108 l 288 -1 q 329 -58 299 -37 q 425 -79 360 -79 q 539 -44 499 -79 q 579 69 579 -8 l 579 149 q 494 66 553 97 q 364 35 436 35 q 201 79 272 35 q 91 206 131 124 q 51 397 51 288 q 91 586 51 504 q 201 715 131 668 q 361 761 271 761 q 499 725 443 761 q 585 629 556 689 l 585 744 l 789 744 l 789 74 q 743 -93 789 -26 q 615 -192 697 -160 q 425 -225 533 -225 m 424 189 q 538 244 494 189 q 581 399 581 299 q 539 552 582 496 q 424 608 496 608 q 307 551 349 608 q 265 399 265 494 q 308 246 265 303 q 424 189 351 189 m 322 836 l 322 1003 l 538 1003 l 538 836 l 322 836 z "},"ḡ":{"ha":881,"x_min":51,"x_max":789,"o":"m 425 -225 q 182 -167 265 -225 q 74 -17 99 -108 l 288 -1 q 329 -58 299 -37 q 425 -79 360 -79 q 539 -44 499 -79 q 579 69 579 -8 l 579 149 q 494 66 553 97 q 364 35 436 35 q 201 79 272 35 q 91 206 131 124 q 51 397 51 288 q 91 586 51 504 q 201 715 131 668 q 361 761 271 761 q 499 725 443 761 q 585 629 556 689 l 585 744 l 789 744 l 789 74 q 743 -93 789 -26 q 615 -192 697 -160 q 425 -225 533 -225 m 424 189 q 538 244 494 189 q 581 399 581 299 q 539 552 582 496 q 424 608 496 608 q 307 551 349 608 q 265 399 265 494 q 308 246 265 303 q 424 189 351 189 m 222 843 l 222 996 l 638 996 l 638 843 l 222 843 z "},"ǥ":{"ha":914,"x_min":51,"x_max":879,"o":"m 425 -225 q 182 -167 265 -225 q 74 -17 99 -108 l 288 -1 q 329 -58 299 -37 q 425 -79 360 -79 q 539 -44 499 -79 q 579 69 579 -8 l 579 149 q 494 66 553 97 q 364 35 436 35 q 201 79 272 35 q 91 206 131 124 q 51 397 51 288 q 91 586 51 504 q 201 715 131 668 q 361 761 271 761 q 499 725 443 761 q 585 629 556 689 l 585 744 l 789 744 l 789 453 l 879 453 l 879 331 l 789 331 l 789 74 q 743 -93 789 -26 q 615 -192 697 -160 q 425 -225 533 -225 m 424 189 q 521 226 482 189 q 574 331 560 263 l 388 331 l 388 453 l 578 453 q 526 567 567 526 q 424 608 485 608 q 307 551 349 608 q 265 399 265 494 q 308 246 265 303 q 424 189 351 189 z "},"h":{"ha":849,"x_min":92,"x_max":757,"o":"m 92 0 l 92 986 l 300 986 l 300 653 q 385 735 331 708 q 506 761 439 761 q 694 682 631 761 q 757 479 757 603 l 757 0 l 549 0 l 549 429 q 522 554 549 513 q 436 596 496 596 q 336 552 372 596 q 300 424 300 508 l 300 0 l 92 0 z "},"ħ":{"ha":849,"x_min":-3,"x_max":757,"o":"m 92 0 l 92 986 l 300 986 l 300 653 q 385 735 331 708 q 506 761 439 761 q 694 682 631 761 q 757 479 757 603 l 757 0 l 549 0 l 549 429 q 522 554 549 513 q 436 596 496 596 q 336 552 372 596 q 300 424 300 508 l 300 0 l 92 0 m -3 800 l -3 921 l 481 921 l 481 800 l -3 800 z "},"ĥ":{"ha":849,"x_min":-36,"x_max":757,"o":"m 92 0 l 92 986 l 300 986 l 300 653 q 385 735 331 708 q 506 761 439 761 q 694 682 631 761 q 757 479 757 603 l 757 0 l 549 0 l 549 429 q 522 554 549 513 q 436 596 496 596 q 336 552 372 596 q 300 424 300 508 l 300 0 l 92 0 m -36 1035 l 97 1247 l 297 1247 l 431 1035 l 285 1035 l 197 1158 l 110 1035 l -36 1035 z "},"i":{"ha":390,"x_min":88,"x_max":303,"o":"m 92 0 l 92 744 l 300 744 l 300 0 l 92 0 m 88 836 l 88 1003 l 303 1003 l 303 836 l 88 836 z "},"ı":{"ha":390,"x_min":92,"x_max":300,"o":"m 92 0 l 92 744 l 300 744 l 300 0 l 92 0 z "},"í":{"ha":390,"x_min":92,"x_max":385,"o":"m 92 0 l 92 744 l 300 744 l 300 0 l 92 0 m 101 821 l 183 1026 l 385 1026 l 260 821 l 101 821 z "},"î":{"ha":390,"x_min":-37,"x_max":429,"o":"m 92 0 l 92 744 l 300 744 l 300 0 l 92 0 m -37 821 l 96 1033 l 296 1033 l 429 821 l 283 821 l 196 944 l 108 821 l -37 821 z "},"ï":{"ha":390,"x_min":-53,"x_max":444,"o":"m 92 0 l 92 744 l 300 744 l 300 0 l 92 0 m -53 832 l -53 1000 l 146 1000 l 146 832 l -53 832 m 246 832 l 246 1000 l 444 1000 l 444 832 l 246 832 z "},"ì":{"ha":390,"x_min":4,"x_max":300,"o":"m 92 0 l 92 744 l 300 744 l 300 0 l 92 0 m 129 831 l 4 1035 l 206 1035 l 288 831 l 129 831 z "},"ī":{"ha":390,"x_min":-12,"x_max":403,"o":"m 92 0 l 92 744 l 300 744 l 300 0 l 92 0 m -12 843 l -12 996 l 403 996 l 403 843 l -12 843 z "},"į":{"ha":390,"x_min":46,"x_max":351,"o":"m 92 0 l 92 744 l 300 744 l 300 0 l 92 0 m 88 836 l 88 1003 l 303 1003 l 303 836 l 88 836 m 203 -301 q 88 -271 129 -301 q 46 -183 46 -240 q 67 -101 46 -140 q 115 -28 89 -61 l 161 33 l 300 0 l 258 -56 q 226 -104 238 -83 q 214 -143 214 -125 q 225 -169 214 -160 q 250 -178 236 -178 q 313 -160 288 -178 l 351 -265 q 290 -291 332 -281 q 203 -301 247 -301 z "},"ĩ":{"ha":390,"x_min":-43,"x_max":432,"o":"m 92 0 l 92 744 l 300 744 l 300 0 l 92 0 m 274 833 q 217 842 240 833 q 168 875 194 851 q 140 894 151 888 q 114 900 128 900 q 78 885 93 900 q 61 826 64 869 l -43 826 q -2 970 -43 917 q 110 1024 39 1024 q 224 982 172 1024 q 276 957 256 957 q 313 973 299 957 q 329 1033 326 989 l 432 1033 q 390 888 431 942 q 274 833 349 833 z "},"ĳ":{"ha":813,"x_min":88,"x_max":725,"o":"m 92 0 l 92 744 l 300 744 l 300 0 l 92 0 m 88 836 l 88 1003 l 303 1003 l 303 836 l 88 836 m 347 -208 l 347 -53 l 429 -53 q 490 -36 469 -53 q 511 31 511 -19 l 511 744 l 721 744 l 721 25 q 665 -154 721 -100 q 472 -208 608 -208 l 347 -208 m 510 836 l 510 1003 l 725 1003 l 725 836 l 510 836 z "},"j":{"ha":460,"x_min":-4,"x_max":372,"o":"m -4 -208 l -4 -53 l 78 -53 q 139 -36 118 -53 q 160 31 160 -19 l 160 744 l 369 744 l 369 25 q 313 -154 369 -100 q 121 -208 257 -208 l -4 -208 m 157 836 l 157 1003 l 372 1003 l 372 836 l 157 836 z "},"ȷ":{"ha":460,"x_min":-4,"x_max":369,"o":"m -4 -208 l -4 -53 l 78 -53 q 139 -36 118 -53 q 160 31 160 -19 l 160 744 l 369 744 l 369 25 q 313 -154 369 -100 q 121 -208 257 -208 l -4 -208 z "},"ĵ":{"ha":460,"x_min":-4,"x_max":499,"o":"m -4 -208 l -4 -53 l 78 -53 q 139 -36 118 -53 q 160 31 160 -19 l 160 744 l 369 744 l 369 25 q 313 -154 369 -100 q 121 -208 257 -208 l -4 -208 m 32 821 l 165 1033 l 365 1033 l 499 821 l 353 821 l 265 944 l 178 821 l 32 821 z "},"k":{"ha":899,"x_min":92,"x_max":835,"o":"m 92 0 l 92 986 l 300 986 l 300 439 l 576 744 l 826 744 l 538 438 l 835 0 l 607 0 l 403 319 l 300 210 l 300 0 l 92 0 z "},"ǩ":{"ha":899,"x_min":-37,"x_max":835,"o":"m 92 0 l 92 986 l 300 986 l 300 439 l 576 744 l 826 744 l 538 438 l 835 0 l 607 0 l 403 319 l 300 210 l 300 0 l 92 0 m -37 1244 l 108 1244 l 196 1121 l 283 1244 l 429 1244 l 296 1032 l 96 1032 l -37 1244 z "},"ķ":{"ha":899,"x_min":92,"x_max":835,"o":"m 92 0 l 92 986 l 300 986 l 300 439 l 576 744 l 826 744 l 538 438 l 835 0 l 607 0 l 403 319 l 300 210 l 300 0 l 92 0 m 326 -351 l 399 -229 l 350 -229 l 350 -68 l 531 -68 l 531 -214 l 449 -351 l 326 -351 z "},"l":{"ha":435,"x_min":92,"x_max":410,"o":"m 286 0 q 143 45 194 0 q 92 194 92 90 l 92 986 l 300 986 l 300 217 q 315 169 300 183 q 360 156 331 156 l 410 156 l 410 0 l 286 0 z "},"ĺ":{"ha":435,"x_min":92,"x_max":410,"o":"m 286 0 q 143 45 194 0 q 92 194 92 90 l 92 986 l 300 986 l 300 217 q 315 169 300 183 q 360 156 331 156 l 410 156 l 410 0 l 286 0 m 101 1032 l 183 1238 l 385 1238 l 260 1032 l 101 1032 z "},"ľ":{"ha":542,"x_min":92,"x_max":586,"o":"m 286 0 q 143 45 194 0 q 92 194 92 90 l 92 986 l 300 986 l 300 217 q 315 169 300 183 q 360 156 331 156 l 410 156 l 410 0 l 286 0 m 367 589 l 407 986 l 586 986 l 511 589 l 367 589 z "},"ļ":{"ha":435,"x_min":92,"x_max":410,"o":"m 286 0 q 143 45 194 0 q 92 194 92 90 l 92 986 l 300 986 l 300 217 q 315 169 300 183 q 360 156 331 156 l 410 156 l 410 0 l 286 0 m 142 -351 l 214 -229 l 165 -229 l 165 -68 l 346 -68 l 346 -214 l 264 -351 l 142 -351 z "},"ł":{"ha":435,"x_min":3,"x_max":425,"o":"m 286 0 q 143 45 194 0 q 92 194 92 90 l 92 986 l 300 986 l 300 217 q 315 169 300 183 q 360 156 331 156 l 410 156 l 410 0 l 286 0 m 3 390 l 3 526 l 425 693 l 425 557 l 3 390 z "},"m":{"ha":1250,"x_min":92,"x_max":1158,"o":"m 92 0 l 92 744 l 279 744 l 283 624 q 365 725 311 689 q 486 761 418 761 q 621 720 567 761 q 699 610 675 679 q 780 722 725 683 q 908 761 835 761 q 1090 689 1022 761 q 1158 479 1158 617 l 1158 0 l 950 0 l 950 421 q 838 596 950 596 q 749 549 781 596 q 718 418 718 503 l 718 0 l 531 0 l 531 418 q 506 550 531 504 q 419 596 481 596 q 331 549 363 596 q 300 418 300 501 l 300 0 l 92 0 z "},"n":{"ha":849,"x_min":92,"x_max":757,"o":"m 92 0 l 92 744 l 279 744 l 283 621 q 372 729 314 697 q 504 761 431 761 q 691 685 625 761 q 757 479 757 608 l 757 0 l 549 0 l 549 410 q 524 547 549 499 q 435 596 500 596 q 335 547 369 596 q 300 410 300 499 l 300 0 l 92 0 z "},"ń":{"ha":849,"x_min":92,"x_max":757,"o":"m 92 0 l 92 744 l 279 744 l 283 621 q 372 729 314 697 q 504 761 431 761 q 691 685 625 761 q 757 479 757 608 l 757 0 l 549 0 l 549 410 q 524 547 549 499 q 435 596 500 596 q 335 547 369 596 q 300 410 300 499 l 300 0 l 92 0 m 329 821 l 411 1026 l 613 1026 l 488 821 l 329 821 z "},"ň":{"ha":849,"x_min":92,"x_max":757,"o":"m 92 0 l 92 744 l 279 744 l 283 621 q 372 729 314 697 q 504 761 431 761 q 691 685 625 761 q 757 479 757 608 l 757 0 l 549 0 l 549 410 q 524 547 549 499 q 435 596 500 596 q 335 547 369 596 q 300 410 300 499 l 300 0 l 92 0 m 190 1033 l 336 1033 l 424 910 l 511 1033 l 657 1033 l 524 821 l 324 821 l 190 1033 z "},"ņ":{"ha":849,"x_min":92,"x_max":757,"o":"m 92 0 l 92 744 l 279 744 l 283 621 q 372 729 314 697 q 504 761 431 761 q 691 685 625 761 q 757 479 757 608 l 757 0 l 549 0 l 549 410 q 524 547 549 499 q 435 596 500 596 q 335 547 369 596 q 300 410 300 499 l 300 0 l 92 0 m 310 -351 l 382 -229 l 333 -229 l 333 -68 l 514 -68 l 514 -214 l 432 -351 l 310 -351 z "},"ñ":{"ha":849,"x_min":92,"x_max":757,"o":"m 92 0 l 92 744 l 279 744 l 283 621 q 372 729 314 697 q 504 761 431 761 q 691 685 625 761 q 757 479 757 608 l 757 0 l 549 0 l 549 410 q 524 547 549 499 q 435 596 500 596 q 335 547 369 596 q 300 410 300 499 l 300 0 l 92 0 m 503 833 q 447 842 469 833 q 397 875 424 851 q 369 894 381 888 q 343 900 357 900 q 308 885 322 900 q 290 826 293 869 l 186 826 q 227 970 186 917 q 339 1024 268 1024 q 453 982 401 1024 q 506 957 485 957 q 542 973 528 957 q 558 1033 556 989 l 661 1033 q 619 888 660 942 q 503 833 578 833 z "},"ŋ":{"ha":849,"x_min":92,"x_max":757,"o":"m 92 0 l 92 744 l 279 744 l 283 621 q 372 729 314 697 q 504 761 431 761 q 691 685 625 761 q 757 479 757 608 l 757 -4 q 694 -150 757 -92 q 524 -208 632 -208 l 383 -208 l 383 -67 l 467 -67 q 527 -45 506 -67 q 549 13 549 -24 l 549 410 q 524 547 549 499 q 435 596 500 596 q 335 547 369 596 q 300 410 300 499 l 300 0 l 92 0 z "},"o":{"ha":858,"x_min":51,"x_max":807,"o":"m 429 -17 q 231 31 315 -17 q 99 167 146 79 q 51 372 51 254 q 99 577 51 490 q 231 713 146 664 q 429 761 315 761 q 628 713 543 761 q 760 577 714 664 q 807 372 807 490 q 760 167 807 254 q 628 31 714 79 q 429 -17 543 -17 m 429 143 q 550 203 507 143 q 593 372 593 264 q 550 541 593 481 q 429 601 507 601 q 308 541 351 601 q 265 372 265 481 q 308 203 265 264 q 429 143 351 143 z "},"ó":{"ha":858,"x_min":51,"x_max":807,"o":"m 429 -17 q 231 31 315 -17 q 99 167 146 79 q 51 372 51 254 q 99 577 51 490 q 231 713 146 664 q 429 761 315 761 q 628 713 543 761 q 760 577 714 664 q 807 372 807 490 q 760 167 807 254 q 628 31 714 79 q 429 -17 543 -17 m 429 143 q 550 203 507 143 q 593 372 593 264 q 550 541 593 481 q 429 601 507 601 q 308 541 351 601 q 265 372 265 481 q 308 203 265 264 q 429 143 351 143 m 335 821 l 417 1026 l 618 1026 l 493 821 l 335 821 z "},"ô":{"ha":858,"x_min":51,"x_max":807,"o":"m 429 -17 q 231 31 315 -17 q 99 167 146 79 q 51 372 51 254 q 99 577 51 490 q 231 713 146 664 q 429 761 315 761 q 628 713 543 761 q 760 577 714 664 q 807 372 807 490 q 760 167 807 254 q 628 31 714 79 q 429 -17 543 -17 m 429 143 q 550 203 507 143 q 593 372 593 264 q 550 541 593 481 q 429 601 507 601 q 308 541 351 601 q 265 372 265 481 q 308 203 265 264 q 429 143 351 143 m 196 821 l 329 1033 l 529 1033 l 663 821 l 517 821 l 429 944 l 342 821 l 196 821 z "},"ö":{"ha":858,"x_min":51,"x_max":807,"o":"m 429 -17 q 231 31 315 -17 q 99 167 146 79 q 51 372 51 254 q 99 577 51 490 q 231 713 146 664 q 429 761 315 761 q 628 713 543 761 q 760 577 714 664 q 807 372 807 490 q 760 167 807 254 q 628 31 714 79 q 429 -17 543 -17 m 429 143 q 550 203 507 143 q 593 372 593 264 q 550 541 593 481 q 429 601 507 601 q 308 541 351 601 q 265 372 265 481 q 308 203 265 264 q 429 143 351 143 m 181 832 l 181 1000 l 379 1000 l 379 832 l 181 832 m 479 832 l 479 1000 l 678 1000 l 678 832 l 479 832 z "},"ò":{"ha":858,"x_min":51,"x_max":807,"o":"m 429 -17 q 231 31 315 -17 q 99 167 146 79 q 51 372 51 254 q 99 577 51 490 q 231 713 146 664 q 429 761 315 761 q 628 713 543 761 q 760 577 714 664 q 807 372 807 490 q 760 167 807 254 q 628 31 714 79 q 429 -17 543 -17 m 429 143 q 550 203 507 143 q 593 372 593 264 q 550 541 593 481 q 429 601 507 601 q 308 541 351 601 q 265 372 265 481 q 308 203 265 264 q 429 143 351 143 m 364 831 l 239 1035 l 440 1035 l 522 831 l 364 831 z "},"ő":{"ha":858,"x_min":51,"x_max":807,"o":"m 429 -17 q 231 31 315 -17 q 99 167 146 79 q 51 372 51 254 q 99 577 51 490 q 231 713 146 664 q 429 761 315 761 q 628 713 543 761 q 760 577 714 664 q 807 372 807 490 q 760 167 807 254 q 628 31 714 79 q 429 -17 543 -17 m 429 143 q 550 203 507 143 q 593 372 593 264 q 550 541 593 481 q 429 601 507 601 q 308 541 351 601 q 265 372 265 481 q 308 203 265 264 q 429 143 351 143 m 226 821 l 308 1026 l 510 1026 l 385 821 l 226 821 m 474 821 l 556 1026 l 757 1026 l 632 821 l 474 821 z "},"ō":{"ha":858,"x_min":51,"x_max":807,"o":"m 429 -17 q 231 31 315 -17 q 99 167 146 79 q 51 372 51 254 q 99 577 51 490 q 231 713 146 664 q 429 761 315 761 q 628 713 543 761 q 760 577 714 664 q 807 372 807 490 q 760 167 807 254 q 628 31 714 79 q 429 -17 543 -17 m 429 143 q 550 203 507 143 q 593 372 593 264 q 550 541 593 481 q 429 601 507 601 q 308 541 351 601 q 265 372 265 481 q 308 203 265 264 q 429 143 351 143 m 222 843 l 222 996 l 638 996 l 638 843 l 222 843 z "},"ø":{"ha":858,"x_min":51,"x_max":807,"o":"m 429 -17 q 231 31 315 -17 q 99 167 146 79 q 51 372 51 254 q 99 577 51 490 q 231 713 146 664 q 429 761 315 761 q 628 713 543 761 q 760 577 714 664 q 807 372 807 490 q 760 167 807 254 q 628 31 714 79 q 429 -17 543 -17 m 429 143 q 550 203 507 143 q 593 372 593 264 q 550 541 593 481 q 429 601 507 601 q 308 541 351 601 q 265 372 265 481 q 308 203 265 264 q 429 143 351 143 m 86 -19 l 640 764 l 772 764 l 218 -19 l 86 -19 z "},"õ":{"ha":858,"x_min":51,"x_max":807,"o":"m 429 -17 q 231 31 315 -17 q 99 167 146 79 q 51 372 51 254 q 99 577 51 490 q 231 713 146 664 q 429 761 315 761 q 628 713 543 761 q 760 577 714 664 q 807 372 807 490 q 760 167 807 254 q 628 31 714 79 q 429 -17 543 -17 m 429 143 q 550 203 507 143 q 593 372 593 264 q 550 541 593 481 q 429 601 507 601 q 308 541 351 601 q 265 372 265 481 q 308 203 265 264 q 429 143 351 143 m 508 833 q 452 842 475 833 q 403 875 429 851 q 374 894 386 888 q 349 900 363 900 q 313 885 328 900 q 296 826 299 869 l 192 826 q 233 970 192 917 q 344 1024 274 1024 q 458 982 407 1024 q 511 957 490 957 q 547 973 533 957 q 564 1033 561 989 l 667 1033 q 624 888 665 942 q 508 833 583 833 z "},"œ":{"ha":1386,"x_min":51,"x_max":1335,"o":"m 429 -17 q 231 31 315 -17 q 99 167 146 79 q 51 372 51 254 q 99 577 51 490 q 231 713 146 664 q 429 761 315 761 q 628 713 543 761 q 760 577 714 664 q 807 372 807 490 q 760 167 807 254 q 628 31 714 79 q 429 -17 543 -17 m 429 143 q 550 203 507 143 q 593 372 593 264 q 550 541 593 481 q 429 601 507 601 q 308 541 351 601 q 265 372 265 481 q 308 203 265 264 q 429 143 351 143 m 971 -17 q 773 32 857 -17 q 642 167 689 81 q 596 372 596 254 q 642 576 596 489 q 772 713 688 664 q 969 761 856 761 q 1163 713 1081 761 q 1290 574 1244 664 q 1335 358 1335 483 l 1335 317 l 811 317 q 859 185 815 228 q 975 142 903 142 q 1114 232 1083 142 l 1324 219 q 1199 46 1293 108 q 971 -17 1106 -17 m 811 444 l 1121 444 q 1076 567 1117 526 q 969 607 1035 607 q 862 565 904 607 q 811 444 819 522 z "},"p":{"ha":881,"x_min":92,"x_max":829,"o":"m 92 -208 l 92 744 l 292 744 l 294 633 q 385 728 328 696 q 515 761 442 761 q 690 710 619 761 q 794 570 760 658 q 829 372 829 482 q 794 174 829 263 q 688 35 758 86 q 514 -17 618 -17 q 388 15 444 -17 q 300 104 331 47 l 300 -208 l 92 -208 m 457 143 q 573 204 531 143 q 615 372 615 265 q 573 540 615 479 q 457 601 531 601 q 342 543 383 601 q 300 372 300 485 q 341 201 300 260 q 457 143 382 143 z "},"þ":{"ha":867,"x_min":92,"x_max":815,"o":"m 92 -208 l 92 986 l 303 986 l 303 681 q 375 740 329 718 q 488 761 421 761 q 667 710 594 761 q 778 570 740 658 q 815 372 815 482 q 778 174 815 263 q 667 35 740 86 q 488 -17 594 -17 q 381 5 428 -17 q 303 64 333 26 l 303 -208 l 92 -208 m 444 158 q 533 188 499 158 q 584 266 568 217 q 600 372 600 315 q 584 481 600 432 q 533 560 568 531 q 444 590 499 590 q 357 560 392 590 q 306 480 322 529 q 289 372 289 431 q 306 267 289 315 q 357 188 322 218 q 444 158 392 158 z "},"q":{"ha":881,"x_min":51,"x_max":789,"o":"m 789 -208 l 581 -208 l 581 104 q 493 15 550 47 q 367 -17 436 -17 q 192 35 263 -17 q 87 174 122 86 q 51 372 51 263 q 86 570 51 482 q 191 710 121 658 q 365 761 261 761 q 496 728 439 761 q 586 633 553 696 l 589 744 l 789 744 l 789 -208 m 424 143 q 540 201 499 143 q 581 372 581 260 q 539 543 581 485 q 424 601 497 601 q 308 540 350 601 q 265 372 265 479 q 308 204 265 265 q 424 143 350 143 z "},"r":{"ha":590,"x_min":92,"x_max":539,"o":"m 92 0 l 92 744 l 289 744 l 294 596 q 360 709 317 674 q 471 744 403 744 l 539 744 l 539 572 l 471 572 q 342 537 383 572 q 300 418 300 501 l 300 0 l 92 0 z "},"ŕ":{"ha":590,"x_min":92,"x_max":539,"o":"m 92 0 l 92 744 l 289 744 l 294 596 q 360 709 317 674 q 471 744 403 744 l 539 744 l 539 572 l 471 572 q 342 537 383 572 q 300 418 300 501 l 300 0 l 92 0 m 226 821 l 308 1026 l 510 1026 l 385 821 l 226 821 z "},"ř":{"ha":590,"x_min":88,"x_max":554,"o":"m 92 0 l 92 744 l 289 744 l 294 596 q 360 709 317 674 q 471 744 403 744 l 539 744 l 539 572 l 471 572 q 342 537 383 572 q 300 418 300 501 l 300 0 l 92 0 m 88 1033 l 233 1033 l 321 910 l 408 1033 l 554 1033 l 421 821 l 221 821 l 88 1033 z "},"ŗ":{"ha":590,"x_min":82,"x_max":539,"o":"m 92 0 l 92 744 l 289 744 l 294 596 q 360 709 317 674 q 471 744 403 744 l 539 744 l 539 572 l 471 572 q 342 537 383 572 q 300 418 300 501 l 300 0 l 92 0 m 82 -351 l 154 -229 l 106 -229 l 106 -68 l 286 -68 l 286 -214 l 204 -351 l 82 -351 z "},"s":{"ha":793,"x_min":51,"x_max":743,"o":"m 410 -17 q 148 54 236 -17 q 51 235 60 125 l 263 242 q 307 160 272 189 q 410 131 342 131 q 497 149 465 131 q 528 204 528 167 q 517 244 528 228 q 473 272 506 260 q 376 293 440 283 q 192 342 258 313 q 97 415 125 371 q 69 522 69 458 q 152 695 69 629 q 400 761 235 761 q 640 689 558 761 q 738 506 722 617 l 528 497 q 488 583 521 551 q 399 614 454 614 q 313 591 343 614 q 283 531 283 568 q 315 470 283 490 q 422 439 346 450 q 612 392 542 421 q 713 318 682 363 q 743 208 743 274 q 652 42 743 100 q 410 -17 561 -17 z "},"ś":{"ha":793,"x_min":51,"x_max":743,"o":"m 410 -17 q 148 54 236 -17 q 51 235 60 125 l 263 242 q 307 160 272 189 q 410 131 342 131 q 497 149 465 131 q 528 204 528 167 q 517 244 528 228 q 473 272 506 260 q 376 293 440 283 q 192 342 258 313 q 97 415 125 371 q 69 522 69 458 q 152 695 69 629 q 400 761 235 761 q 640 689 558 761 q 738 506 722 617 l 528 497 q 488 583 521 551 q 399 614 454 614 q 313 591 343 614 q 283 531 283 568 q 315 470 283 490 q 422 439 346 450 q 612 392 542 421 q 713 318 682 363 q 743 208 743 274 q 652 42 743 100 q 410 -17 561 -17 m 304 821 l 386 1026 l 588 1026 l 463 821 l 304 821 z "},"š":{"ha":793,"x_min":51,"x_max":743,"o":"m 410 -17 q 148 54 236 -17 q 51 235 60 125 l 263 242 q 307 160 272 189 q 410 131 342 131 q 497 149 465 131 q 528 204 528 167 q 517 244 528 228 q 473 272 506 260 q 376 293 440 283 q 192 342 258 313 q 97 415 125 371 q 69 522 69 458 q 152 695 69 629 q 400 761 235 761 q 640 689 558 761 q 738 506 722 617 l 528 497 q 488 583 521 551 q 399 614 454 614 q 313 591 343 614 q 283 531 283 568 q 315 470 283 490 q 422 439 346 450 q 612 392 542 421 q 713 318 682 363 q 743 208 743 274 q 652 42 743 100 q 410 -17 561 -17 m 165 1033 l 311 1033 l 399 910 l 486 1033 l 632 1033 l 499 821 l 299 821 l 165 1033 z "},"ş":{"ha":793,"x_min":51,"x_max":743,"o":"m 410 -17 q 148 54 236 -17 q 51 235 60 125 l 263 242 q 307 160 272 189 q 410 131 342 131 q 497 149 465 131 q 528 204 528 167 q 517 244 528 228 q 473 272 506 260 q 376 293 440 283 q 192 342 258 313 q 97 415 125 371 q 69 522 69 458 q 152 695 69 629 q 400 761 235 761 q 640 689 558 761 q 738 506 722 617 l 528 497 q 488 583 521 551 q 399 614 454 614 q 313 591 343 614 q 283 531 283 568 q 315 470 283 490 q 422 439 346 450 q 612 392 542 421 q 713 318 682 363 q 743 208 743 274 q 652 42 743 100 q 410 -17 561 -17 m 397 -322 q 283 -290 328 -322 q 219 -207 238 -258 l 311 -168 q 342 -208 322 -194 q 393 -221 361 -221 q 442 -208 424 -221 q 460 -171 460 -194 q 442 -131 460 -146 q 369 -117 425 -117 l 313 -62 l 358 14 l 478 14 l 440 -43 q 542 -87 510 -50 q 574 -175 574 -124 q 522 -286 574 -250 q 397 -322 471 -322 z "},"ŝ":{"ha":793,"x_min":51,"x_max":743,"o":"m 410 -17 q 148 54 236 -17 q 51 235 60 125 l 263 242 q 307 160 272 189 q 410 131 342 131 q 497 149 465 131 q 528 204 528 167 q 517 244 528 228 q 473 272 506 260 q 376 293 440 283 q 192 342 258 313 q 97 415 125 371 q 69 522 69 458 q 152 695 69 629 q 400 761 235 761 q 640 689 558 761 q 738 506 722 617 l 528 497 q 488 583 521 551 q 399 614 454 614 q 313 591 343 614 q 283 531 283 568 q 315 470 283 490 q 422 439 346 450 q 612 392 542 421 q 713 318 682 363 q 743 208 743 274 q 652 42 743 100 q 410 -17 561 -17 m 165 821 l 299 1033 l 499 1033 l 632 821 l 486 821 l 399 944 l 311 821 l 165 821 z "},"ș":{"ha":793,"x_min":51,"x_max":743,"o":"m 410 -17 q 148 54 236 -17 q 51 235 60 125 l 263 242 q 307 160 272 189 q 410 131 342 131 q 497 149 465 131 q 528 204 528 167 q 517 244 528 228 q 473 272 506 260 q 376 293 440 283 q 192 342 258 313 q 97 415 125 371 q 69 522 69 458 q 152 695 69 629 q 400 761 235 761 q 640 689 558 761 q 738 506 722 617 l 528 497 q 488 583 521 551 q 399 614 454 614 q 313 591 343 614 q 283 531 283 568 q 315 470 283 490 q 422 439 346 450 q 612 392 542 421 q 713 318 682 363 q 743 208 743 274 q 652 42 743 100 q 410 -17 561 -17 m 292 -351 l 364 -229 l 315 -229 l 315 -68 l 496 -68 l 496 -214 l 414 -351 l 292 -351 z "},"ß":{"ha":911,"x_min":92,"x_max":867,"o":"m 92 0 l 92 643 q 190 907 92 814 q 464 1000 288 1000 q 716 928 626 1000 q 806 733 806 857 q 760 599 806 654 q 635 522 714 544 q 804 434 742 500 q 867 274 867 368 q 766 72 867 144 q 479 0 665 0 l 388 0 l 388 175 l 476 175 q 653 300 653 175 q 467 429 653 429 l 400 429 l 400 599 l 457 599 q 558 629 521 599 q 596 714 596 660 q 563 794 596 764 q 464 825 529 825 q 344 776 388 825 q 300 643 300 728 l 300 0 l 92 0 z "},"t":{"ha":618,"x_min":57,"x_max":581,"o":"m 400 0 q 231 53 285 0 q 176 224 176 107 l 176 589 l 57 589 l 57 744 l 176 744 l 176 919 l 385 919 l 385 744 l 581 744 l 581 589 l 385 589 l 385 249 q 408 175 385 194 q 476 156 431 156 l 581 156 l 581 0 l 400 0 z "},"ŧ":{"ha":618,"x_min":57,"x_max":581,"o":"m 64 332 l 64 453 l 176 453 l 176 589 l 57 589 l 57 744 l 176 744 l 176 919 l 385 919 l 385 744 l 581 744 l 581 589 l 385 589 l 385 453 l 558 453 l 558 332 l 385 332 l 385 249 q 408 175 385 194 q 476 156 431 156 l 581 156 l 581 0 l 400 0 q 231 53 285 0 q 176 224 176 107 l 176 332 l 64 332 z "},"ť":{"ha":625,"x_min":57,"x_max":656,"o":"m 449 775 l 489 1103 l 656 1103 l 581 775 l 449 775 m 400 0 q 231 53 285 0 q 176 224 176 107 l 176 589 l 57 589 l 57 744 l 176 744 l 176 919 l 385 919 l 385 744 l 581 744 l 581 589 l 385 589 l 385 249 q 408 175 385 194 q 476 156 431 156 l 581 156 l 581 0 l 400 0 z "},"ţ":{"ha":618,"x_min":57,"x_max":581,"o":"m 400 0 q 231 53 285 0 q 176 224 176 107 l 176 589 l 57 589 l 57 744 l 176 744 l 176 919 l 385 919 l 385 744 l 581 744 l 581 589 l 385 589 l 385 249 q 408 175 385 194 q 476 156 431 156 l 581 156 l 581 0 l 400 0 m 356 -322 q 241 -290 286 -322 q 178 -207 196 -258 l 269 -168 q 300 -208 281 -194 q 351 -221 319 -221 q 400 -208 382 -221 q 418 -171 418 -194 q 401 -131 418 -146 q 328 -117 383 -117 l 271 -62 l 317 14 l 436 14 l 399 -43 q 500 -87 468 -50 q 532 -175 532 -124 q 481 -286 532 -250 q 356 -322 429 -322 z "},"ț":{"ha":618,"x_min":57,"x_max":581,"o":"m 400 0 q 231 53 285 0 q 176 224 176 107 l 176 589 l 57 589 l 57 744 l 176 744 l 176 919 l 385 919 l 385 744 l 581 744 l 581 589 l 385 589 l 385 249 q 408 175 385 194 q 476 156 431 156 l 581 156 l 581 0 l 400 0 m 250 -351 l 322 -229 l 274 -229 l 274 -68 l 454 -68 l 454 -214 l 372 -351 l 250 -351 z "},"u":{"ha":843,"x_min":92,"x_max":753,"o":"m 336 -17 q 156 58 221 -17 q 92 265 92 132 l 92 744 l 300 744 l 300 314 q 326 188 300 228 q 410 149 353 149 q 509 192 474 149 q 544 324 544 236 l 544 744 l 753 744 l 753 0 l 563 0 l 560 121 q 336 -17 503 -17 z "},"ú":{"ha":843,"x_min":92,"x_max":753,"o":"m 336 -17 q 156 58 221 -17 q 92 265 92 132 l 92 744 l 300 744 l 300 314 q 326 188 300 228 q 410 149 353 149 q 509 192 474 149 q 544 324 544 236 l 544 744 l 753 744 l 753 0 l 563 0 l 560 121 q 336 -17 503 -17 m 324 821 l 406 1026 l 607 1026 l 482 821 l 324 821 z "},"ŭ":{"ha":843,"x_min":92,"x_max":753,"o":"m 336 -17 q 156 58 221 -17 q 92 265 92 132 l 92 744 l 300 744 l 300 314 q 326 188 300 228 q 410 149 353 149 q 509 192 474 149 q 544 324 544 236 l 544 744 l 753 744 l 753 0 l 563 0 l 560 121 q 336 -17 503 -17 m 419 822 q 264 876 322 822 q 201 1026 206 929 l 322 1026 q 352 957 326 978 q 419 936 378 936 q 486 957 461 936 q 515 1026 511 978 l 636 1026 q 574 876 632 929 q 419 822 515 822 z "},"û":{"ha":843,"x_min":92,"x_max":753,"o":"m 336 -17 q 156 58 221 -17 q 92 265 92 132 l 92 744 l 300 744 l 300 314 q 326 188 300 228 q 410 149 353 149 q 509 192 474 149 q 544 324 544 236 l 544 744 l 753 744 l 753 0 l 563 0 l 560 121 q 336 -17 503 -17 m 185 821 l 318 1033 l 518 1033 l 651 821 l 506 821 l 418 944 l 331 821 l 185 821 z "},"ü":{"ha":843,"x_min":92,"x_max":753,"o":"m 336 -17 q 156 58 221 -17 q 92 265 92 132 l 92 744 l 300 744 l 300 314 q 326 188 300 228 q 410 149 353 149 q 509 192 474 149 q 544 324 544 236 l 544 744 l 753 744 l 753 0 l 563 0 l 560 121 q 336 -17 503 -17 m 171 832 l 171 1000 l 369 1000 l 369 832 l 171 832 m 469 832 l 469 1000 l 668 1000 l 668 832 l 469 832 z "},"ù":{"ha":843,"x_min":92,"x_max":753,"o":"m 336 -17 q 156 58 221 -17 q 92 265 92 132 l 92 744 l 300 744 l 300 314 q 326 188 300 228 q 410 149 353 149 q 509 192 474 149 q 544 324 544 236 l 544 744 l 753 744 l 753 0 l 563 0 l 560 121 q 336 -17 503 -17 m 353 831 l 228 1035 l 429 1035 l 511 831 l 353 831 z "},"ű":{"ha":843,"x_min":92,"x_max":753,"o":"m 336 -17 q 156 58 221 -17 q 92 265 92 132 l 92 744 l 300 744 l 300 314 q 326 188 300 228 q 410 149 353 149 q 509 192 474 149 q 544 324 544 236 l 544 744 l 753 744 l 753 0 l 563 0 l 560 121 q 336 -17 503 -17 m 217 821 l 299 1026 l 500 1026 l 375 821 l 217 821 m 463 821 l 544 1026 l 746 1026 l 621 821 l 463 821 z "},"ū":{"ha":843,"x_min":92,"x_max":753,"o":"m 336 -17 q 156 58 221 -17 q 92 265 92 132 l 92 744 l 300 744 l 300 314 q 326 188 300 228 q 410 149 353 149 q 509 192 474 149 q 544 324 544 236 l 544 744 l 753 744 l 753 0 l 563 0 l 560 121 q 336 -17 503 -17 m 211 843 l 211 996 l 626 996 l 626 843 l 211 843 z "},"ų":{"ha":843,"x_min":92,"x_max":804,"o":"m 336 -17 q 156 58 221 -17 q 92 265 92 132 l 92 744 l 300 744 l 300 314 q 326 188 300 228 q 410 149 353 149 q 509 192 474 149 q 544 324 544 236 l 544 744 l 753 744 l 753 0 l 563 0 l 560 121 q 336 -17 503 -17 m 656 -301 q 540 -271 582 -301 q 499 -183 499 -240 q 520 -101 499 -140 q 568 -28 542 -61 l 614 33 l 753 0 l 711 -56 q 678 -104 690 -83 q 667 -143 667 -125 q 678 -169 667 -160 q 703 -178 689 -178 q 765 -160 740 -178 l 804 -265 q 742 -291 785 -281 q 656 -301 700 -301 z "},"ů":{"ha":843,"x_min":92,"x_max":753,"o":"m 336 -17 q 156 58 221 -17 q 92 265 92 132 l 92 744 l 300 744 l 300 314 q 326 188 300 228 q 410 149 353 149 q 509 192 474 149 q 544 324 544 236 l 544 744 l 753 744 l 753 0 l 563 0 l 560 121 q 336 -17 503 -17 m 419 799 q 317 839 358 799 q 276 939 276 879 q 317 1040 276 1000 q 419 1081 358 1081 q 520 1040 479 1081 q 561 939 561 1000 q 520 839 561 879 q 419 799 479 799 m 419 888 q 456 902 442 888 q 471 939 471 917 q 456 977 471 963 q 419 992 442 992 q 381 977 396 992 q 367 939 367 963 q 381 902 367 917 q 419 888 396 888 z "},"ũ":{"ha":844,"x_min":92,"x_max":753,"o":"m 336 -17 q 156 58 221 -17 q 92 265 92 132 l 92 744 l 300 744 l 300 314 q 326 188 300 228 q 410 149 353 149 q 509 192 474 149 q 544 324 544 236 l 544 744 l 753 744 l 753 0 l 563 0 l 560 121 q 336 -17 503 -17 m 489 833 q 433 842 456 833 q 383 875 410 851 q 355 894 367 888 q 329 900 343 900 q 294 885 308 900 q 276 826 279 869 l 172 826 q 213 970 172 917 q 325 1024 254 1024 q 439 982 388 1024 q 492 957 471 957 q 528 973 514 957 q 544 1033 542 989 l 647 1033 q 605 888 646 942 q 489 833 564 833 z "},"v":{"ha":846,"x_min":29,"x_max":817,"o":"m 301 0 l 29 744 l 247 744 l 424 210 l 599 744 l 817 744 l 543 0 l 301 0 z "},"w":{"ha":1179,"x_min":29,"x_max":1150,"o":"m 250 0 l 29 744 l 239 744 l 367 240 l 504 744 l 674 744 l 811 240 l 940 744 l 1150 744 l 929 0 l 726 0 l 589 465 l 451 0 l 250 0 z "},"ẃ":{"ha":1179,"x_min":29,"x_max":1150,"o":"m 250 0 l 29 744 l 239 744 l 367 240 l 504 744 l 674 744 l 811 240 l 940 744 l 1150 744 l 929 0 l 726 0 l 589 465 l 451 0 l 250 0 m 496 821 l 578 1026 l 779 1026 l 654 821 l 496 821 z "},"ŵ":{"ha":1179,"x_min":29,"x_max":1150,"o":"m 250 0 l 29 744 l 239 744 l 367 240 l 504 744 l 674 744 l 811 240 l 940 744 l 1150 744 l 929 0 l 726 0 l 589 465 l 451 0 l 250 0 m 357 821 l 490 1033 l 690 1033 l 824 821 l 678 821 l 590 944 l 503 821 l 357 821 z "},"ẅ":{"ha":1179,"x_min":29,"x_max":1150,"o":"m 250 0 l 29 744 l 239 744 l 367 240 l 504 744 l 674 744 l 811 240 l 940 744 l 1150 744 l 929 0 l 726 0 l 589 465 l 451 0 l 250 0 m 342 832 l 342 1000 l 540 1000 l 540 832 l 342 832 m 640 832 l 640 1000 l 839 1000 l 839 832 l 640 832 z "},"ẁ":{"ha":1179,"x_min":29,"x_max":1150,"o":"m 250 0 l 29 744 l 239 744 l 367 240 l 504 744 l 674 744 l 811 240 l 940 744 l 1150 744 l 929 0 l 726 0 l 589 465 l 451 0 l 250 0 m 524 831 l 399 1035 l 600 1035 l 682 831 l 524 831 z "},"x":{"ha":903,"x_min":64,"x_max":839,"o":"m 64 0 l 329 378 l 71 744 l 292 744 l 451 506 l 606 744 l 832 744 l 575 376 l 839 0 l 618 0 l 454 253 l 289 0 l 64 0 z "},"y":{"ha":814,"x_min":29,"x_max":785,"o":"m 153 -208 l 153 -53 l 251 -53 q 304 -42 288 -53 q 332 -6 321 -32 l 347 38 l 290 38 l 29 744 l 242 744 l 413 232 l 572 744 l 785 744 l 499 -71 q 426 -176 474 -144 q 294 -208 379 -208 l 153 -208 z "},"ý":{"ha":814,"x_min":29,"x_max":785,"o":"m 153 -208 l 153 -53 l 251 -53 q 304 -42 288 -53 q 332 -6 321 -32 l 347 38 l 290 38 l 29 744 l 242 744 l 413 232 l 572 744 l 785 744 l 499 -71 q 426 -176 474 -144 q 294 -208 379 -208 l 153 -208 m 314 821 l 396 1026 l 597 1026 l 472 821 l 314 821 z "},"ŷ":{"ha":814,"x_min":29,"x_max":785,"o":"m 153 -208 l 153 -53 l 251 -53 q 304 -42 288 -53 q 332 -6 321 -32 l 347 38 l 290 38 l 29 744 l 242 744 l 413 232 l 572 744 l 785 744 l 499 -71 q 426 -176 474 -144 q 294 -208 379 -208 l 153 -208 m 175 821 l 308 1033 l 508 1033 l 642 821 l 496 821 l 408 944 l 321 821 l 175 821 z "},"ÿ":{"ha":814,"x_min":29,"x_max":785,"o":"m 153 -208 l 153 -53 l 251 -53 q 304 -42 288 -53 q 332 -6 321 -32 l 347 38 l 290 38 l 29 744 l 242 744 l 413 232 l 572 744 l 785 744 l 499 -71 q 426 -176 474 -144 q 294 -208 379 -208 l 153 -208 m 160 832 l 160 1000 l 358 1000 l 358 832 l 160 832 m 458 832 l 458 1000 l 657 1000 l 657 832 l 458 832 z "},"ỳ":{"ha":814,"x_min":29,"x_max":785,"o":"m 153 -208 l 153 -53 l 251 -53 q 304 -42 288 -53 q 332 -6 321 -32 l 347 38 l 290 38 l 29 744 l 242 744 l 413 232 l 572 744 l 785 744 l 499 -71 q 426 -176 474 -144 q 294 -208 379 -208 l 153 -208 m 343 831 l 218 1035 l 419 1035 l 501 831 l 343 831 z "},"ỹ":{"ha":814,"x_min":29,"x_max":785,"o":"m 153 -208 l 153 -53 l 251 -53 q 304 -42 288 -53 q 332 -6 321 -32 l 347 38 l 290 38 l 29 744 l 242 744 l 413 232 l 572 744 l 785 744 l 499 -71 q 426 -176 474 -144 q 294 -208 379 -208 l 153 -208 m 488 833 q 431 842 454 833 q 382 875 408 851 q 353 894 365 888 q 328 900 342 900 q 292 885 307 900 q 275 826 278 869 l 171 826 q 212 970 171 917 q 324 1024 253 1024 q 438 982 386 1024 q 490 957 469 957 q 526 973 513 957 q 543 1033 540 989 l 646 1033 q 603 888 644 942 q 488 833 563 833 z "},"z":{"ha":826,"x_min":78,"x_max":749,"o":"m 78 0 l 78 164 l 488 589 l 94 589 l 94 744 l 738 744 l 738 581 l 321 156 l 749 156 l 749 0 l 78 0 z "},"ź":{"ha":826,"x_min":78,"x_max":749,"o":"m 78 0 l 78 164 l 488 589 l 94 589 l 94 744 l 738 744 l 738 581 l 321 156 l 749 156 l 749 0 l 78 0 m 324 821 l 406 1026 l 607 1026 l 482 821 l 324 821 z "},"ž":{"ha":826,"x_min":78,"x_max":749,"o":"m 78 0 l 78 164 l 488 589 l 94 589 l 94 744 l 738 744 l 738 581 l 321 156 l 749 156 l 749 0 l 78 0 m 185 1033 l 331 1033 l 418 910 l 506 1033 l 651 1033 l 518 821 l 318 821 l 185 1033 z "},"ż":{"ha":826,"x_min":78,"x_max":749,"o":"m 78 0 l 78 164 l 488 589 l 94 589 l 94 744 l 738 744 l 738 581 l 321 156 l 749 156 l 749 0 l 78 0 m 310 836 l 310 1003 l 525 1003 l 525 836 l 310 836 z "},"ꞌ":{"ha":369,"x_min":92,"x_max":278,"o":"m 110 486 l 92 847 l 92 986 l 278 986 l 278 847 l 260 486 l 110 486 z "},"ﬁ":{"ha":993,"x_min":64,"x_max":906,"o":"m 172 0 l 172 561 l 64 561 l 64 717 l 172 717 l 172 754 q 232 925 172 864 q 418 986 292 986 l 576 986 l 576 831 l 463 831 q 400 809 419 831 q 381 744 381 788 l 381 717 l 565 717 l 565 561 l 381 561 l 381 0 l 172 0 m 694 0 l 694 744 l 903 744 l 903 0 l 694 0 m 690 836 l 690 1003 l 906 1003 l 906 836 l 690 836 z "},"ﬂ":{"ha":1033,"x_min":64,"x_max":1008,"o":"m 172 0 l 172 561 l 64 561 l 64 717 l 172 717 l 172 754 q 232 925 172 864 q 418 986 292 986 l 576 986 l 576 831 l 463 831 q 400 809 419 831 q 381 744 381 788 l 381 717 l 565 717 l 565 561 l 381 561 l 381 0 l 172 0 m 885 0 q 742 45 793 0 q 690 194 690 90 l 690 986 l 899 986 l 899 217 q 914 169 899 183 q 958 156 929 156 l 1008 156 l 1008 0 l 885 0 z "},"ª":{"ha":600,"x_min":56,"x_max":558,"o":"m 229 522 q 103 555 150 522 q 56 649 56 588 q 97 745 56 713 q 219 794 139 778 l 364 824 q 346 885 364 864 q 296 906 328 906 q 221 844 232 906 l 64 850 q 296 1008 90 1008 q 465 958 410 1008 q 521 813 521 908 l 521 663 q 528 635 521 642 q 547 628 535 628 l 558 628 l 558 528 q 497 522 540 522 q 431 538 463 522 q 390 604 400 554 q 333 544 374 567 q 229 522 292 522 m 267 618 q 336 643 308 618 q 364 714 364 668 l 364 736 l 274 715 q 217 663 217 701 q 267 618 217 618 z "},"º":{"ha":619,"x_min":56,"x_max":564,"o":"m 310 522 q 124 588 192 522 q 56 765 56 654 q 124 942 56 875 q 310 1008 192 1008 q 496 942 428 1008 q 564 765 564 875 q 496 588 564 654 q 310 522 428 522 m 310 633 q 403 765 403 633 q 379 863 403 829 q 310 897 356 897 q 240 863 264 897 q 217 765 217 828 q 310 633 217 633 z "},"А":{"ha":1014,"x_min":26,"x_max":988,"o":"m 26 0 l 382 986 l 632 986 l 988 0 l 768 0 l 696 210 l 317 210 l 244 0 l 26 0 m 376 383 l 638 383 l 507 764 l 376 383 z "},"Б":{"ha":947,"x_min":103,"x_max":876,"o":"m 103 0 l 103 986 l 832 986 l 832 808 l 314 808 l 314 626 l 497 626 q 776 543 675 626 q 876 313 876 460 q 776 83 876 167 q 497 0 675 0 l 103 0 m 314 178 l 485 178 q 660 313 660 178 q 485 450 660 450 l 314 450 l 314 178 z "},"В":{"ha":976,"x_min":103,"x_max":906,"o":"m 103 0 l 103 986 l 486 986 q 767 922 669 986 q 864 718 864 857 q 811 574 864 629 q 660 510 758 519 q 842 438 779 500 q 906 272 906 375 q 809 67 906 135 q 533 0 713 0 l 103 0 m 314 578 l 481 578 q 605 608 558 578 q 651 696 651 638 q 606 785 651 757 q 481 814 561 814 l 314 814 l 314 578 m 314 172 l 524 172 q 646 203 599 172 q 693 297 693 233 q 647 392 693 360 q 524 425 600 425 l 314 425 l 314 172 z "},"Г":{"ha":847,"x_min":103,"x_max":832,"o":"m 103 0 l 103 986 l 832 986 l 832 808 l 314 808 l 314 0 l 103 0 z "},"Ѓ":{"ha":847,"x_min":103,"x_max":832,"o":"m 103 0 l 103 986 l 832 986 l 832 808 l 314 808 l 314 0 l 103 0 m 372 1063 l 454 1268 l 656 1268 l 531 1063 l 372 1063 z "},"Ґ":{"ha":790,"x_min":103,"x_max":775,"o":"m 103 0 l 103 986 l 564 986 l 564 1201 l 775 1201 l 775 808 l 314 808 l 314 0 l 103 0 z "},"Ғ":{"ha":921,"x_min":75,"x_max":906,"o":"m 176 0 l 176 367 l 75 367 l 75 544 l 176 544 l 176 986 l 906 986 l 906 808 l 388 808 l 388 544 l 689 544 l 689 367 l 388 367 l 388 0 l 176 0 z "},"Д":{"ha":1189,"x_min":69,"x_max":1119,"o":"m 69 -208 l 69 178 l 113 178 q 244 361 222 178 l 317 986 l 997 986 l 997 178 l 1119 178 l 1119 -208 l 908 -208 l 908 0 l 282 0 l 282 -208 l 69 -208 m 403 178 l 786 178 l 786 808 l 511 808 l 458 347 q 403 178 444 235 z "},"Е":{"ha":864,"x_min":103,"x_max":800,"o":"m 103 0 l 103 986 l 789 986 l 789 808 l 314 808 l 314 582 l 772 582 l 772 407 l 314 407 l 314 178 l 800 178 l 800 0 l 103 0 z "},"Ѐ":{"ha":864,"x_min":103,"x_max":800,"o":"m 103 0 l 103 986 l 789 986 l 789 808 l 314 808 l 314 582 l 772 582 l 772 407 l 314 407 l 314 178 l 800 178 l 800 0 l 103 0 m 390 1072 l 265 1276 l 467 1276 l 549 1072 l 390 1072 z "},"Ё":{"ha":864,"x_min":103,"x_max":800,"o":"m 103 0 l 103 986 l 789 986 l 789 808 l 314 808 l 314 582 l 772 582 l 772 407 l 314 407 l 314 178 l 800 178 l 800 0 l 103 0 m 199 1074 l 199 1242 l 397 1242 l 397 1074 l 199 1074 m 497 1074 l 497 1242 l 696 1242 l 696 1074 l 497 1074 z "},"Ж":{"ha":1428,"x_min":17,"x_max":1411,"o":"m 17 0 l 385 493 l 31 986 l 294 986 l 608 550 l 608 986 l 819 986 l 819 550 l 1133 986 l 1397 986 l 1042 493 l 1411 0 l 1147 0 l 819 439 l 819 0 l 608 0 l 608 439 l 281 0 l 17 0 z "},"З":{"ha":957,"x_min":64,"x_max":893,"o":"m 478 -22 q 267 17 358 -22 q 122 126 175 56 q 64 289 68 196 l 279 297 q 339 194 285 232 q 479 156 393 156 q 623 196 571 156 q 675 304 675 236 q 649 386 675 354 q 581 434 622 418 q 492 449 539 450 l 392 447 l 392 594 l 492 593 q 564 606 529 593 q 620 648 599 619 q 642 722 642 676 q 597 802 642 774 q 474 831 551 831 q 352 803 399 831 q 300 731 306 776 l 86 740 q 148 881 96 821 q 285 975 200 942 q 478 1008 369 1008 q 678 976 592 1008 q 812 887 764 944 q 860 751 860 829 q 803 610 860 665 q 642 533 747 554 q 828 442 763 510 q 893 271 893 374 q 841 117 893 183 q 696 15 789 51 q 478 -22 603 -22 z "},"И":{"ha":1039,"x_min":100,"x_max":936,"o":"m 936 0 l 725 0 l 725 657 l 336 0 l 100 0 l 100 986 l 311 986 l 311 306 l 704 986 l 936 986 l 936 0 z "},"Й":{"ha":1039,"x_min":100,"x_max":936,"o":"m 515 1072 q 360 1126 419 1072 q 297 1276 301 1179 l 418 1276 q 449 1207 424 1228 q 515 1186 474 1186 q 582 1207 557 1186 q 613 1276 607 1228 l 733 1276 q 671 1126 729 1179 q 515 1072 613 1072 m 936 0 l 725 0 l 725 657 l 336 0 l 100 0 l 100 986 l 311 986 l 311 306 l 704 986 l 936 986 l 936 0 z "},"Ѝ":{"ha":1039,"x_min":100,"x_max":936,"o":"m 443 1072 l 318 1276 l 521 1276 l 603 1072 l 443 1072 m 936 0 l 725 0 l 725 657 l 336 0 l 100 0 l 100 986 l 311 986 l 311 306 l 704 986 l 936 986 l 936 0 z "},"К":{"ha":954,"x_min":103,"x_max":938,"o":"m 103 0 l 103 986 l 314 986 l 314 506 l 682 986 l 924 986 l 544 493 l 938 0 l 693 0 l 314 481 l 314 0 l 103 0 z "},"Ќ":{"ha":954,"x_min":103,"x_max":938,"o":"m 103 0 l 103 986 l 314 986 l 314 506 l 682 986 l 924 986 l 544 493 l 938 0 l 693 0 l 314 481 l 314 0 l 103 0 m 399 1063 l 481 1268 l 682 1268 l 557 1063 l 399 1063 z "},"Л":{"ha":1085,"x_min":68,"x_max":982,"o":"m 68 0 l 68 178 l 147 178 q 209 204 188 178 q 236 278 231 231 l 300 986 l 982 986 l 982 0 l 772 0 l 772 808 l 492 808 l 440 240 q 372 65 429 131 q 210 0 314 0 l 68 0 z "},"М":{"ha":1271,"x_min":103,"x_max":1168,"o":"m 103 0 l 103 986 l 385 986 l 636 268 l 886 986 l 1168 986 l 1168 0 l 957 0 l 957 639 l 725 3 l 544 3 l 314 639 l 314 0 l 103 0 z "},"Н":{"ha":1001,"x_min":103,"x_max":899,"o":"m 103 0 l 103 986 l 314 986 l 314 585 l 688 585 l 688 986 l 899 986 l 899 0 l 688 0 l 688 407 l 314 407 l 314 0 l 103 0 z "},"О":{"ha":1078,"x_min":58,"x_max":1019,"o":"m 539 -22 q 281 40 389 -22 q 116 218 174 103 q 58 492 58 333 q 116 766 58 650 q 281 945 174 882 q 539 1008 389 1008 q 797 945 689 1008 q 962 766 904 882 q 1019 492 1019 650 q 962 218 1019 333 q 797 40 904 103 q 539 -22 689 -22 m 539 156 q 732 244 663 156 q 801 492 801 332 q 732 741 801 651 q 539 831 663 831 q 346 741 415 831 q 276 492 276 651 q 346 244 276 332 q 539 156 415 156 z "},"П":{"ha":996,"x_min":103,"x_max":893,"o":"m 103 0 l 103 986 l 893 986 l 893 0 l 682 0 l 682 808 l 314 808 l 314 0 l 103 0 z "},"Р":{"ha":933,"x_min":103,"x_max":876,"o":"m 103 0 l 103 986 l 497 986 q 776 900 675 986 q 876 664 876 814 q 776 427 876 514 q 497 340 675 340 l 314 340 l 314 0 l 103 0 m 314 518 l 485 518 q 614 555 568 518 q 660 664 660 592 q 614 772 660 736 q 485 808 568 808 l 314 808 l 314 518 z "},"С":{"ha":1013,"x_min":60,"x_max":969,"o":"m 522 -22 q 283 39 388 -22 q 119 215 179 100 q 60 492 60 331 q 117 765 60 649 q 280 944 175 881 q 526 1008 385 1008 q 826 913 719 1008 q 965 642 933 818 l 746 633 q 674 778 729 726 q 526 831 618 831 q 343 738 408 831 q 278 492 278 646 q 344 246 278 336 q 525 156 411 156 q 679 212 624 156 q 749 368 735 268 l 969 360 q 827 78 939 179 q 522 -22 715 -22 z "},"Т":{"ha":863,"x_min":0,"x_max":803,"o":"m 294 0 l 294 808 l 0 808 l 0 986 l 803 986 l 803 808 l 507 808 l 507 0 l 294 0 z "},"У":{"ha":850,"x_min":26,"x_max":824,"o":"m 147 0 l 147 172 l 258 172 q 342 221 326 172 l 367 288 l 292 288 l 26 986 l 244 986 l 428 468 l 607 986 l 824 986 l 519 138 q 444 33 494 67 q 314 0 394 0 l 147 0 z "},"Ў":{"ha":850,"x_min":26,"x_max":824,"o":"m 147 0 l 147 172 l 258 172 q 342 221 326 172 l 367 288 l 292 288 l 26 986 l 244 986 l 428 468 l 607 986 l 824 986 l 519 138 q 444 33 494 67 q 314 0 394 0 l 147 0 m 425 1064 q 269 1117 328 1064 q 207 1268 211 1171 l 328 1268 q 358 1199 332 1219 q 425 1178 383 1178 q 492 1199 467 1178 q 521 1268 517 1219 l 642 1268 q 579 1117 638 1171 q 425 1064 521 1064 z "},"Ф":{"ha":1207,"x_min":58,"x_max":1149,"o":"m 504 0 l 504 107 q 268 172 368 121 q 113 306 168 224 q 58 493 58 388 q 113 681 58 599 q 268 814 168 763 q 504 879 368 865 l 504 986 l 703 986 l 703 879 q 938 813 838 865 q 1093 680 1038 761 q 1149 493 1149 599 q 1093 306 1149 388 q 938 173 1038 225 q 703 107 838 121 l 703 0 l 504 0 m 276 493 q 337 358 276 413 q 504 286 397 304 l 504 700 q 337 628 397 682 q 276 493 276 574 m 931 493 q 870 628 931 574 q 703 700 810 682 l 703 286 q 870 358 810 304 q 931 493 931 413 z "},"Х":{"ha":956,"x_min":17,"x_max":939,"o":"m 17 0 l 351 494 l 19 986 l 264 986 l 479 654 l 689 986 l 935 986 l 603 497 l 939 0 l 693 0 l 476 338 l 263 0 l 17 0 z "},"Ц":{"ha":1125,"x_min":103,"x_max":1050,"o":"m 839 -208 l 839 0 l 103 0 l 103 986 l 314 986 l 314 178 l 682 178 l 682 986 l 893 986 l 893 178 l 1050 178 l 1050 -208 l 839 -208 z "},"Ч":{"ha":933,"x_min":50,"x_max":831,"o":"m 619 0 l 619 451 q 515 363 582 396 q 365 331 449 331 q 133 413 217 331 q 50 632 50 494 l 50 986 l 261 986 l 261 683 q 301 551 261 597 q 421 504 342 504 q 565 552 511 504 q 619 683 619 600 l 619 986 l 831 986 l 831 0 l 619 0 z "},"Ш":{"ha":1344,"x_min":103,"x_max":1242,"o":"m 103 0 l 103 986 l 314 986 l 314 178 l 567 178 l 567 986 l 779 986 l 779 178 l 1031 178 l 1031 986 l 1242 986 l 1242 0 l 103 0 z "},"Щ":{"ha":1471,"x_min":103,"x_max":1396,"o":"m 103 0 l 103 986 l 314 986 l 314 178 l 567 178 l 567 986 l 779 986 l 779 178 l 1031 178 l 1031 986 l 1242 986 l 1242 178 l 1396 178 l 1396 -208 l 1185 -208 l 1185 0 l 103 0 z "},"Џ":{"ha":996,"x_min":103,"x_max":893,"o":"m 393 -208 l 393 0 l 103 0 l 103 986 l 314 986 l 314 178 l 682 178 l 682 986 l 893 986 l 893 0 l 604 0 l 604 -208 l 393 -208 z "},"Ь":{"ha":947,"x_min":103,"x_max":876,"o":"m 103 986 l 314 986 l 314 646 l 497 646 q 776 559 675 646 q 876 322 876 472 q 776 86 876 172 q 497 0 675 0 l 103 0 l 103 986 m 314 468 l 314 178 l 485 178 q 614 215 568 178 q 660 322 660 251 q 614 431 660 394 q 485 468 568 468 l 314 468 z "},"Ы":{"ha":1288,"x_min":103,"x_max":1185,"o":"m 975 0 l 975 986 l 1185 986 l 1185 0 l 975 0 m 103 986 l 314 986 l 314 646 l 497 646 q 776 559 675 646 q 876 322 876 472 q 776 86 876 172 q 497 0 675 0 l 103 0 l 103 986 m 314 468 l 314 178 l 485 178 q 614 215 568 178 q 660 322 660 251 q 614 431 660 394 q 485 468 568 468 l 314 468 z "},"Ъ":{"ha":1049,"x_min":75,"x_max":993,"o":"m 75 808 l 75 986 l 431 986 l 431 646 l 614 646 q 892 559 792 646 q 993 322 993 472 q 892 86 993 172 q 614 0 792 0 l 219 0 l 219 808 l 75 808 m 431 468 l 431 178 l 601 178 q 731 215 685 178 q 776 322 776 251 q 731 431 776 394 q 601 468 685 468 l 431 468 z "},"Љ":{"ha":1574,"x_min":68,"x_max":1503,"o":"m 68 0 l 68 178 l 147 178 q 209 204 188 178 q 236 278 231 231 l 300 986 l 982 986 l 982 646 l 1125 646 q 1402 559 1301 646 q 1503 322 1503 472 q 1402 86 1503 172 q 1125 0 1301 0 l 729 0 l 729 808 l 492 808 l 440 240 q 372 65 429 131 q 210 0 314 0 l 68 0 m 1113 468 l 982 468 l 982 178 l 1113 178 q 1241 215 1196 178 q 1286 322 1286 251 q 1240 431 1286 394 q 1113 468 1194 468 z "},"Њ":{"ha":1526,"x_min":103,"x_max":1456,"o":"m 103 0 l 103 986 l 314 986 l 314 646 l 682 646 l 682 986 l 893 986 l 893 646 l 1078 646 q 1355 559 1254 646 q 1456 322 1456 472 q 1355 86 1456 172 q 1078 0 1254 0 l 682 0 l 682 468 l 314 468 l 314 0 l 103 0 m 893 468 l 893 178 l 1065 178 q 1194 215 1149 178 q 1239 322 1239 251 q 1193 431 1239 394 q 1065 468 1147 468 l 893 468 z "},"Ѕ":{"ha":946,"x_min":72,"x_max":874,"o":"m 493 -22 q 192 72 301 -22 q 72 325 83 167 l 285 335 q 349 200 297 247 q 496 153 400 153 q 617 181 574 153 q 661 267 661 210 q 644 327 661 301 q 581 374 628 353 q 442 417 533 396 q 238 482 315 446 q 126 573 161 518 q 92 711 92 628 q 135 866 92 799 q 263 971 179 933 q 461 1008 346 1008 q 668 965 583 1008 q 800 847 753 922 q 858 675 847 772 l 647 664 q 591 787 639 740 q 458 833 543 833 q 345 801 386 833 q 304 718 304 769 q 322 658 304 682 q 385 615 340 633 q 510 581 429 597 q 726 510 647 553 q 840 410 806 468 q 874 276 874 351 q 827 117 874 185 q 695 14 781 50 q 493 -22 610 -22 z "},"Є":{"ha":1060,"x_min":53,"x_max":1000,"o":"m 533 -22 q 276 40 383 -22 q 110 218 168 103 q 53 492 53 333 q 110 767 53 651 q 276 946 168 883 q 533 1008 383 1008 q 845 908 724 1008 q 1000 631 967 808 l 776 631 q 689 778 751 726 q 533 831 626 831 q 358 763 425 831 q 275 574 292 696 l 593 574 l 593 411 l 275 411 q 358 222 292 289 q 533 156 425 156 q 689 207 626 156 q 776 353 751 258 l 1000 353 q 844 78 965 178 q 533 -22 724 -22 z "},"Э":{"ha":1064,"x_min":58,"x_max":1006,"o":"m 525 -22 q 214 78 335 -22 q 58 353 93 178 l 282 353 q 369 207 307 258 q 525 156 432 156 q 700 222 633 156 q 783 411 767 289 l 465 411 l 465 574 l 783 574 q 700 763 767 696 q 525 831 633 831 q 369 778 432 831 q 282 631 307 726 l 58 631 q 213 908 92 808 q 525 1008 335 1008 q 783 946 675 1008 q 948 767 890 883 q 1006 492 1006 651 q 948 218 1006 333 q 783 40 890 103 q 525 -22 675 -22 z "},"І":{"ha":422,"x_min":108,"x_max":319,"o":"m 108 0 l 108 986 l 319 986 l 319 0 l 108 0 z "},"Ї":{"ha":417,"x_min":-50,"x_max":447,"o":"m 100 0 l 100 986 l 311 986 l 311 0 l 100 0 m -50 1082 l -50 1250 l 149 1250 l 149 1082 l -50 1082 m 249 1082 l 249 1250 l 447 1250 l 447 1082 l 249 1082 z "},"Ј":{"ha":871,"x_min":68,"x_max":789,"o":"m 429 -22 q 234 26 314 -22 q 112 159 154 75 q 68 351 69 243 l 281 361 q 321 206 282 256 q 429 156 360 156 q 539 204 500 156 q 578 354 578 253 l 578 986 l 789 986 l 789 354 q 744 155 789 239 q 618 24 699 71 q 429 -22 538 -22 z "},"Ћ":{"ha":1090,"x_min":15,"x_max":1040,"o":"m 15 808 l 15 986 l 751 986 l 751 808 l 471 808 l 471 535 q 574 623 508 590 q 724 656 640 656 q 957 574 874 656 q 1040 354 1040 492 l 1040 0 l 829 0 l 829 303 q 789 435 829 389 q 669 482 749 482 q 524 434 578 482 q 471 303 471 386 l 471 0 l 260 0 l 260 808 l 15 808 z "},"Ю":{"ha":1464,"x_min":103,"x_max":1406,"o":"m 103 0 l 103 986 l 314 986 l 314 582 l 450 582 q 598 894 474 781 q 925 1008 722 1008 q 1183 945 1075 1008 q 1348 766 1290 882 q 1406 492 1406 650 q 1348 218 1406 333 q 1183 40 1290 103 q 925 -22 1075 -22 q 597 91 721 -22 q 450 404 472 204 l 314 404 l 314 0 l 103 0 m 925 156 q 1118 244 1049 156 q 1188 492 1188 332 q 1118 741 1188 651 q 925 831 1049 831 q 732 741 801 831 q 663 492 663 651 q 732 244 663 332 q 925 156 801 156 z "},"Я":{"ha":985,"x_min":71,"x_max":882,"o":"m 882 0 l 671 0 l 671 363 l 490 363 l 299 0 l 71 0 l 290 400 q 154 506 200 432 q 108 674 108 579 q 207 904 108 822 q 486 986 306 986 l 882 986 l 882 0 m 671 538 l 671 808 l 499 808 q 371 774 418 808 q 324 672 324 739 q 371 572 324 606 q 499 538 418 538 l 671 538 z "},"Ђ":{"ha":1096,"x_min":15,"x_max":1040,"o":"m 260 0 l 260 808 l 15 808 l 15 986 l 751 986 l 751 808 l 471 808 l 471 536 q 572 623 507 590 q 719 656 638 656 q 888 616 817 656 q 1000 505 960 576 q 1040 338 1040 433 q 990 158 1040 233 q 849 41 940 82 q 633 0 758 0 l 633 178 q 776 219 726 178 q 826 332 826 261 q 783 441 826 400 q 667 482 740 482 q 524 431 576 482 q 471 294 471 381 l 471 0 l 260 0 z "},"Ѣ":{"ha":1039,"x_min":61,"x_max":968,"o":"m 61 736 l 61 860 l 194 860 l 194 986 l 406 986 l 406 860 l 540 860 l 540 736 l 406 736 l 406 646 l 590 646 q 867 559 767 646 q 968 322 968 472 q 867 86 968 172 q 590 0 767 0 l 194 0 l 194 736 l 61 736 m 406 468 l 406 178 l 578 178 q 706 215 661 178 q 751 322 751 251 q 706 431 751 394 q 578 468 660 468 l 406 468 z "},"Ѫ":{"ha":1036,"x_min":17,"x_max":1019,"o":"m 17 0 l 138 358 q 318 532 186 513 l 115 808 l 115 986 l 921 986 l 921 808 l 718 532 q 897 358 850 513 l 1019 0 l 807 0 l 717 285 q 681 349 703 335 q 621 363 660 363 l 619 363 l 619 0 l 418 0 l 418 363 l 415 363 q 354 349 376 363 q 318 285 332 335 l 229 0 l 17 0 m 328 808 l 518 547 l 710 808 l 328 808 z "},"Ѳ":{"ha":1078,"x_min":58,"x_max":1019,"o":"m 539 -22 q 281 40 389 -22 q 116 218 174 103 q 58 492 58 333 q 116 766 58 650 q 281 945 174 882 q 539 1008 389 1008 q 797 945 689 1008 q 962 766 904 882 q 1019 492 1019 650 q 962 218 1019 333 q 797 40 904 103 q 539 -22 689 -22 m 515 592 q 655 549 606 558 q 742 546 704 539 q 797 563 769 549 q 715 760 782 690 q 539 831 647 831 q 376 774 440 831 q 289 614 313 718 q 311 618 301 618 q 409 619 353 626 q 515 592 465 611 m 539 156 q 702 212 638 156 q 790 374 767 268 q 772 369 781 371 q 672 372 731 363 q 518 414 614 382 q 420 440 468 432 q 342 444 372 449 q 279 425 310 439 q 360 226 293 296 q 539 156 428 156 z "},"Ѵ":{"ha":1074,"x_min":26,"x_max":1047,"o":"m 383 0 l 26 986 l 244 986 l 507 239 l 694 775 q 803 931 729 875 q 979 986 878 986 l 1047 986 l 1047 808 l 1028 808 q 938 783 971 808 q 881 694 904 757 l 631 0 l 383 0 z "},"Җ":{"ha":1501,"x_min":17,"x_max":1492,"o":"m 17 0 l 385 493 l 31 986 l 294 986 l 608 550 l 608 986 l 819 986 l 819 550 l 1133 986 l 1397 986 l 1042 493 l 1314 131 l 1492 131 l 1492 -208 l 1281 -208 l 1281 0 l 1147 0 l 819 439 l 819 0 l 608 0 l 608 439 l 281 0 l 17 0 z "},"Қ":{"ha":1028,"x_min":103,"x_max":1011,"o":"m 103 0 l 103 986 l 314 986 l 314 506 l 682 986 l 924 986 l 544 493 l 833 131 l 1011 131 l 1011 -208 l 800 -208 l 800 0 l 693 0 l 314 481 l 314 0 l 103 0 z "},"Ң":{"ha":1096,"x_min":103,"x_max":1021,"o":"m 103 0 l 103 986 l 314 986 l 314 585 l 688 585 l 688 986 l 899 986 l 899 131 l 1021 131 l 1021 -208 l 810 -208 l 810 0 l 688 0 l 688 407 l 314 407 l 314 0 l 103 0 z "},"Ү":{"ha":876,"x_min":-10,"x_max":886,"o":"m 333 0 l 333 383 l -10 986 l 224 986 l 439 589 l 653 986 l 886 986 l 544 383 l 544 0 l 333 0 z "},"Ұ":{"ha":972,"x_min":-4,"x_max":893,"o":"m 169 258 l 169 435 l 310 435 l -4 986 l 229 986 l 444 589 l 660 986 l 893 986 l 581 435 l 808 435 l 808 258 l 550 258 l 550 0 l 339 0 l 339 258 l 169 258 z "},"Ҳ":{"ha":1049,"x_min":17,"x_max":1032,"o":"m 17 0 l 351 494 l 19 986 l 264 986 l 479 654 l 689 986 l 935 986 l 603 497 l 850 131 l 1032 131 l 1032 -208 l 821 -208 l 821 0 l 693 0 l 476 338 l 263 0 l 17 0 z "},"Ҷ":{"ha":1029,"x_min":50,"x_max":954,"o":"m 619 0 l 619 451 q 515 363 582 396 q 365 331 449 331 q 133 413 217 331 q 50 632 50 494 l 50 986 l 261 986 l 261 683 q 301 551 261 597 q 421 504 342 504 q 565 552 511 504 q 619 683 619 600 l 619 986 l 831 986 l 831 131 l 954 131 l 954 -208 l 743 -208 l 743 0 l 619 0 z "},"Һ":{"ha":933,"x_min":103,"x_max":883,"o":"m 314 986 l 314 535 q 417 623 351 590 q 567 656 483 656 q 800 574 717 656 q 883 354 883 492 l 883 0 l 672 0 l 672 303 q 632 435 672 389 q 513 482 592 482 q 368 434 422 482 q 314 303 314 386 l 314 0 l 103 0 l 103 986 l 314 986 z "},"Ӏ":{"ha":417,"x_min":103,"x_max":314,"o":"m 103 0 l 103 986 l 314 986 l 314 0 l 103 0 z "},"Ә":{"ha":1051,"x_min":58,"x_max":993,"o":"m 993 493 q 928 209 993 324 q 756 36 864 94 q 517 -22 647 -22 q 342 10 425 -22 q 196 105 260 42 q 95 263 132 168 q 58 483 58 358 l 58 561 l 774 561 q 690 760 760 690 q 515 831 619 831 q 394 793 450 831 q 308 683 339 756 l 86 696 q 244 924 132 840 q 517 1008 357 1008 q 765 948 657 1008 q 933 772 872 888 q 993 493 993 657 m 519 156 q 689 217 622 156 q 772 396 756 278 l 285 396 q 365 213 304 271 q 519 156 425 156 z "},"Ӣ":{"ha":1039,"x_min":100,"x_max":936,"o":"m 936 0 l 725 0 l 725 657 l 336 0 l 100 0 l 100 986 l 311 986 l 311 306 l 704 986 l 936 986 l 936 0 m 303 1085 l 303 1238 l 718 1238 l 718 1085 l 303 1085 z "},"Ө":{"ha":1078,"x_min":58,"x_max":1019,"o":"m 539 -22 q 281 40 389 -22 q 116 218 174 103 q 58 492 58 333 q 116 766 58 650 q 281 945 174 882 q 539 1008 389 1008 q 797 945 689 1008 q 962 766 904 882 q 1019 492 1019 650 q 962 218 1019 333 q 797 40 904 103 q 539 -22 689 -22 m 539 831 q 367 765 433 831 q 282 582 300 700 l 794 582 q 710 765 776 700 q 539 831 643 831 m 539 156 q 711 220 644 156 q 796 404 778 285 l 282 404 q 367 220 300 285 q 539 156 433 156 z "},"Ӯ":{"ha":850,"x_min":26,"x_max":824,"o":"m 147 0 l 147 172 l 258 172 q 342 221 326 172 l 367 288 l 292 288 l 26 986 l 244 986 l 428 468 l 607 986 l 824 986 l 519 138 q 444 33 494 67 q 314 0 394 0 l 147 0 m 219 1085 l 219 1238 l 635 1238 l 635 1085 l 219 1085 z "},"а":{"ha":825,"x_min":51,"x_max":807,"o":"m 313 -17 q 124 37 196 -17 q 51 186 51 90 q 113 338 51 285 q 296 417 175 392 l 536 464 q 410 610 536 610 q 274 503 294 610 l 64 513 q 174 698 85 635 q 410 761 264 761 q 660 681 576 761 q 744 450 744 601 l 744 196 q 755 153 744 164 q 786 143 765 143 l 807 143 l 807 0 q 776 -6 797 -3 q 733 -8 754 -8 q 629 17 675 -8 q 569 114 583 43 q 475 19 542 54 q 313 -17 408 -17 m 363 126 q 488 172 440 126 q 536 297 536 218 l 536 333 l 367 297 q 265 206 265 278 q 363 126 265 126 z "},"б":{"ha":888,"x_min":58,"x_max":829,"o":"m 447 -22 q 289 7 365 -22 q 156 106 213 36 q 58 440 58 217 q 85 666 58 574 q 167 819 111 758 q 313 919 224 881 q 403 981 381 950 q 426 1067 426 1011 l 603 1068 q 566 908 603 972 q 440 803 529 844 q 342 749 383 776 q 275 682 300 722 q 243 575 250 642 q 337 652 279 625 q 465 679 394 679 q 658 635 576 679 q 784 514 739 592 q 829 331 829 436 q 781 143 829 222 q 647 21 733 64 q 447 -22 561 -22 m 449 138 q 569 192 522 138 q 615 331 615 246 q 571 466 615 414 q 454 518 526 518 q 328 467 378 518 q 279 331 279 417 q 324 192 278 246 q 449 138 371 138 z "},"в":{"ha":860,"x_min":92,"x_max":782,"o":"m 92 0 l 92 744 l 431 744 q 669 692 588 744 q 751 538 751 639 q 706 429 751 469 q 578 385 660 389 q 729 334 676 379 q 782 211 782 289 q 703 55 782 110 q 471 0 624 0 l 92 0 m 301 440 l 426 440 q 509 461 479 440 q 539 518 539 482 q 509 574 539 554 q 426 594 479 594 l 301 594 l 301 440 m 301 150 l 458 150 q 540 171 510 150 q 569 229 569 192 q 540 292 569 269 q 458 315 511 315 l 301 315 l 301 150 z "},"г":{"ha":692,"x_min":92,"x_max":654,"o":"m 92 0 l 92 744 l 654 744 l 654 589 l 300 589 l 300 0 l 92 0 z "},"ѓ":{"ha":692,"x_min":92,"x_max":654,"o":"m 92 0 l 92 744 l 654 744 l 654 589 l 300 589 l 300 0 l 92 0 m 279 821 l 361 1026 l 563 1026 l 438 821 l 279 821 z "},"ґ":{"ha":649,"x_min":92,"x_max":619,"o":"m 92 0 l 92 744 l 410 744 l 410 961 l 619 961 l 619 589 l 300 589 l 300 0 l 92 0 z "},"ғ":{"ha":757,"x_min":64,"x_max":706,"o":"m 142 0 l 142 275 l 64 275 l 64 431 l 142 431 l 142 744 l 706 744 l 706 589 l 350 589 l 350 431 l 547 431 l 547 275 l 350 275 l 350 0 l 142 0 z "},"д":{"ha":1029,"x_min":50,"x_max":979,"o":"m 50 -208 l 50 154 l 103 154 q 171 186 146 154 q 206 288 196 218 l 272 744 l 860 744 l 860 154 l 979 154 l 979 -208 l 771 -208 l 771 0 l 258 0 l 258 -208 l 50 -208 m 399 281 q 360 154 389 206 l 651 154 l 651 589 l 439 589 l 399 281 z "},"е":{"ha":840,"x_min":51,"x_max":790,"o":"m 426 -17 q 228 32 313 -17 q 98 167 144 81 q 51 372 51 254 q 97 576 51 489 q 227 713 143 664 q 425 761 311 761 q 618 713 536 761 q 745 574 700 664 q 790 358 790 483 l 790 317 l 267 317 q 315 185 271 228 q 431 142 358 142 q 569 232 539 142 l 779 219 q 655 46 749 108 q 426 -17 561 -17 m 267 444 l 576 444 q 531 567 572 526 q 425 607 490 607 q 317 565 360 607 q 267 444 275 522 z "},"ѐ":{"ha":840,"x_min":51,"x_max":790,"o":"m 426 -17 q 228 32 313 -17 q 98 167 144 81 q 51 372 51 254 q 97 576 51 489 q 227 713 143 664 q 425 761 311 761 q 618 713 536 761 q 745 574 700 664 q 790 358 790 483 l 790 317 l 267 317 q 315 185 271 228 q 431 142 358 142 q 569 232 539 142 l 779 219 q 655 46 749 108 q 426 -17 561 -17 m 267 444 l 576 444 q 531 567 572 526 q 425 607 490 607 q 317 565 360 607 q 267 444 275 522 m 364 828 l 239 1032 l 440 1032 l 522 828 l 364 828 z "},"ё":{"ha":840,"x_min":51,"x_max":790,"o":"m 426 -17 q 228 32 313 -17 q 98 167 144 81 q 51 372 51 254 q 97 576 51 489 q 227 713 143 664 q 425 761 311 761 q 618 713 536 761 q 745 574 700 664 q 790 358 790 483 l 790 317 l 267 317 q 315 185 271 228 q 431 142 358 142 q 569 232 539 142 l 779 219 q 655 46 749 108 q 426 -17 561 -17 m 267 444 l 576 444 q 531 567 572 526 q 425 607 490 607 q 317 565 360 607 q 267 444 275 522 m 181 829 l 181 997 l 379 997 l 379 829 l 181 829 m 479 829 l 479 997 l 678 997 l 678 829 l 479 829 z "},"ж":{"ha":1376,"x_min":64,"x_max":1313,"o":"m 64 0 l 365 372 l 78 744 l 335 744 l 585 406 l 585 744 l 793 744 l 793 408 l 1043 744 l 1299 744 l 1010 372 l 1313 0 l 1057 0 l 793 338 l 793 0 l 585 0 l 585 340 l 321 0 l 64 0 z "},"з":{"ha":782,"x_min":28,"x_max":708,"o":"m 374 -17 q 126 49 218 -17 q 28 232 33 115 l 240 238 q 279 165 244 192 q 371 138 314 138 q 462 162 428 138 q 496 226 496 186 q 461 303 496 275 q 368 332 426 332 l 306 331 l 306 456 l 368 454 q 444 479 417 454 q 471 551 471 504 q 443 613 471 590 q 368 636 415 636 q 296 613 322 636 q 265 549 269 590 l 54 556 q 150 706 64 651 q 372 761 236 761 q 601 705 517 761 q 686 551 686 649 q 642 458 686 497 q 519 399 599 418 q 659 326 610 378 q 708 203 708 275 q 618 42 708 101 q 374 -17 528 -17 z "},"и":{"ha":828,"x_min":92,"x_max":736,"o":"m 92 0 l 92 744 l 300 744 l 300 304 l 542 744 l 736 744 l 736 0 l 528 0 l 528 428 l 292 0 l 92 0 z "},"й":{"ha":828,"x_min":92,"x_max":736,"o":"m 92 0 l 92 744 l 300 744 l 300 304 l 542 744 l 736 744 l 736 0 l 528 0 l 528 428 l 292 0 l 92 0 m 411 822 q 256 876 314 822 q 193 1026 197 929 l 314 1026 q 344 957 318 978 q 411 936 369 936 q 478 957 453 936 q 507 1026 503 978 l 628 1026 q 565 876 624 929 q 411 822 507 822 z "},"ѝ":{"ha":828,"x_min":92,"x_max":736,"o":"m 92 0 l 92 744 l 300 744 l 300 304 l 542 744 l 736 744 l 736 0 l 528 0 l 528 428 l 292 0 l 92 0 m 346 831 l 221 1035 l 422 1035 l 504 831 l 346 831 z "},"к":{"ha":904,"x_min":92,"x_max":842,"o":"m 92 0 l 92 744 l 301 744 l 301 388 l 579 744 l 825 744 l 529 372 l 842 0 l 593 0 l 301 358 l 301 0 l 92 0 z "},"ќ":{"ha":904,"x_min":92,"x_max":842,"o":"m 92 0 l 92 744 l 301 744 l 301 388 l 579 744 l 825 744 l 529 372 l 842 0 l 593 0 l 301 358 l 301 0 l 92 0 m 344 821 l 426 1026 l 628 1026 l 503 821 l 344 821 z "},"л":{"ha":946,"x_min":64,"x_max":854,"o":"m 64 0 l 64 164 l 107 164 q 188 264 178 164 l 240 744 l 854 744 l 854 0 l 646 0 l 646 589 l 429 589 l 389 207 q 196 0 368 0 l 64 0 z "},"м":{"ha":1042,"x_min":92,"x_max":950,"o":"m 92 0 l 92 744 l 338 744 l 522 189 l 704 744 l 950 744 l 950 0 l 742 0 l 742 408 l 594 0 l 447 0 l 300 408 l 300 0 l 92 0 z "},"н":{"ha":835,"x_min":92,"x_max":744,"o":"m 92 0 l 92 746 l 300 746 l 300 449 l 536 449 l 536 744 l 744 744 l 744 0 l 536 0 l 536 293 l 300 293 l 300 0 l 92 0 z "},"о":{"ha":858,"x_min":51,"x_max":807,"o":"m 429 -17 q 231 31 315 -17 q 99 167 146 79 q 51 372 51 254 q 99 577 51 490 q 231 713 146 664 q 429 761 315 761 q 628 713 543 761 q 760 577 714 664 q 807 372 807 490 q 760 167 807 254 q 628 31 714 79 q 429 -17 543 -17 m 429 143 q 550 203 507 143 q 593 372 593 264 q 550 541 593 481 q 429 601 507 601 q 308 541 351 601 q 265 372 265 481 q 308 203 265 264 q 429 143 351 143 z "},"п":{"ha":854,"x_min":92,"x_max":763,"o":"m 92 0 l 92 744 l 763 744 l 763 0 l 554 0 l 554 589 l 300 589 l 300 0 l 92 0 z "},"р":{"ha":881,"x_min":92,"x_max":829,"o":"m 92 -208 l 92 744 l 292 744 l 294 633 q 385 728 328 696 q 515 761 442 761 q 690 710 619 761 q 794 570 760 658 q 829 372 829 482 q 794 174 829 263 q 688 35 758 86 q 514 -17 618 -17 q 388 15 444 -17 q 300 104 331 47 l 300 -208 l 92 -208 m 457 143 q 573 204 531 143 q 615 372 615 265 q 573 540 615 479 q 457 601 531 601 q 342 543 383 601 q 300 372 300 485 q 341 201 300 260 q 457 143 382 143 z "},"с":{"ha":831,"x_min":51,"x_max":793,"o":"m 429 -17 q 230 32 315 -17 q 98 167 144 81 q 51 372 51 254 q 98 576 51 489 q 230 713 144 664 q 429 761 315 761 q 606 726 528 761 q 733 626 685 692 q 793 469 782 561 l 578 460 q 528 565 568 529 q 429 600 489 600 q 308 540 351 600 q 265 372 265 481 q 308 203 265 264 q 429 143 351 143 q 529 180 489 143 q 578 292 569 217 l 793 283 q 735 124 783 192 q 609 20 688 57 q 429 -17 531 -17 z "},"т":{"ha":814,"x_min":54,"x_max":763,"o":"m 304 0 l 304 589 l 54 589 l 54 744 l 763 744 l 763 589 l 514 589 l 514 0 l 304 0 z "},"у":{"ha":814,"x_min":29,"x_max":785,"o":"m 153 -208 l 153 -53 l 251 -53 q 304 -42 288 -53 q 332 -6 321 -32 l 347 38 l 290 38 l 29 744 l 242 744 l 413 232 l 572 744 l 785 744 l 499 -71 q 426 -176 474 -144 q 294 -208 379 -208 l 153 -208 z "},"ў":{"ha":814,"x_min":29,"x_max":785,"o":"m 153 -208 l 153 -53 l 251 -53 q 304 -42 288 -53 q 332 -6 321 -32 l 347 38 l 290 38 l 29 744 l 242 744 l 413 232 l 572 744 l 785 744 l 499 -71 q 426 -176 474 -144 q 294 -208 379 -208 l 153 -208 m 404 822 q 249 876 307 822 q 186 1026 190 929 l 307 1026 q 337 957 311 978 q 404 936 363 936 q 471 957 446 936 q 500 1026 496 978 l 621 1026 q 558 876 617 929 q 404 822 500 822 z "},"ф":{"ha":1004,"x_min":51,"x_max":953,"o":"m 410 -211 l 410 35 q 147 146 242 56 q 51 376 51 236 q 147 607 51 517 q 410 718 242 697 l 410 986 l 596 986 l 596 718 q 858 607 764 697 q 953 376 953 517 q 858 146 953 236 q 596 35 764 56 l 596 -211 l 410 -211 m 261 376 q 300 266 261 311 q 410 204 339 221 l 410 549 q 300 486 339 531 q 261 376 261 442 m 743 376 q 705 486 743 442 q 596 549 667 531 l 596 204 q 705 267 667 222 q 743 376 743 311 z "},"х":{"ha":903,"x_min":64,"x_max":839,"o":"m 64 0 l 329 378 l 71 744 l 292 744 l 451 506 l 606 744 l 832 744 l 575 376 l 839 0 l 618 0 l 454 253 l 289 0 l 64 0 z "},"ц":{"ha":986,"x_min":92,"x_max":910,"o":"m 700 -211 l 700 0 l 92 0 l 92 744 l 300 744 l 300 156 l 554 156 l 554 744 l 763 744 l 763 154 l 910 154 l 910 -211 l 700 -211 z "},"ч":{"ha":900,"x_min":92,"x_max":810,"o":"m 600 0 l 600 339 q 510 253 568 285 q 379 222 453 222 q 169 305 247 222 q 92 528 92 388 l 92 744 l 300 744 l 300 578 q 335 437 300 488 q 435 386 371 386 q 556 437 513 386 q 600 578 600 488 l 600 744 l 810 744 l 810 0 l 600 0 z "},"ш":{"ha":1194,"x_min":92,"x_max":1103,"o":"m 92 0 l 92 744 l 300 744 l 300 154 l 499 154 l 499 744 l 697 744 l 697 154 l 894 154 l 894 744 l 1103 744 l 1103 0 l 92 0 z "},"щ":{"ha":1315,"x_min":92,"x_max":1253,"o":"m 92 0 l 92 744 l 300 744 l 300 154 l 499 154 l 499 744 l 697 744 l 697 154 l 894 154 l 894 744 l 1103 744 l 1103 154 l 1253 154 l 1253 -211 l 1043 -211 l 1043 0 l 92 0 z "},"џ":{"ha":854,"x_min":92,"x_max":763,"o":"m 324 -211 l 324 0 l 92 0 l 92 744 l 300 744 l 300 156 l 554 156 l 554 744 l 763 744 l 763 0 l 532 0 l 532 -211 l 324 -211 z "},"ь":{"ha":847,"x_min":92,"x_max":796,"o":"m 92 0 l 92 744 l 300 744 l 300 476 l 450 476 q 708 415 621 476 q 796 235 796 354 q 708 59 796 118 q 450 0 621 0 l 92 0 m 300 144 l 432 144 q 582 235 582 144 q 432 328 582 328 l 300 328 l 300 144 z "},"ы":{"ha":1210,"x_min":92,"x_max":1118,"o":"m 910 0 l 910 744 l 1118 744 l 1118 0 l 910 0 m 92 0 l 92 744 l 300 744 l 300 476 l 450 476 q 708 415 621 476 q 796 235 796 354 q 708 59 796 118 q 450 0 621 0 l 92 0 m 300 144 l 432 144 q 582 235 582 144 q 432 328 582 328 l 300 328 l 300 144 z "},"ъ":{"ha":935,"x_min":64,"x_max":883,"o":"m 179 0 l 179 589 l 64 589 l 64 744 l 388 744 l 388 476 l 539 476 q 796 415 708 476 q 883 235 883 354 q 796 59 883 118 q 539 0 708 0 l 179 0 m 388 144 l 519 144 q 669 235 669 144 q 519 328 669 328 l 388 328 l 388 144 z "},"љ":{"ha":1403,"x_min":64,"x_max":1351,"o":"m 647 0 l 647 744 l 856 744 l 856 476 l 1006 476 q 1264 415 1176 476 q 1351 235 1351 354 q 1264 59 1351 118 q 1006 0 1176 0 l 647 0 m 856 144 l 988 144 q 1138 235 1138 144 q 988 328 1138 328 l 856 328 l 856 144 m 64 0 l 64 164 l 107 164 q 188 264 178 164 l 240 744 l 854 744 l 854 0 l 646 0 l 646 589 l 429 589 l 389 207 q 196 0 368 0 l 64 0 z "},"њ":{"ha":1292,"x_min":92,"x_max":1240,"o":"m 92 0 l 92 746 l 300 746 l 300 478 l 535 478 l 535 744 l 743 744 l 743 476 l 894 476 q 1153 415 1065 476 q 1240 235 1240 354 q 1153 59 1240 118 q 894 0 1065 0 l 535 0 l 535 322 l 300 322 l 300 0 l 92 0 m 743 144 l 876 144 q 1026 235 1026 144 q 876 328 1026 328 l 743 328 l 743 144 z "},"ѕ":{"ha":793,"x_min":51,"x_max":743,"o":"m 410 -17 q 148 54 236 -17 q 51 235 60 125 l 263 242 q 307 160 272 189 q 410 131 342 131 q 497 149 465 131 q 528 204 528 167 q 517 244 528 228 q 473 272 506 260 q 376 293 440 283 q 192 342 258 313 q 97 415 125 371 q 69 522 69 458 q 152 695 69 629 q 400 761 235 761 q 640 689 558 761 q 738 506 722 617 l 528 497 q 488 583 521 551 q 399 614 454 614 q 313 591 343 614 q 283 531 283 568 q 315 470 283 490 q 422 439 346 450 q 612 392 542 421 q 713 318 682 363 q 743 208 743 274 q 652 42 743 100 q 410 -17 561 -17 z "},"є":{"ha":846,"x_min":51,"x_max":796,"o":"m 429 -17 q 230 31 315 -17 q 98 167 144 79 q 51 372 51 254 q 99 577 51 490 q 231 713 146 664 q 429 761 315 761 q 669 684 572 761 q 796 469 765 607 l 576 469 q 429 600 543 600 q 324 558 364 600 q 271 439 283 517 l 454 439 l 454 306 l 271 306 q 324 185 283 228 q 429 143 364 143 q 575 269 542 143 l 794 269 q 666 58 763 133 q 429 -17 569 -17 z "},"э":{"ha":846,"x_min":51,"x_max":796,"o":"m 417 -17 q 180 58 276 -17 q 53 269 83 133 l 271 269 q 417 143 304 143 q 523 185 482 143 q 575 306 564 228 l 392 306 l 392 439 l 575 439 q 523 558 564 517 q 417 600 482 600 q 269 469 303 600 l 51 469 q 178 684 82 607 q 417 761 275 761 q 616 713 531 761 q 749 577 701 664 q 796 372 796 490 q 749 167 796 254 q 616 31 701 79 q 417 -17 531 -17 z "},"і":{"ha":390,"x_min":88,"x_max":303,"o":"m 92 0 l 92 744 l 300 744 l 300 0 l 92 0 m 88 836 l 88 1003 l 303 1003 l 303 836 l 88 836 z "},"ї":{"ha":390,"x_min":-53,"x_max":444,"o":"m 92 0 l 92 744 l 300 744 l 300 0 l 92 0 m -53 832 l -53 1000 l 146 1000 l 146 832 l -53 832 m 246 832 l 246 1000 l 444 1000 l 444 832 l 246 832 z "},"ј":{"ha":460,"x_min":-4,"x_max":372,"o":"m -4 -208 l -4 -53 l 78 -53 q 139 -36 118 -53 q 160 31 160 -19 l 160 744 l 369 744 l 369 25 q 313 -154 369 -100 q 121 -208 257 -208 l -4 -208 m 157 836 l 157 1003 l 372 1003 l 372 836 l 157 836 z "},"ћ":{"ha":849,"x_min":-3,"x_max":757,"o":"m 92 0 l 92 986 l 300 986 l 300 653 q 385 735 331 708 q 506 761 439 761 q 694 682 631 761 q 757 479 757 603 l 757 0 l 549 0 l 549 429 q 522 554 549 513 q 436 596 496 596 q 336 552 372 596 q 300 424 300 508 l 300 0 l 92 0 m -3 800 l -3 921 l 481 921 l 481 800 l -3 800 z "},"ю":{"ha":1196,"x_min":92,"x_max":1144,"o":"m 92 0 l 92 744 l 300 744 l 300 450 l 394 450 q 516 677 417 593 q 767 761 615 761 q 966 713 881 761 q 1098 577 1051 664 q 1144 372 1144 490 q 1098 167 1144 254 q 966 31 1051 79 q 767 -17 881 -17 q 516 67 615 -17 q 394 294 417 151 l 300 294 l 300 0 l 92 0 m 767 143 q 888 203 846 143 q 931 372 931 264 q 888 541 931 481 q 767 601 846 601 q 647 541 689 601 q 604 372 604 481 q 647 203 604 264 q 767 143 689 143 z "},"я":{"ha":868,"x_min":92,"x_max":776,"o":"m 92 0 l 267 300 q 158 386 197 333 q 119 508 119 439 q 203 685 119 625 q 450 744 288 744 l 776 744 l 776 0 l 569 0 l 569 269 l 456 269 l 306 0 l 92 0 m 450 414 l 569 414 l 569 599 l 450 599 q 361 574 393 599 q 329 506 329 550 q 361 438 329 463 q 450 414 393 414 z "},"ђ":{"ha":906,"x_min":64,"x_max":814,"o":"m 149 0 l 149 808 l 64 808 l 64 925 l 149 925 l 149 997 l 357 997 l 357 925 l 510 925 l 510 808 l 357 808 l 357 649 q 444 735 389 710 q 567 761 500 761 q 748 683 682 761 q 814 479 814 604 l 814 39 q 754 -146 814 -83 q 568 -208 694 -208 l 479 -208 l 479 -53 l 526 -53 q 584 -28 563 -53 q 606 39 606 -3 l 606 404 q 581 543 606 496 q 492 590 556 590 q 392 542 426 590 q 357 404 357 494 l 357 0 l 149 0 z "},"ѣ":{"ha":964,"x_min":64,"x_max":913,"o":"m 207 0 l 207 739 l 64 739 l 64 863 l 207 863 l 207 997 l 415 997 l 415 863 l 558 863 l 558 739 l 415 739 l 415 504 l 565 504 q 822 438 732 504 q 913 249 913 371 q 822 64 913 128 q 565 0 732 0 l 207 0 m 415 144 l 549 144 q 658 171 619 144 q 697 249 697 197 q 658 328 697 300 q 549 356 619 356 l 415 356 l 415 144 z "},"ѫ":{"ha":1049,"x_min":64,"x_max":985,"o":"m 64 0 l 169 275 q 232 356 188 325 q 335 393 276 388 l 132 594 l 132 744 l 918 744 l 918 594 l 715 393 q 817 356 774 386 q 879 275 861 325 l 985 0 l 779 0 l 706 231 q 676 280 696 267 q 622 293 657 293 l 622 0 l 428 0 l 428 293 q 372 279 392 293 q 343 231 353 265 l 269 0 l 64 0 m 328 594 l 525 400 l 722 594 l 328 594 z "},"ѳ":{"ha":858,"x_min":51,"x_max":807,"o":"m 429 -17 q 231 31 315 -17 q 99 167 146 79 q 51 372 51 254 q 99 577 51 490 q 231 713 146 664 q 429 761 315 761 q 628 713 543 761 q 760 577 714 664 q 807 372 807 490 q 760 167 807 254 q 628 31 714 79 q 429 -17 543 -17 m 418 451 q 500 419 469 429 q 550 408 531 410 q 590 411 569 407 q 542 551 583 501 q 429 601 500 601 q 334 569 372 601 q 279 476 296 536 q 418 451 342 486 m 429 143 q 576 257 539 143 q 517 267 551 257 q 426 300 482 276 q 351 324 383 318 q 290 325 318 329 q 269 318 281 324 q 320 189 279 235 q 429 143 361 143 z "},"ѵ":{"ha":890,"x_min":29,"x_max":861,"o":"m 301 0 l 29 744 l 243 744 l 422 208 l 531 536 q 636 692 565 639 q 801 744 707 744 l 861 744 l 861 589 l 847 589 q 724 492 758 589 l 543 0 l 301 0 z "},"җ":{"ha":1401,"x_min":64,"x_max":1338,"o":"m 64 0 l 365 372 l 78 744 l 335 744 l 585 406 l 585 744 l 793 744 l 793 408 l 1043 744 l 1299 744 l 1010 372 l 1228 104 l 1338 104 l 1338 -211 l 1129 -211 l 1129 0 l 1057 0 l 793 338 l 793 0 l 585 0 l 585 340 l 321 0 l 64 0 z "},"қ":{"ha":944,"x_min":92,"x_max":882,"o":"m 92 0 l 92 744 l 301 744 l 301 388 l 579 744 l 825 744 l 529 372 l 754 104 l 882 104 l 882 -211 l 674 -211 l 674 0 l 593 0 l 301 358 l 301 0 l 92 0 z "},"ң":{"ha":961,"x_min":92,"x_max":871,"o":"m 92 0 l 92 746 l 300 746 l 300 449 l 536 449 l 536 744 l 744 744 l 744 104 l 871 104 l 871 -211 l 663 -211 l 663 0 l 536 0 l 536 293 l 300 293 l 300 0 l 92 0 z "},"ү":{"ha":846,"x_min":29,"x_max":817,"o":"m 318 0 l 29 744 l 243 744 l 422 217 l 601 744 l 817 744 l 526 0 l 526 -208 l 318 -208 l 318 0 z "},"ұ":{"ha":846,"x_min":29,"x_max":817,"o":"m 157 -78 l 157 78 l 288 78 l 29 744 l 243 744 l 422 217 l 601 744 l 817 744 l 557 78 l 689 78 l 689 -78 l 526 -78 l 526 -208 l 318 -208 l 318 -78 l 157 -78 z "},"ҳ":{"ha":963,"x_min":64,"x_max":899,"o":"m 64 0 l 329 378 l 71 744 l 292 744 l 451 506 l 606 744 l 832 744 l 575 376 l 767 104 l 899 104 l 899 -211 l 690 -211 l 690 0 l 618 0 l 454 253 l 289 0 l 64 0 z "},"ҷ":{"ha":1003,"x_min":92,"x_max":932,"o":"m 600 0 l 600 339 q 510 253 568 285 q 379 222 453 222 q 169 305 247 222 q 92 528 92 388 l 92 744 l 300 744 l 300 578 q 335 437 300 488 q 435 386 371 386 q 556 437 513 386 q 600 578 600 488 l 600 744 l 810 744 l 810 104 l 932 104 l 932 -208 l 724 -208 l 724 0 l 600 0 z "},"һ":{"ha":849,"x_min":92,"x_max":757,"o":"m 92 0 l 92 986 l 300 986 l 300 653 q 385 735 331 708 q 506 761 439 761 q 694 682 631 761 q 757 479 757 603 l 757 0 l 549 0 l 549 429 q 522 554 549 513 q 436 596 496 596 q 336 552 372 596 q 300 424 300 508 l 300 0 l 92 0 z "},"ӏ":{"ha":414,"x_min":103,"x_max":311,"o":"m 103 0 l 103 986 l 311 986 l 311 0 l 103 0 z "},"ә":{"ha":840,"x_min":51,"x_max":790,"o":"m 414 761 q 613 713 528 761 q 744 578 697 665 q 790 372 790 490 q 744 168 790 256 q 613 32 697 81 q 417 -17 529 -17 q 224 32 306 -17 q 97 171 142 81 q 51 386 51 261 l 51 428 l 574 428 q 526 560 571 517 q 411 603 482 603 q 271 513 301 603 l 61 525 q 185 699 92 636 q 414 761 279 761 m 574 300 l 264 300 q 310 178 268 218 q 417 138 351 138 q 524 180 482 138 q 574 300 565 222 z "},"ӣ":{"ha":828,"x_min":92,"x_max":736,"o":"m 92 0 l 92 744 l 300 744 l 300 304 l 542 744 l 736 744 l 736 0 l 528 0 l 528 428 l 292 0 l 92 0 m 207 843 l 207 996 l 622 996 l 622 843 l 207 843 z "},"ө":{"ha":861,"x_min":49,"x_max":804,"o":"m 426 -17 q 228 31 313 -17 q 96 167 143 79 q 49 372 49 254 q 96 577 49 490 q 228 713 143 664 q 426 761 313 761 q 626 713 540 761 q 758 577 711 664 q 804 372 804 490 q 758 167 804 254 q 626 31 711 79 q 426 -17 540 -17 m 426 601 q 324 562 364 601 q 269 450 283 522 l 583 450 q 530 562 569 522 q 426 601 490 601 m 426 143 q 530 183 490 143 q 583 294 569 222 l 269 294 q 324 183 283 222 q 426 143 364 143 z "},"ӯ":{"ha":814,"x_min":29,"x_max":785,"o":"m 153 -208 l 153 -53 l 251 -53 q 304 -42 288 -53 q 332 -6 321 -32 l 347 38 l 290 38 l 29 744 l 242 744 l 413 232 l 572 744 l 785 744 l 499 -71 q 426 -176 474 -144 q 294 -208 379 -208 l 153 -208 m 199 843 l 199 996 l 614 996 l 614 843 l 199 843 z "},"Λ":{"ha":1001,"x_min":26,"x_max":975,"o":"m 26 0 l 382 986 l 619 986 l 975 0 l 763 0 l 500 764 l 239 0 l 26 0 z "},"Ω":{"ha":1067,"x_min":58,"x_max":1008,"o":"m 60 0 l 60 178 l 264 174 q 116 315 174 219 q 58 546 58 411 q 117 783 58 678 q 281 948 175 888 q 533 1008 388 1008 q 785 948 679 1008 q 950 783 892 888 q 1008 546 1008 678 q 951 315 1008 411 q 803 174 894 219 l 1007 178 l 1007 0 l 590 0 l 590 178 q 693 225 647 181 q 766 343 739 269 q 793 506 793 417 q 724 743 793 656 q 533 831 656 831 q 342 743 411 831 q 274 506 274 656 q 301 343 274 417 q 374 225 328 269 q 476 178 419 181 l 476 0 l 60 0 z "},"λ":{"ha":888,"x_min":26,"x_max":861,"o":"m 26 0 l 328 692 l 308 740 q 270 810 289 788 q 210 832 251 832 l 139 832 l 139 986 l 271 986 q 411 937 361 986 q 501 789 461 888 l 721 244 q 757 176 740 199 q 813 154 774 154 l 861 154 l 861 0 l 754 -1 q 617 47 665 -1 q 528 197 569 94 l 429 440 l 240 0 l 26 0 z "},"π":{"ha":929,"x_min":57,"x_max":893,"o":"m 199 0 l 199 589 l 57 589 l 57 744 l 893 744 l 893 589 l 756 589 l 756 246 q 778 180 756 204 q 840 156 800 156 l 890 156 l 890 0 l 832 0 q 642 63 703 0 q 582 246 582 126 l 582 589 l 372 589 l 372 0 l 199 0 z "},"ℇ":{"ha":832,"x_min":50,"x_max":782,"o":"m 411 -22 q 222 16 303 -22 q 95 122 140 54 q 50 276 50 189 q 105 438 50 372 q 261 528 160 503 q 130 610 176 553 q 83 749 83 667 q 124 883 83 825 q 239 975 165 942 q 411 1008 313 1008 q 599 969 508 1008 q 754 861 690 931 l 646 728 q 541 820 603 785 q 422 856 479 856 q 304 822 349 856 q 260 732 260 788 q 284 652 260 683 q 345 606 308 621 q 422 592 382 590 l 485 593 l 485 444 l 422 446 q 279 406 332 449 q 226 290 226 364 q 279 175 226 219 q 422 131 332 131 q 556 168 486 131 q 681 272 626 206 l 782 136 q 688 52 746 88 q 558 -3 629 17 q 411 -22 486 -22 z "},"⓿":{"ha":1128,"x_min":51,"x_max":1076,"o":"m 564 -17 q 365 23 457 -17 q 201 133 272 63 q 91 297 131 204 q 51 497 51 390 q 91 695 51 603 q 201 858 131 788 q 365 969 272 929 q 564 1008 457 1008 q 763 969 669 1008 q 926 858 856 929 q 1037 695 997 788 q 1076 497 1076 603 q 1037 297 1076 390 q 926 133 997 204 q 763 23 856 63 q 564 -17 669 -17 m 567 211 q 742 285 678 211 q 807 492 807 360 q 743 697 807 624 q 567 771 679 771 q 389 697 453 771 q 325 492 325 624 q 390 285 325 360 q 567 211 454 211 m 472 408 q 463 492 463 443 q 488 622 463 581 q 567 664 513 664 q 617 650 596 664 l 472 408 m 567 318 q 517 333 538 318 l 661 575 q 671 492 671 540 q 567 318 671 318 z "},"❶":{"ha":1128,"x_min":51,"x_max":1076,"o":"m 564 -17 q 365 23 457 -17 q 201 133 272 63 q 91 297 131 204 q 51 497 51 390 q 91 695 51 603 q 201 858 131 788 q 365 969 272 929 q 564 1008 457 1008 q 763 969 669 1008 q 926 858 856 929 q 1037 695 997 788 q 1076 497 1076 603 q 1037 297 1076 390 q 926 133 997 204 q 763 23 856 63 q 564 -17 669 -17 m 529 222 l 665 222 l 665 760 l 553 760 q 520 667 553 701 q 424 633 488 633 l 385 633 l 385 531 l 529 532 l 529 222 z "},"❷":{"ha":1128,"x_min":51,"x_max":1076,"o":"m 564 -17 q 365 23 457 -17 q 201 133 272 63 q 91 297 131 204 q 51 497 51 390 q 91 695 51 603 q 201 858 131 788 q 365 969 272 929 q 564 1008 457 1008 q 763 969 669 1008 q 926 858 856 929 q 1037 695 997 788 q 1076 497 1076 603 q 1037 297 1076 390 q 926 133 997 204 q 763 23 856 63 q 564 -17 669 -17 m 374 222 l 772 222 l 772 338 l 515 338 q 529 369 515 353 q 581 404 543 386 l 643 435 q 738 504 706 465 q 771 607 771 543 q 723 725 771 679 q 575 771 675 771 q 431 725 485 771 q 368 593 378 679 l 493 586 q 519 647 499 629 q 576 665 539 665 q 628 648 610 665 q 646 604 646 631 q 633 558 646 574 q 585 526 619 543 l 519 493 q 428 429 460 464 q 385 346 396 394 q 374 222 374 297 z "},"❸":{"ha":1128,"x_min":51,"x_max":1076,"o":"m 564 -17 q 365 23 457 -17 q 201 133 272 63 q 91 297 131 204 q 51 497 51 390 q 91 695 51 603 q 201 858 131 788 q 365 969 272 929 q 564 1008 457 1008 q 763 969 669 1008 q 926 858 856 929 q 1037 695 997 788 q 1076 497 1076 603 q 1037 297 1076 390 q 926 133 997 204 q 763 23 856 63 q 564 -17 669 -17 m 571 211 q 737 257 682 211 q 792 375 792 303 q 763 459 792 426 q 668 504 733 492 q 769 626 769 529 q 722 731 769 690 q 564 771 674 771 q 413 730 463 771 q 354 613 363 689 l 489 606 q 564 665 494 665 q 619 648 603 665 q 636 601 636 631 q 617 560 636 575 q 565 544 597 544 l 522 544 l 522 450 l 565 450 q 633 432 611 450 q 656 383 656 414 q 633 334 656 351 q 571 317 610 317 q 508 333 529 317 q 485 375 488 349 l 349 369 q 401 251 356 290 q 571 211 447 211 z "},"❹":{"ha":1128,"x_min":51,"x_max":1076,"o":"m 564 -17 q 365 23 457 -17 q 201 133 272 63 q 91 297 131 204 q 51 497 51 390 q 91 695 51 603 q 201 858 131 788 q 365 969 272 929 q 564 1008 457 1008 q 763 969 669 1008 q 926 858 856 929 q 1037 695 997 788 q 1076 497 1076 603 q 1037 297 1076 390 q 926 133 997 204 q 763 23 856 63 q 564 -17 669 -17 m 569 222 l 706 222 l 706 328 l 774 328 l 774 435 l 706 435 l 706 760 l 557 760 l 315 426 l 315 328 l 569 328 l 569 222 m 444 435 l 569 596 l 569 435 l 444 435 z "},"❺":{"ha":1128,"x_min":51,"x_max":1076,"o":"m 564 -17 q 365 23 457 -17 q 201 133 272 63 q 91 297 131 204 q 51 497 51 390 q 91 695 51 603 q 201 858 131 788 q 365 969 272 929 q 564 1008 457 1008 q 763 969 669 1008 q 926 858 856 929 q 1037 695 997 788 q 1076 497 1076 603 q 1037 297 1076 390 q 926 133 997 204 q 763 23 856 63 q 564 -17 669 -17 m 568 211 q 730 263 674 211 q 786 403 786 315 q 742 531 786 483 q 606 579 697 579 q 546 571 571 579 q 506 547 521 563 l 519 653 l 753 653 l 753 760 l 404 760 l 364 443 l 492 443 q 522 475 503 463 q 574 488 540 488 q 630 465 610 488 q 650 403 650 442 q 630 341 650 365 q 567 317 610 317 q 489 369 500 317 l 354 363 q 411 251 360 292 q 568 211 463 211 z "},"❻":{"ha":1128,"x_min":51,"x_max":1076,"o":"m 564 -17 q 365 23 457 -17 q 201 133 272 63 q 91 297 131 204 q 51 497 51 390 q 91 695 51 603 q 201 858 131 788 q 365 969 272 929 q 564 1008 457 1008 q 763 969 669 1008 q 926 858 856 929 q 1037 695 997 788 q 1076 497 1076 603 q 1037 297 1076 390 q 926 133 997 204 q 763 23 856 63 q 564 -17 669 -17 m 571 211 q 731 262 671 211 q 792 401 792 313 q 738 540 792 493 q 594 588 685 588 q 523 574 551 588 q 479 540 494 560 q 589 668 490 668 q 668 619 658 668 l 792 635 q 593 771 764 771 q 406 688 467 771 q 346 469 346 604 q 406 275 346 339 q 571 211 465 211 m 574 317 q 508 341 533 317 q 485 406 483 365 q 510 469 486 446 q 574 492 535 492 q 641 469 617 492 q 665 404 665 447 q 640 340 665 364 q 574 317 615 317 z "},"❼":{"ha":1128,"x_min":51,"x_max":1076,"o":"m 564 -17 q 365 23 457 -17 q 201 133 272 63 q 91 297 131 204 q 51 497 51 390 q 91 695 51 603 q 201 858 131 788 q 365 969 272 929 q 564 1008 457 1008 q 763 969 669 1008 q 926 858 856 929 q 1037 695 997 788 q 1076 497 1076 603 q 1037 297 1076 390 q 926 133 997 204 q 763 23 856 63 q 564 -17 669 -17 m 472 222 l 608 222 q 647 460 608 358 q 765 658 685 561 l 765 761 l 382 761 l 382 646 l 625 646 q 513 446 554 556 q 472 222 472 336 z "},"❽":{"ha":1128,"x_min":51,"x_max":1076,"o":"m 564 -17 q 365 23 457 -17 q 201 133 272 63 q 91 297 131 204 q 51 497 51 390 q 91 695 51 603 q 201 858 131 788 q 365 969 272 929 q 564 1008 457 1008 q 763 969 669 1008 q 926 858 856 929 q 1037 695 997 788 q 1076 497 1076 603 q 1037 297 1076 390 q 926 133 997 204 q 763 23 856 63 q 564 -17 669 -17 m 571 211 q 744 253 692 211 q 797 365 797 294 q 672 513 797 472 q 747 554 721 526 q 774 633 774 582 q 726 735 774 699 q 571 771 679 771 q 415 735 463 771 q 368 633 368 699 q 394 554 368 582 q 469 513 421 526 q 344 365 344 475 q 397 253 344 294 q 571 211 450 211 m 571 551 q 519 565 539 551 q 500 610 500 579 q 571 665 500 665 q 642 610 642 665 q 622 565 642 579 q 571 551 603 551 m 571 317 q 481 386 481 317 q 503 440 481 418 q 571 463 526 463 q 638 440 615 463 q 661 386 661 418 q 571 317 661 317 z "},"❾":{"ha":1128,"x_min":51,"x_max":1076,"o":"m 564 -17 q 365 23 457 -17 q 201 133 272 63 q 91 297 131 204 q 51 497 51 390 q 91 695 51 603 q 201 858 131 788 q 365 969 272 929 q 564 1008 457 1008 q 763 969 669 1008 q 926 858 856 929 q 1037 695 997 788 q 1076 497 1076 603 q 1037 297 1076 390 q 926 133 997 204 q 763 23 856 63 q 564 -17 669 -17 m 574 771 q 412 720 472 771 q 351 581 351 669 q 405 442 351 489 q 549 394 458 394 q 621 409 592 394 q 664 442 650 424 q 554 314 653 314 q 475 363 485 314 l 353 347 q 550 211 379 211 q 737 294 676 211 q 797 513 797 378 q 738 708 797 644 q 574 771 678 771 m 569 665 q 635 641 610 665 q 658 576 660 617 q 633 513 658 536 q 569 490 608 490 q 502 513 526 490 q 478 578 478 535 q 503 642 478 618 q 569 665 528 665 z "},"⓪":{"ha":1168,"x_min":51,"x_max":1117,"o":"m 583 -36 q 377 5 474 -36 q 207 119 281 46 q 92 290 133 193 q 51 497 51 386 q 92 703 51 607 q 206 873 133 800 q 376 987 279 946 q 583 1028 474 1028 q 791 987 694 1028 q 961 873 888 946 q 1076 703 1035 800 q 1117 497 1117 607 q 1076 290 1117 386 q 961 119 1035 193 q 791 5 888 46 q 583 -36 694 -36 m 583 81 q 745 113 669 81 q 878 203 821 146 q 967 335 935 260 q 999 497 999 411 q 967 658 999 583 q 878 790 935 733 q 745 879 821 847 q 583 911 669 911 q 422 879 497 911 q 290 790 347 847 q 201 658 233 733 q 169 497 169 583 q 201 335 169 411 q 290 203 233 260 q 422 113 347 146 q 583 81 497 81 m 586 211 q 410 285 475 211 q 346 492 346 360 q 410 697 346 624 q 586 771 474 771 q 764 697 700 771 q 828 492 828 624 q 763 285 828 360 q 586 211 699 211 m 482 492 q 492 407 482 443 l 638 650 q 586 664 617 664 q 508 622 533 664 q 482 492 482 581 m 586 318 q 690 492 690 318 q 682 578 690 542 l 538 333 q 586 318 558 318 z "},"①":{"ha":1168,"x_min":51,"x_max":1117,"o":"m 583 -36 q 377 5 474 -36 q 207 119 281 46 q 92 290 133 193 q 51 497 51 386 q 92 703 51 607 q 206 873 133 800 q 376 987 279 946 q 583 1028 474 1028 q 791 987 694 1028 q 961 873 888 946 q 1076 703 1035 800 q 1117 497 1117 607 q 1076 290 1117 386 q 961 119 1035 193 q 791 5 888 46 q 583 -36 694 -36 m 583 81 q 745 113 669 81 q 878 203 821 146 q 967 335 935 260 q 999 497 999 411 q 967 658 999 583 q 878 790 935 733 q 745 879 821 847 q 583 911 669 911 q 422 879 497 911 q 290 790 347 847 q 201 658 233 733 q 169 497 169 583 q 201 335 169 411 q 290 203 233 260 q 422 113 347 146 q 583 81 497 81 m 544 222 l 544 532 l 401 531 l 401 633 l 440 633 q 536 667 503 633 q 569 760 569 701 l 682 760 l 682 222 l 544 222 z "},"②":{"ha":1168,"x_min":51,"x_max":1117,"o":"m 583 -36 q 377 5 474 -36 q 207 119 281 46 q 92 290 133 193 q 51 497 51 386 q 92 703 51 607 q 206 873 133 800 q 376 987 279 946 q 583 1028 474 1028 q 791 987 694 1028 q 961 873 888 946 q 1076 703 1035 800 q 1117 497 1117 607 q 1076 290 1117 386 q 961 119 1035 193 q 791 5 888 46 q 583 -36 694 -36 m 583 81 q 745 113 669 81 q 878 203 821 146 q 967 335 935 260 q 999 497 999 411 q 967 658 999 583 q 878 790 935 733 q 745 879 821 847 q 583 911 669 911 q 422 879 497 911 q 290 790 347 847 q 201 658 233 733 q 169 497 169 583 q 201 335 169 411 q 290 203 233 260 q 422 113 347 146 q 583 81 497 81 m 388 222 q 399 346 388 297 q 442 429 410 394 q 533 493 474 464 l 599 526 q 647 558 633 543 q 660 604 660 574 q 642 648 660 631 q 590 665 624 665 q 533 647 553 665 q 507 586 513 629 l 382 593 q 445 725 392 679 q 589 771 499 771 q 737 725 689 771 q 785 607 785 679 q 752 504 785 543 q 657 435 719 465 l 594 404 q 543 369 557 386 q 529 338 529 353 l 786 338 l 786 222 l 388 222 z "},"③":{"ha":1168,"x_min":51,"x_max":1117,"o":"m 583 -36 q 377 5 474 -36 q 207 119 281 46 q 92 290 133 193 q 51 497 51 386 q 92 703 51 607 q 206 873 133 800 q 376 987 279 946 q 583 1028 474 1028 q 791 987 694 1028 q 961 873 888 946 q 1076 703 1035 800 q 1117 497 1117 607 q 1076 290 1117 386 q 961 119 1035 193 q 791 5 888 46 q 583 -36 694 -36 m 583 81 q 745 113 669 81 q 878 203 821 146 q 967 335 935 260 q 999 497 999 411 q 967 658 999 583 q 878 790 935 733 q 745 879 821 847 q 583 911 669 911 q 422 879 497 911 q 290 790 347 847 q 201 658 233 733 q 169 497 169 583 q 201 335 169 411 q 290 203 233 260 q 422 113 347 146 q 583 81 497 81 m 588 211 q 417 251 464 211 q 365 369 371 290 l 501 375 q 524 333 503 349 q 588 317 544 317 q 649 334 626 317 q 672 383 672 351 q 650 432 672 414 q 582 450 628 450 l 539 450 l 539 544 l 582 544 q 633 560 614 544 q 651 601 651 575 q 635 648 651 631 q 581 665 619 665 q 506 606 511 665 l 371 613 q 429 730 379 689 q 581 771 479 771 q 738 731 690 771 q 786 626 786 690 q 685 504 786 529 q 779 459 750 492 q 808 375 808 426 q 753 257 808 303 q 588 211 699 211 z "},"④":{"ha":1168,"x_min":51,"x_max":1117,"o":"m 583 -36 q 377 5 474 -36 q 207 119 281 46 q 92 290 133 193 q 51 497 51 386 q 92 703 51 607 q 206 873 133 800 q 376 987 279 946 q 583 1028 474 1028 q 791 987 694 1028 q 961 873 888 946 q 1076 703 1035 800 q 1117 497 1117 607 q 1076 290 1117 386 q 961 119 1035 193 q 791 5 888 46 q 583 -36 694 -36 m 583 81 q 745 113 669 81 q 878 203 821 146 q 967 335 935 260 q 999 497 999 411 q 967 658 999 583 q 878 790 935 733 q 745 879 821 847 q 583 911 669 911 q 422 879 497 911 q 290 790 347 847 q 201 658 233 733 q 169 497 169 583 q 201 335 169 411 q 290 203 233 260 q 422 113 347 146 q 583 81 497 81 m 583 222 l 583 328 l 331 328 l 331 426 l 571 760 l 721 760 l 721 435 l 789 435 l 789 328 l 721 328 l 721 222 l 583 222 m 460 435 l 583 435 l 583 596 l 460 435 z "},"⑤":{"ha":1168,"x_min":51,"x_max":1117,"o":"m 583 -36 q 377 5 474 -36 q 207 119 281 46 q 92 290 133 193 q 51 497 51 386 q 92 703 51 607 q 206 873 133 800 q 376 987 279 946 q 583 1028 474 1028 q 791 987 694 1028 q 961 873 888 946 q 1076 703 1035 800 q 1117 497 1117 607 q 1076 290 1117 386 q 961 119 1035 193 q 791 5 888 46 q 583 -36 694 -36 m 583 81 q 745 113 669 81 q 878 203 821 146 q 967 335 935 260 q 999 497 999 411 q 967 658 999 583 q 878 790 935 733 q 745 879 821 847 q 583 911 669 911 q 422 879 497 911 q 290 790 347 847 q 201 658 233 733 q 169 497 169 583 q 201 335 169 411 q 290 203 233 260 q 422 113 347 146 q 583 81 497 81 m 585 211 q 429 251 481 211 q 371 363 378 292 l 507 369 q 585 317 517 317 q 647 341 628 317 q 667 403 667 365 q 647 465 667 442 q 590 488 626 488 q 539 475 557 488 q 508 443 521 463 l 381 443 l 422 760 l 769 760 l 769 653 l 536 653 l 524 547 q 563 571 539 563 q 624 579 588 579 q 758 531 714 579 q 803 403 803 483 q 747 263 803 315 q 585 211 690 211 z "},"⑥":{"ha":1168,"x_min":51,"x_max":1117,"o":"m 583 -36 q 377 5 474 -36 q 207 119 281 46 q 92 290 133 193 q 51 497 51 386 q 92 703 51 607 q 206 873 133 800 q 376 987 279 946 q 583 1028 474 1028 q 791 987 694 1028 q 961 873 888 946 q 1076 703 1035 800 q 1117 497 1117 607 q 1076 290 1117 386 q 961 119 1035 193 q 791 5 888 46 q 583 -36 694 -36 m 583 81 q 745 113 669 81 q 878 203 821 146 q 967 335 935 260 q 999 497 999 411 q 967 658 999 583 q 878 790 935 733 q 745 879 821 847 q 583 911 669 911 q 422 879 497 911 q 290 790 347 847 q 201 658 233 733 q 169 497 169 583 q 201 335 169 411 q 290 203 233 260 q 422 113 347 146 q 583 81 497 81 m 586 211 q 422 275 482 211 q 363 469 363 339 q 423 688 363 604 q 610 771 483 771 q 807 635 781 771 l 685 619 q 606 668 675 668 q 496 540 507 668 q 540 574 511 560 q 611 588 568 588 q 755 540 701 588 q 808 401 808 493 q 748 262 808 313 q 586 211 688 211 m 590 317 q 657 340 632 317 q 682 404 682 364 q 658 469 682 447 q 590 492 633 492 q 526 469 551 492 q 501 406 501 446 q 525 341 500 365 q 590 317 550 317 z "},"⑦":{"ha":1168,"x_min":51,"x_max":1117,"o":"m 583 -36 q 377 5 474 -36 q 207 119 281 46 q 92 290 133 193 q 51 497 51 386 q 92 703 51 607 q 206 873 133 800 q 376 987 279 946 q 583 1028 474 1028 q 791 987 694 1028 q 961 873 888 946 q 1076 703 1035 800 q 1117 497 1117 607 q 1076 290 1117 386 q 961 119 1035 193 q 791 5 888 46 q 583 -36 694 -36 m 583 81 q 745 113 669 81 q 878 203 821 146 q 967 335 935 260 q 999 497 999 411 q 967 658 999 583 q 878 790 935 733 q 745 879 821 847 q 583 911 669 911 q 422 879 497 911 q 290 790 347 847 q 201 658 233 733 q 169 497 169 583 q 201 335 169 411 q 290 203 233 260 q 422 113 347 146 q 583 81 497 81 m 489 222 q 530 446 489 336 q 642 646 571 556 l 399 646 l 399 761 l 782 761 l 782 658 q 663 460 701 561 q 625 222 625 358 l 489 222 z "},"⑧":{"ha":1168,"x_min":51,"x_max":1117,"o":"m 583 -36 q 377 5 474 -36 q 207 119 281 46 q 92 290 133 193 q 51 497 51 386 q 92 703 51 607 q 206 873 133 800 q 376 987 279 946 q 583 1028 474 1028 q 791 987 694 1028 q 961 873 888 946 q 1076 703 1035 800 q 1117 497 1117 607 q 1076 290 1117 386 q 961 119 1035 193 q 791 5 888 46 q 583 -36 694 -36 m 583 81 q 745 113 669 81 q 878 203 821 146 q 967 335 935 260 q 999 497 999 411 q 967 658 999 583 q 878 790 935 733 q 745 879 821 847 q 583 911 669 911 q 422 879 497 911 q 290 790 347 847 q 201 658 233 733 q 169 497 169 583 q 201 335 169 411 q 290 203 233 260 q 422 113 347 146 q 583 81 497 81 m 588 211 q 414 253 467 211 q 361 365 361 294 q 486 513 361 475 q 411 554 438 526 q 385 633 385 582 q 432 735 385 699 q 588 771 479 771 q 743 735 696 771 q 790 633 790 699 q 764 554 790 582 q 689 513 738 526 q 814 365 814 472 q 761 253 814 294 q 588 211 708 211 m 588 551 q 639 565 619 551 q 658 610 658 579 q 588 665 658 665 q 517 610 517 665 q 536 565 517 579 q 588 551 556 551 m 588 317 q 678 386 678 317 q 655 440 678 418 q 588 463 632 463 q 520 440 543 463 q 497 386 497 418 q 588 317 497 317 z "},"⑨":{"ha":1168,"x_min":51,"x_max":1117,"o":"m 583 -36 q 377 5 474 -36 q 207 119 281 46 q 92 290 133 193 q 51 497 51 386 q 92 703 51 607 q 206 873 133 800 q 376 987 279 946 q 583 1028 474 1028 q 791 987 694 1028 q 961 873 888 946 q 1076 703 1035 800 q 1117 497 1117 607 q 1076 290 1117 386 q 961 119 1035 193 q 791 5 888 46 q 583 -36 694 -36 m 583 81 q 745 113 669 81 q 878 203 821 146 q 967 335 935 260 q 999 497 999 411 q 967 658 999 583 q 878 790 935 733 q 745 879 821 847 q 583 911 669 911 q 422 879 497 911 q 290 790 347 847 q 201 658 233 733 q 169 497 169 583 q 201 335 169 411 q 290 203 233 260 q 422 113 347 146 q 583 81 497 81 m 593 771 q 758 708 699 771 q 818 513 818 644 q 758 294 818 378 q 571 211 697 211 q 372 347 400 211 l 496 363 q 575 314 506 314 q 685 442 674 314 q 641 409 669 424 q 569 394 613 394 q 426 442 479 394 q 372 581 372 489 q 433 720 372 669 q 593 771 493 771 m 590 665 q 524 642 549 665 q 499 578 499 618 q 523 513 499 535 q 590 490 547 490 q 653 513 629 490 q 679 576 678 536 q 656 641 681 617 q 590 665 631 665 z "},"⁄":{"ha":228,"x_min":-278,"x_max":506,"o":"m -278 0 l 378 986 l 506 986 l -150 0 l -278 0 z "},"½":{"ha":1175,"x_min":28,"x_max":1118,"o":"m 171 449 l 171 758 l 28 757 l 28 860 l 67 860 q 163 894 129 860 q 196 986 196 928 l 308 986 l 308 449 l 171 449 m 153 0 l 808 986 l 936 986 l 281 0 l 153 0 m 719 0 q 731 124 719 75 q 774 207 742 172 q 865 271 806 242 l 931 304 q 978 336 965 321 q 992 382 992 351 q 974 426 992 408 q 922 443 956 443 q 865 425 885 443 q 839 364 844 407 l 714 371 q 777 503 724 457 q 921 549 831 549 q 1069 503 1021 549 q 1117 385 1117 457 q 1084 282 1117 321 q 989 213 1051 243 l 926 182 q 875 147 889 164 q 861 115 861 131 l 1118 115 l 1118 0 l 719 0 z "},"⅓":{"ha":1171,"x_min":28,"x_max":1129,"o":"m 171 449 l 171 758 l 28 757 l 28 860 l 67 860 q 163 894 129 860 q 196 986 196 928 l 308 986 l 308 449 l 171 449 m 153 0 l 808 986 l 936 986 l 281 0 l 153 0 m 908 -11 q 738 28 785 -11 q 686 147 692 68 l 822 153 q 844 110 824 126 q 908 94 865 94 q 970 112 947 94 q 993 161 993 129 q 971 210 993 192 q 903 228 949 228 l 860 228 l 860 322 l 903 322 q 953 338 935 322 q 972 379 972 353 q 956 426 972 408 q 901 443 940 443 q 826 383 832 443 l 692 390 q 750 508 700 467 q 901 549 800 549 q 1059 508 1011 549 q 1107 404 1107 468 q 1006 282 1107 307 q 1100 237 1071 269 q 1129 153 1129 204 q 1074 35 1129 81 q 908 -11 1019 -11 z "},"⅔":{"ha":1257,"x_min":56,"x_max":1215,"o":"m 61 449 q 72 572 61 524 q 115 656 83 621 q 207 719 147 690 l 272 753 q 320 785 307 769 q 333 831 333 800 q 315 874 333 857 q 264 892 297 892 q 206 874 226 892 q 181 813 186 856 l 56 819 q 119 951 65 906 q 263 997 172 997 q 410 951 363 997 q 458 833 458 906 q 426 731 458 769 q 331 661 393 692 l 268 631 q 217 596 231 613 q 203 564 203 579 l 460 564 l 460 449 l 61 449 m 239 0 l 894 986 l 1022 986 l 367 0 l 239 0 m 994 -11 q 824 28 871 -11 q 772 147 778 68 l 908 153 q 931 110 910 126 q 994 94 951 94 q 1056 112 1033 94 q 1079 161 1079 129 q 1057 210 1079 192 q 989 228 1035 228 l 946 228 l 946 322 l 989 322 q 1040 338 1021 322 q 1058 379 1058 353 q 1042 426 1058 408 q 988 443 1026 443 q 913 383 918 443 l 778 390 q 836 508 786 467 q 988 549 886 549 q 1145 508 1097 549 q 1193 404 1193 468 q 1092 282 1193 307 q 1186 237 1157 269 q 1215 153 1215 204 q 1160 35 1215 81 q 994 -11 1106 -11 z "},"¼":{"ha":1097,"x_min":28,"x_max":1069,"o":"m 171 449 l 171 758 l 28 757 l 28 860 l 67 860 q 163 894 129 860 q 196 986 196 928 l 308 986 l 308 449 l 171 449 m 153 0 l 808 986 l 936 986 l 281 0 l 153 0 m 864 0 l 864 106 l 611 106 l 611 204 l 851 538 l 1001 538 l 1001 213 l 1069 213 l 1069 106 l 1001 106 l 1001 0 l 864 0 m 740 213 l 864 213 l 864 374 l 740 213 z "},"¾":{"ha":1179,"x_min":28,"x_max":1151,"o":"m 250 438 q 80 477 126 438 q 28 596 33 517 l 164 601 q 186 559 165 575 q 250 543 207 543 q 312 560 289 543 q 335 610 335 578 q 313 658 335 640 q 244 676 290 676 l 201 676 l 201 771 l 244 771 q 295 786 276 771 q 314 828 314 801 q 298 874 314 857 q 243 892 282 892 q 168 832 174 892 l 33 839 q 92 956 42 915 q 243 997 142 997 q 401 957 353 997 q 449 853 449 917 q 347 731 449 756 q 442 685 413 718 q 471 601 471 653 q 416 483 471 529 q 250 438 361 438 m 235 0 l 890 986 l 1018 986 l 363 0 l 235 0 m 946 0 l 946 106 l 693 106 l 693 204 l 933 538 l 1083 538 l 1083 213 l 1151 213 l 1151 106 l 1083 106 l 1083 0 l 946 0 m 822 213 l 946 213 l 946 374 l 822 213 z "},"⅕":{"ha":1188,"x_min":28,"x_max":1146,"o":"m 171 449 l 171 758 l 28 757 l 28 860 l 67 860 q 163 894 129 860 q 196 986 196 928 l 308 986 l 308 449 l 171 449 m 153 0 l 808 986 l 936 986 l 281 0 l 153 0 m 928 -11 q 772 29 824 -11 q 714 140 721 69 l 850 147 q 928 94 860 94 q 990 119 971 94 q 1010 181 1010 143 q 990 242 1010 219 q 933 265 969 265 q 882 253 900 265 q 851 221 864 240 l 724 221 l 765 538 l 1113 538 l 1113 431 l 879 431 l 867 325 q 906 349 882 340 q 967 357 931 357 q 1101 309 1057 357 q 1146 181 1146 261 q 1090 41 1146 93 q 928 -11 1033 -11 z "},"⅛":{"ha":1194,"x_min":28,"x_max":1153,"o":"m 171 449 l 171 758 l 28 757 l 28 860 l 67 860 q 163 894 129 860 q 196 986 196 928 l 308 986 l 308 449 l 171 449 m 153 0 l 808 986 l 936 986 l 281 0 l 153 0 m 926 -11 q 753 31 806 -11 q 700 143 700 72 q 825 290 700 253 q 750 332 776 304 q 724 411 724 360 q 771 513 724 476 q 926 549 818 549 q 1082 513 1035 549 q 1129 411 1129 476 q 1103 332 1129 360 q 1028 290 1076 304 q 1153 143 1153 250 q 1100 31 1153 72 q 926 -11 1047 -11 m 926 329 q 978 343 958 329 q 997 388 997 357 q 926 443 997 443 q 856 388 856 443 q 875 343 856 357 q 926 329 894 329 m 926 94 q 1017 164 1017 94 q 994 218 1017 196 q 926 240 971 240 q 859 218 882 240 q 836 164 836 196 q 926 94 836 94 z "},"⅜":{"ha":1276,"x_min":28,"x_max":1235,"o":"m 250 438 q 80 477 126 438 q 28 596 33 517 l 164 601 q 186 559 165 575 q 250 543 207 543 q 312 560 289 543 q 335 610 335 578 q 313 658 335 640 q 244 676 290 676 l 201 676 l 201 771 l 244 771 q 295 786 276 771 q 314 828 314 801 q 298 874 314 857 q 243 892 282 892 q 168 832 174 892 l 33 839 q 92 956 42 915 q 243 997 142 997 q 401 957 353 997 q 449 853 449 917 q 347 731 449 756 q 442 685 413 718 q 471 601 471 653 q 416 483 471 529 q 250 438 361 438 m 235 0 l 890 986 l 1018 986 l 363 0 l 235 0 m 1008 -11 q 835 31 888 -11 q 782 143 782 72 q 907 290 782 253 q 832 332 858 304 q 806 411 806 360 q 853 513 806 476 q 1008 549 900 549 q 1164 513 1117 549 q 1211 411 1211 476 q 1185 332 1211 360 q 1110 290 1158 304 q 1235 143 1235 250 q 1182 31 1235 72 q 1008 -11 1129 -11 m 1008 329 q 1060 343 1040 329 q 1079 388 1079 357 q 1008 443 1079 443 q 938 388 938 443 q 957 343 938 357 q 1008 329 976 329 m 1008 94 q 1099 164 1099 94 q 1076 218 1099 196 q 1008 240 1053 240 q 941 218 964 240 q 918 164 918 196 q 1008 94 918 94 z "},"⅝":{"ha":1293,"x_min":56,"x_max":1251,"o":"m 269 438 q 114 478 165 438 q 56 589 63 518 l 192 596 q 269 543 201 543 q 332 567 313 543 q 351 629 351 592 q 331 691 351 668 q 275 714 311 714 q 224 701 242 714 q 193 669 206 689 l 65 669 l 107 986 l 454 986 l 454 879 l 221 879 l 208 774 q 248 797 224 789 q 308 806 272 806 q 443 758 399 806 q 488 629 488 710 q 431 490 488 542 q 269 438 375 438 m 251 0 l 907 986 l 1035 986 l 379 0 l 251 0 m 1025 -11 q 851 31 904 -11 q 799 143 799 72 q 924 290 799 253 q 849 332 875 304 q 822 411 822 360 q 869 513 822 476 q 1025 549 917 549 q 1181 513 1133 549 q 1228 411 1228 476 q 1201 332 1228 360 q 1126 290 1175 304 q 1251 143 1251 250 q 1199 31 1251 72 q 1025 -11 1146 -11 m 1025 329 q 1076 343 1057 329 q 1096 388 1096 357 q 1025 443 1096 443 q 954 388 954 443 q 974 343 954 357 q 1025 329 993 329 m 1025 94 q 1115 164 1115 94 q 1092 218 1115 196 q 1025 240 1069 240 q 958 218 981 240 q 935 164 935 196 q 1025 94 935 94 z "},"⅞":{"ha":1161,"x_min":28,"x_max":1119,"o":"m 118 447 q 159 671 118 561 q 271 871 200 781 l 28 871 l 28 986 l 411 986 l 411 883 q 292 685 331 786 q 254 447 254 583 l 118 447 m 119 0 l 775 986 l 903 986 l 247 0 l 119 0 m 893 -11 q 719 31 772 -11 q 667 143 667 72 q 792 290 667 253 q 717 332 743 304 q 690 411 690 360 q 738 513 690 476 q 893 549 785 549 q 1049 513 1001 549 q 1096 411 1096 476 q 1069 332 1096 360 q 994 290 1043 304 q 1119 143 1119 250 q 1067 31 1119 72 q 893 -11 1014 -11 m 893 329 q 944 343 925 329 q 964 388 964 357 q 893 443 964 443 q 822 388 822 443 q 842 343 822 357 q 893 329 861 329 m 893 94 q 983 164 983 94 q 960 218 983 196 q 893 240 938 240 q 826 218 849 240 q 803 164 803 196 q 893 94 803 94 z "},"₀":{"ha":593,"x_min":56,"x_max":538,"o":"m 296 -150 q 120 -76 185 -150 q 56 131 56 -1 q 119 336 56 263 q 296 410 183 410 q 474 336 410 410 q 538 131 538 263 q 473 -76 538 -1 q 296 -150 408 -150 m 192 131 q 201 46 192 82 l 347 289 q 296 303 326 303 q 217 261 243 303 q 192 131 192 219 m 296 -43 q 400 131 400 -43 q 392 217 400 181 l 247 -28 q 296 -43 268 -43 z "},"₁":{"ha":392,"x_min":28,"x_max":308,"o":"m 171 -139 l 171 171 l 28 169 l 28 272 l 67 272 q 163 306 129 272 q 196 399 196 340 l 308 399 l 308 -139 l 171 -139 z "},"₂":{"ha":517,"x_min":56,"x_max":460,"o":"m 61 -139 q 72 -15 61 -64 q 115 68 83 33 q 207 132 147 103 l 272 165 q 320 197 307 182 q 333 243 333 213 q 315 287 333 269 q 264 304 297 304 q 206 286 226 304 q 181 225 186 268 l 56 232 q 119 364 65 318 q 263 410 172 410 q 410 364 363 410 q 458 246 458 318 q 426 143 458 182 q 331 74 393 104 l 268 43 q 217 8 231 25 q 203 -24 203 -8 l 460 -24 l 460 -139 l 61 -139 z "},"₃":{"ha":513,"x_min":28,"x_max":471,"o":"m 250 -150 q 80 -110 126 -150 q 28 8 33 -71 l 164 14 q 186 -28 165 -12 q 250 -44 207 -44 q 312 -27 289 -44 q 335 22 335 -10 q 313 71 335 53 q 244 89 290 89 l 201 89 l 201 183 l 244 183 q 295 199 276 183 q 314 240 314 214 q 298 287 314 269 q 243 304 282 304 q 168 244 174 304 l 33 251 q 92 369 42 328 q 243 410 142 410 q 401 369 353 410 q 449 265 449 329 q 347 143 449 168 q 442 98 413 131 q 471 14 471 65 q 416 -104 471 -58 q 250 -150 361 -150 z "},"₄":{"ha":500,"x_min":14,"x_max":472,"o":"m 267 -139 l 267 -33 l 14 -33 l 14 65 l 254 399 l 404 399 l 404 74 l 472 74 l 472 -33 l 404 -33 l 404 -139 l 267 -139 m 143 74 l 267 74 l 267 235 l 143 74 z "},"₅":{"ha":529,"x_min":56,"x_max":488,"o":"m 269 -150 q 114 -110 165 -150 q 56 1 63 -69 l 192 8 q 269 -44 201 -44 q 332 -20 313 -44 q 351 42 351 4 q 331 103 351 81 q 275 126 311 126 q 224 114 242 126 q 193 82 206 101 l 65 82 l 107 399 l 454 399 l 454 292 l 221 292 l 208 186 q 248 210 224 201 q 308 218 272 218 q 443 170 399 218 q 488 42 488 122 q 431 -98 488 -46 q 269 -150 375 -150 z "},"₆":{"ha":558,"x_min":56,"x_max":501,"o":"m 279 -150 q 115 -86 175 -150 q 56 108 56 -22 q 116 326 56 243 q 303 410 176 410 q 500 274 474 410 l 378 258 q 299 307 368 307 q 189 179 200 307 q 233 213 204 199 q 304 226 261 226 q 448 179 394 226 q 501 40 501 132 q 441 -99 501 -49 q 279 -150 381 -150 m 283 -44 q 350 -21 325 -44 q 375 43 375 3 q 351 108 375 86 q 283 131 326 131 q 219 108 244 131 q 194 44 194 85 q 218 -20 193 4 q 283 -44 243 -44 z "},"₇":{"ha":439,"x_min":28,"x_max":411,"o":"m 118 -139 q 159 85 118 -25 q 271 285 200 194 l 28 285 l 28 400 l 411 400 l 411 297 q 292 99 331 200 q 254 -139 254 -3 l 118 -139 z "},"₈":{"ha":536,"x_min":42,"x_max":494,"o":"m 268 -150 q 94 -108 147 -150 q 42 4 42 -67 q 167 151 42 114 q 92 193 118 165 q 65 272 65 221 q 113 374 65 338 q 268 410 160 410 q 424 374 376 410 q 471 272 471 338 q 444 193 471 221 q 369 151 418 165 q 494 4 494 111 q 442 -108 494 -67 q 268 -150 389 -150 m 268 190 q 319 204 300 190 q 339 249 339 218 q 268 304 339 304 q 197 249 197 304 q 217 204 197 218 q 268 190 236 190 m 268 -44 q 358 25 358 -44 q 335 79 358 57 q 268 101 313 101 q 201 79 224 101 q 178 25 178 57 q 268 -44 178 -44 z "},"₉":{"ha":558,"x_min":58,"x_max":503,"o":"m 279 410 q 444 347 385 410 q 503 151 503 283 q 443 -67 503 17 q 256 -150 383 -150 q 58 -14 86 -150 l 181 1 q 260 -47 192 -47 q 369 81 358 -47 q 327 48 356 63 q 254 33 299 33 q 111 81 164 33 q 58 219 58 128 q 119 359 58 308 q 279 410 179 410 m 276 304 q 209 281 233 304 q 185 217 185 257 q 209 151 185 174 q 275 129 233 129 q 339 152 314 129 q 365 215 364 175 q 342 280 367 256 q 276 304 317 304 z "},"⁰":{"ha":593,"x_min":56,"x_max":538,"o":"m 296 438 q 120 512 185 438 q 56 718 56 586 q 119 924 56 850 q 296 997 183 997 q 474 924 410 997 q 538 718 538 850 q 473 512 538 586 q 296 438 408 438 m 192 718 q 201 633 192 669 l 347 876 q 296 890 326 890 q 217 849 243 890 q 192 718 192 807 m 296 544 q 400 718 400 544 q 392 804 400 768 l 247 560 q 296 544 268 544 z "},"¹":{"ha":392,"x_min":28,"x_max":308,"o":"m 171 449 l 171 758 l 28 757 l 28 860 l 67 860 q 163 894 129 860 q 196 986 196 928 l 308 986 l 308 449 l 171 449 z "},"²":{"ha":517,"x_min":56,"x_max":460,"o":"m 61 449 q 72 572 61 524 q 115 656 83 621 q 207 719 147 690 l 272 753 q 320 785 307 769 q 333 831 333 800 q 315 874 333 857 q 264 892 297 892 q 206 874 226 892 q 181 813 186 856 l 56 819 q 119 951 65 906 q 263 997 172 997 q 410 951 363 997 q 458 833 458 906 q 426 731 458 769 q 331 661 393 692 l 268 631 q 217 596 231 613 q 203 564 203 579 l 460 564 l 460 449 l 61 449 z "},"³":{"ha":513,"x_min":28,"x_max":471,"o":"m 250 438 q 80 477 126 438 q 28 596 33 517 l 164 601 q 186 559 165 575 q 250 543 207 543 q 312 560 289 543 q 335 610 335 578 q 313 658 335 640 q 244 676 290 676 l 201 676 l 201 771 l 244 771 q 295 786 276 771 q 314 828 314 801 q 298 874 314 857 q 243 892 282 892 q 168 832 174 892 l 33 839 q 92 956 42 915 q 243 997 142 997 q 401 957 353 997 q 449 853 449 917 q 347 731 449 756 q 442 685 413 718 q 471 601 471 653 q 416 483 471 529 q 250 438 361 438 z "},"⁴":{"ha":500,"x_min":14,"x_max":472,"o":"m 267 449 l 267 554 l 14 554 l 14 653 l 254 986 l 404 986 l 404 661 l 472 661 l 472 554 l 404 554 l 404 449 l 267 449 m 143 661 l 267 661 l 267 822 l 143 661 z "},"⁵":{"ha":529,"x_min":56,"x_max":488,"o":"m 269 438 q 114 478 165 438 q 56 589 63 518 l 192 596 q 269 543 201 543 q 332 567 313 543 q 351 629 351 592 q 331 691 351 668 q 275 714 311 714 q 224 701 242 714 q 193 669 206 689 l 65 669 l 107 986 l 454 986 l 454 879 l 221 879 l 208 774 q 248 797 224 789 q 308 806 272 806 q 443 758 399 806 q 488 629 488 710 q 431 490 488 542 q 269 438 375 438 z "},"⁶":{"ha":558,"x_min":56,"x_max":501,"o":"m 279 438 q 115 501 175 438 q 56 696 56 565 q 116 914 56 831 q 303 997 176 997 q 500 861 474 997 l 378 846 q 299 894 368 894 q 189 767 200 894 q 233 800 204 786 q 304 814 261 814 q 448 767 394 814 q 501 628 501 719 q 441 488 501 539 q 279 438 381 438 m 283 543 q 350 567 325 543 q 375 631 375 590 q 351 696 375 674 q 283 718 326 718 q 219 695 244 718 q 194 632 194 672 q 218 567 193 592 q 283 543 243 543 z "},"⁷":{"ha":439,"x_min":28,"x_max":411,"o":"m 118 447 q 159 671 118 561 q 271 871 200 781 l 28 871 l 28 986 l 411 986 l 411 883 q 292 685 331 786 q 254 447 254 583 l 118 447 z "},"⁸":{"ha":536,"x_min":42,"x_max":494,"o":"m 268 438 q 94 479 147 438 q 42 592 42 521 q 167 739 42 701 q 92 781 118 753 q 65 860 65 808 q 113 961 65 925 q 268 997 160 997 q 424 961 376 997 q 471 860 471 925 q 444 781 471 808 q 369 739 418 753 q 494 592 494 699 q 442 479 494 521 q 268 438 389 438 m 268 778 q 319 792 300 778 q 339 836 339 806 q 268 892 339 892 q 197 836 197 892 q 217 792 197 806 q 268 778 236 778 m 268 543 q 358 613 358 543 q 335 667 358 644 q 268 689 313 689 q 201 667 224 689 q 178 613 178 644 q 268 543 178 543 z "},"⁹":{"ha":558,"x_min":58,"x_max":503,"o":"m 279 997 q 444 934 385 997 q 503 739 503 871 q 443 521 503 604 q 256 438 383 438 q 58 574 86 438 l 181 589 q 260 540 192 540 q 369 668 358 540 q 327 635 356 650 q 254 621 299 621 q 111 668 164 621 q 58 807 58 715 q 119 947 58 896 q 279 997 179 997 m 276 892 q 209 868 233 892 q 185 804 185 844 q 209 739 185 761 q 275 717 233 717 q 339 740 314 717 q 365 803 364 763 q 342 867 367 843 q 276 892 317 892 z "}," ":{"ha":317,"x_min":0,"x_max":0,"o":""}," ":{"ha":317,"x_min":0,"x_max":0,"o":""},".":{"ha":328,"x_min":51,"x_max":278,"o":"m 51 0 l 51 213 l 278 213 l 278 0 l 51 0 z "},",":{"ha":328,"x_min":51,"x_max":278,"o":"m 67 -219 l 142 0 l 51 0 l 51 213 l 278 213 l 278 22 l 181 -219 l 67 -219 z "},":":{"ha":432,"x_min":103,"x_max":329,"o":"m 103 0 l 103 213 l 329 213 l 329 0 l 103 0 m 103 494 l 103 707 l 329 707 l 329 494 l 103 494 z "},";":{"ha":432,"x_min":103,"x_max":329,"o":"m 103 494 l 103 707 l 329 707 l 329 494 l 103 494 m 118 -219 l 193 0 l 103 0 l 103 213 l 329 213 l 329 22 l 232 -219 l 118 -219 z "},"…":{"ha":965,"x_min":51,"x_max":915,"o":"m 51 0 l 51 213 l 278 213 l 278 0 l 51 0 m 369 0 l 369 213 l 596 213 l 596 0 l 369 0 m 689 0 l 689 213 l 915 213 l 915 0 l 689 0 z "},"!":{"ha":357,"x_min":65,"x_max":292,"o":"m 111 315 q 97 429 104 363 q 83 565 89 496 q 76 689 76 633 l 76 986 l 286 986 l 286 689 q 281 565 286 633 q 267 429 275 496 q 253 315 260 363 l 111 315 m 65 0 l 65 213 l 292 213 l 292 0 l 65 0 z "},"¡":{"ha":357,"x_min":65,"x_max":292,"o":"m 65 761 l 292 761 l 292 549 l 65 549 l 65 761 m 76 -225 l 76 72 q 83 197 76 128 q 97 332 89 265 q 111 446 104 399 l 253 446 q 267 332 260 399 q 281 197 275 265 q 286 72 286 128 l 286 -225 l 76 -225 z "},"?":{"ha":821,"x_min":51,"x_max":771,"o":"m 301 311 q 333 483 301 424 q 438 578 364 542 q 515 624 489 604 q 549 667 540 644 q 557 719 557 689 q 523 803 557 771 q 426 836 489 836 q 268 685 283 836 l 51 696 q 106 857 60 786 q 232 968 151 928 q 426 1008 313 1008 q 615 971 539 1008 q 731 868 692 933 q 771 719 771 803 q 753 618 771 660 q 699 543 736 576 q 599 475 661 510 q 528 411 547 444 q 508 311 508 378 l 301 311 m 289 0 l 289 213 l 515 213 l 515 0 l 289 0 z "},"¿":{"ha":821,"x_min":51,"x_max":771,"o":"m 532 783 l 532 571 l 306 571 l 306 783 l 532 783 m 394 -225 q 206 -187 283 -225 q 90 -85 129 -150 q 51 64 51 -19 q 68 165 51 124 q 123 240 85 207 q 222 308 161 274 q 294 373 274 339 q 314 472 314 407 l 519 472 q 489 301 519 361 q 383 206 458 242 q 307 159 332 179 q 273 117 282 139 q 264 64 264 94 q 298 -20 264 13 q 394 -53 332 -53 q 554 99 538 -53 l 771 88 q 717 -74 763 -3 q 590 -185 671 -144 q 394 -225 508 -225 z "},"·":{"ha":328,"x_min":51,"x_max":278,"o":"m 51 313 l 51 525 l 278 525 l 278 313 l 51 313 z "},"•":{"ha":503,"x_min":50,"x_max":454,"o":"m 253 224 q 106 280 163 224 q 50 421 50 336 q 106 563 50 507 q 253 618 163 618 q 398 563 342 618 q 454 421 454 507 q 398 280 454 336 q 253 224 342 224 z "},"*":{"ha":586,"x_min":51,"x_max":535,"o":"m 222 504 l 114 567 l 193 688 l 51 685 l 51 824 l 193 822 l 114 943 l 222 1004 l 293 879 l 365 1004 l 474 943 l 393 822 l 535 824 l 535 685 l 393 688 l 474 567 l 365 504 l 293 631 l 222 504 z "},"〃":{"ha":551,"x_min":51,"x_max":500,"o":"m 51 390 l 138 668 l 293 668 l 165 390 l 51 390 m 258 390 l 344 668 l 500 668 l 374 390 l 258 390 z "},"#":{"ha":818,"x_min":4,"x_max":810,"o":"m 69 0 l 106 226 l 4 226 l 28 393 l 131 393 l 160 585 l 57 585 l 81 750 l 185 750 l 222 986 l 413 986 l 376 750 l 518 750 l 554 986 l 744 986 l 708 750 l 810 750 l 786 585 l 683 585 l 653 393 l 758 393 l 735 226 l 628 226 l 593 0 l 403 0 l 438 226 l 294 226 l 260 0 l 69 0 m 321 393 l 463 393 l 493 585 l 350 585 l 321 393 z "},"/":{"ha":725,"x_min":44,"x_max":661,"o":"m 44 -153 l 456 1042 l 661 1042 l 250 -153 l 44 -153 z "},"\\":{"ha":696,"x_min":39,"x_max":657,"o":"m 657 -153 l 450 -153 l 39 1042 l 244 1042 l 657 -153 z "},"-":{"ha":579,"x_min":51,"x_max":528,"o":"m 51 319 l 51 490 l 528 490 l 528 319 l 51 319 z "},"–":{"ha":826,"x_min":51,"x_max":775,"o":"m 51 321 l 51 490 l 775 490 l 775 321 l 51 321 z "},"—":{"ha":1265,"x_min":51,"x_max":1214,"o":"m 51 321 l 51 490 l 1214 490 l 1214 321 l 51 321 z "},"_":{"ha":779,"x_min":51,"x_max":728,"o":"m 51 -168 l 51 0 l 728 0 l 728 -168 l 51 -168 z "},"〜":{"ha":1201,"x_min":51,"x_max":1150,"o":"m 828 254 q 740 264 778 254 q 664 292 703 274 q 572 339 625 311 q 475 383 522 367 q 378 399 428 399 q 263 368 318 399 q 146 279 208 338 l 51 414 q 168 508 115 472 q 272 558 221 543 q 382 574 324 574 q 494 555 435 574 q 618 500 553 536 q 702 458 668 474 q 765 436 736 443 q 828 429 793 429 q 899 440 865 429 q 968 475 932 450 q 1054 543 1004 500 l 1150 408 q 987 293 1068 332 q 828 254 906 254 z "},"(":{"ha":449,"x_min":58,"x_max":432,"o":"m 246 -153 q 58 444 58 142 q 246 1042 58 747 l 432 1042 q 264 444 264 743 q 432 -153 264 149 l 246 -153 z "},")":{"ha":449,"x_min":17,"x_max":390,"o":"m 201 -153 l 17 -153 q 185 444 185 149 q 17 1042 185 743 l 201 1042 q 390 444 390 747 q 201 -153 390 142 z "},"{":{"ha":567,"x_min":58,"x_max":550,"o":"m 463 -174 q 256 -100 329 -174 q 183 89 183 -26 l 183 204 q 153 324 183 290 q 58 358 124 358 l 58 522 q 153 555 124 521 q 183 676 183 589 l 183 792 q 256 980 183 907 q 463 1053 329 1053 l 550 1053 l 550 874 q 422 849 463 878 q 382 758 382 821 l 382 663 q 334 508 382 564 q 222 444 286 453 l 222 436 q 335 372 288 428 q 382 218 382 317 l 382 121 q 422 27 382 57 q 550 0 463 -3 l 550 -174 l 463 -174 z "},"}":{"ha":567,"x_min":17,"x_max":508,"o":"m 104 -174 l 17 -174 l 17 0 q 143 27 103 -3 q 183 121 183 57 l 183 218 q 231 372 183 317 q 344 436 279 428 l 344 444 q 232 508 281 453 q 183 663 183 564 l 183 758 q 143 849 183 821 q 17 874 103 878 l 17 1053 l 104 1053 q 309 980 236 1053 q 382 792 382 907 l 382 676 q 413 555 382 589 q 508 522 443 521 l 508 358 q 413 324 443 358 q 382 204 382 290 l 382 89 q 309 -100 382 -26 q 104 -174 236 -174 z "},"[":{"ha":542,"x_min":103,"x_max":525,"o":"m 525 -153 l 103 -153 l 103 1042 l 525 1042 l 525 878 l 303 878 l 303 11 l 525 11 l 525 -153 z "},"]":{"ha":542,"x_min":17,"x_max":439,"o":"m 17 -153 l 17 11 l 239 11 l 239 878 l 17 878 l 17 1042 l 439 1042 l 439 -153 l 17 -153 z "},"〈":{"ha":546,"x_min":51,"x_max":494,"o":"m 288 -158 l 51 492 l 288 1140 l 494 1140 l 258 492 l 494 -158 l 288 -158 z "},"〉":{"ha":546,"x_min":51,"x_max":494,"o":"m 258 -158 l 51 -158 l 288 492 l 51 1140 l 258 1140 l 494 492 l 258 -158 z "},"【":{"ha":496,"x_min":51,"x_max":444,"o":"m 444 -87 l 51 -87 l 51 1146 l 444 1146 q 265 529 265 847 q 444 -87 265 214 z "},"】":{"ha":496,"x_min":51,"x_max":444,"o":"m 51 -87 q 231 529 231 214 q 51 1146 231 847 l 444 1146 l 444 -87 l 51 -87 z "},"「":{"ha":528,"x_min":51,"x_max":478,"o":"m 51 325 l 51 1147 l 478 1147 l 478 1014 l 188 1014 l 188 325 l 51 325 z "},"」":{"ha":528,"x_min":51,"x_max":478,"o":"m 478 679 l 478 -143 l 51 -143 l 51 -10 l 340 -10 l 340 679 l 478 679 z "},"《":{"ha":876,"x_min":51,"x_max":825,"o":"m 288 -158 l 51 492 l 288 1140 l 494 1140 l 258 492 l 494 -158 l 288 -158 m 618 -158 l 382 492 l 618 1140 l 825 1140 l 589 492 l 825 -158 l 618 -158 z "},"》":{"ha":876,"x_min":51,"x_max":825,"o":"m 588 -158 l 382 -158 l 617 492 l 382 1140 l 588 1140 l 825 492 l 588 -158 m 258 -158 l 51 -158 l 288 492 l 51 1140 l 258 1140 l 494 492 l 258 -158 z "},"〔":{"ha":540,"x_min":51,"x_max":489,"o":"m 400 -203 l 51 111 l 51 871 l 397 1181 l 486 1083 l 188 817 l 188 165 l 489 -106 l 400 -203 z "},"〕":{"ha":540,"x_min":51,"x_max":489,"o":"m 140 -203 l 51 -106 l 353 165 l 353 817 l 54 1083 l 143 1181 l 489 871 l 489 111 l 140 -203 z "},"『":{"ha":524,"x_min":51,"x_max":472,"o":"m 51 324 l 51 1147 l 472 1147 l 472 925 l 274 925 l 274 324 l 51 324 m 114 385 l 213 385 l 213 986 l 411 986 l 411 1086 l 114 1086 l 114 385 z "},"』":{"ha":524,"x_min":51,"x_max":472,"o":"m 472 689 l 472 -135 l 51 -135 l 51 88 l 250 88 l 250 689 l 472 689 m 410 628 l 311 628 l 311 26 l 113 26 l 113 -74 l 410 -74 l 410 628 z "},"〖":{"ha":518,"x_min":51,"x_max":468,"o":"m 468 -87 l 51 -87 l 51 1146 l 468 1146 q 289 529 289 847 q 468 -87 289 214 m 338 -14 q 210 531 210 258 q 338 1072 210 804 l 131 1072 l 131 -14 l 338 -14 z "},"〗":{"ha":518,"x_min":51,"x_max":468,"o":"m 51 -87 q 231 529 231 214 q 51 1146 231 847 l 468 1146 l 468 -87 l 51 -87 m 182 -14 l 388 -14 l 388 1072 l 182 1072 q 310 531 310 804 q 182 -14 310 258 z "},"‚":{"ha":328,"x_min":51,"x_max":278,"o":"m 67 -219 l 142 0 l 51 0 l 51 213 l 278 213 l 278 22 l 181 -219 l 67 -219 z "},"„":{"ha":628,"x_min":51,"x_max":576,"o":"m 365 -226 l 440 -7 l 350 -7 l 350 206 l 576 206 l 576 15 l 479 -226 l 365 -226 m 67 -226 l 142 -7 l 51 -7 l 51 206 l 278 206 l 278 15 l 181 -226 l 67 -226 z "},"“":{"ha":642,"x_min":58,"x_max":583,"o":"m 268 1008 l 193 789 l 285 789 l 285 575 l 58 575 l 58 765 l 156 1008 l 268 1008 m 568 1008 l 493 789 l 583 789 l 583 575 l 357 575 l 357 765 l 454 1008 l 568 1008 z "},"”":{"ha":642,"x_min":58,"x_max":585,"o":"m 374 554 l 449 774 l 358 774 l 358 986 l 585 986 l 585 796 l 488 554 l 374 554 m 74 554 l 149 774 l 58 774 l 58 986 l 285 986 l 285 796 l 188 554 l 74 554 z "},"‘":{"ha":343,"x_min":58,"x_max":285,"o":"m 268 1008 l 193 789 l 285 789 l 285 575 l 58 575 l 58 765 l 156 1008 l 268 1008 z "},"’":{"ha":343,"x_min":58,"x_max":285,"o":"m 74 554 l 149 774 l 58 774 l 58 986 l 285 986 l 285 796 l 188 554 l 74 554 z "},"«":{"ha":896,"x_min":51,"x_max":844,"o":"m 478 106 l 246 106 l 51 333 l 51 433 l 246 661 l 478 661 l 240 383 l 478 106 m 844 106 l 613 106 l 418 333 l 418 433 l 613 661 l 844 661 l 607 383 l 844 106 z "},"»":{"ha":910,"x_min":60,"x_max":853,"o":"m 426 106 l 664 383 l 426 661 l 658 661 l 853 433 l 853 333 l 658 106 l 426 106 m 60 106 l 297 383 l 60 661 l 292 661 l 486 433 l 486 333 l 292 106 l 60 106 z "},"‹":{"ha":529,"x_min":51,"x_max":478,"o":"m 478 106 l 246 106 l 51 333 l 51 433 l 246 661 l 478 661 l 240 383 l 478 106 z "},"›":{"ha":529,"x_min":51,"x_max":478,"o":"m 51 106 l 289 383 l 51 661 l 283 661 l 478 433 l 478 333 l 283 106 l 51 106 z "},"\"":{"ha":542,"x_min":58,"x_max":483,"o":"m 88 599 l 58 869 l 58 986 l 224 986 l 214 599 l 88 599 m 328 599 l 318 986 l 483 986 l 483 869 l 454 599 l 328 599 z "},"'":{"ha":282,"x_min":58,"x_max":224,"o":"m 79 599 l 58 869 l 58 986 l 224 986 l 224 869 l 203 599 l 79 599 z "},"ƒ":{"ha":733,"x_min":64,"x_max":689,"o":"m 64 0 l 64 168 l 149 168 q 228 244 218 168 l 261 550 l 143 550 l 143 706 l 278 706 l 288 789 q 358 933 297 879 q 514 986 419 988 l 689 985 l 689 817 l 568 817 q 483 740 492 817 l 479 706 l 689 706 l 689 550 l 463 550 l 422 196 q 353 50 413 103 q 196 -1 293 -3 l 64 0 z "},"฿":{"ha":950,"x_min":103,"x_max":879,"o":"m 103 0 l 103 986 l 404 986 l 404 1118 l 513 1118 l 513 983 q 755 903 672 971 q 838 713 838 836 q 783 574 838 628 q 635 510 729 519 q 816 441 753 500 q 879 279 879 382 q 785 77 879 150 q 513 0 690 4 l 513 -126 l 404 -126 l 404 0 l 103 0 m 314 578 l 404 578 l 404 814 l 314 814 l 314 578 m 628 694 q 513 810 628 789 l 513 583 q 628 694 628 601 m 314 172 l 404 172 l 404 425 l 314 425 l 314 172 m 669 297 q 513 424 669 415 l 513 172 q 669 297 669 181 z "},"☹":{"ha":1168,"x_min":51,"x_max":1117,"o":"m 583 -36 q 377 5 474 -36 q 207 119 281 46 q 92 290 133 193 q 51 497 51 386 q 92 703 51 607 q 206 873 133 800 q 376 987 279 946 q 583 1028 474 1028 q 791 987 694 1028 q 961 873 888 946 q 1076 703 1035 800 q 1117 497 1117 607 q 1076 290 1117 386 q 961 119 1035 193 q 791 5 888 46 q 583 -36 694 -36 m 583 81 q 745 113 669 81 q 878 203 821 146 q 967 335 935 260 q 999 497 999 411 q 967 658 999 583 q 878 790 935 733 q 745 879 821 847 q 583 911 669 911 q 422 879 497 911 q 290 790 347 847 q 201 658 233 733 q 169 497 169 583 q 201 335 169 411 q 290 203 233 260 q 422 113 347 146 q 583 81 497 81 m 456 564 q 401 586 424 564 q 379 640 379 608 q 401 692 379 671 q 456 714 424 714 q 507 692 485 714 q 529 640 529 671 q 507 586 529 608 q 456 564 485 564 m 726 564 q 672 586 694 564 q 650 640 650 608 q 672 692 650 671 q 726 714 694 714 q 778 692 757 714 q 800 640 800 671 q 778 586 800 608 q 726 564 757 564 m 319 294 q 417 453 344 393 q 589 513 489 513 q 764 453 692 513 q 860 294 836 393 l 743 294 q 684 376 724 347 q 589 406 644 406 q 495 376 535 406 q 436 294 456 347 l 319 294 z "},"☺":{"ha":1168,"x_min":51,"x_max":1117,"o":"m 583 -36 q 377 5 474 -36 q 207 119 281 46 q 92 290 133 193 q 51 497 51 386 q 92 703 51 607 q 206 873 133 800 q 376 987 279 946 q 583 1028 474 1028 q 791 987 694 1028 q 961 873 888 946 q 1076 703 1035 800 q 1117 497 1117 607 q 1076 290 1117 386 q 961 119 1035 193 q 791 5 888 46 q 583 -36 694 -36 m 583 81 q 745 113 669 81 q 878 203 821 146 q 967 335 935 260 q 999 497 999 411 q 967 658 999 583 q 878 790 935 733 q 745 879 821 847 q 583 911 669 911 q 422 879 497 911 q 290 790 347 847 q 201 658 233 733 q 169 497 169 583 q 201 335 169 411 q 290 203 233 260 q 422 113 347 146 q 583 81 497 81 m 456 564 q 401 586 424 564 q 379 640 379 608 q 401 692 379 671 q 456 714 424 714 q 507 692 485 714 q 529 640 529 671 q 507 586 529 608 q 456 564 485 564 m 726 564 q 672 586 694 564 q 650 640 650 608 q 672 692 650 671 q 726 714 694 714 q 778 692 757 714 q 800 640 800 671 q 778 586 800 608 q 726 564 757 564 m 589 232 q 449 265 513 232 q 344 358 386 299 q 290 492 301 417 l 399 492 q 467 381 414 425 q 589 338 521 338 q 713 381 660 338 q 779 492 765 425 l 889 492 q 836 358 878 417 q 730 265 794 299 q 589 232 665 232 z "},"":{"ha":833,"x_min":11,"x_max":822,"o":"m 146 0 q 49 38 88 0 q 11 135 11 76 l 11 676 q 49 773 11 735 q 146 811 88 811 l 688 811 q 784 773 746 811 q 822 676 822 735 l 822 135 q 784 38 822 76 q 688 0 746 0 l 146 0 m 119 172 l 713 172 l 415 688 l 119 172 z "},"@":{"ha":1336,"x_min":58,"x_max":1278,"o":"m 946 -101 q 608 -168 783 -168 q 203 -34 347 -168 q 58 342 58 100 q 106 604 58 486 q 240 808 153 722 q 447 940 326 893 q 714 986 567 986 q 1010 925 883 986 q 1208 753 1138 864 q 1278 494 1278 643 q 1241 290 1278 376 q 1138 156 1204 203 q 983 108 1071 108 q 873 138 917 108 q 811 215 829 167 q 719 133 778 165 q 600 101 661 101 q 415 172 481 101 q 349 361 349 242 q 385 534 349 458 q 485 654 421 610 q 635 699 549 699 q 739 678 693 699 q 811 622 785 657 l 817 689 l 974 689 l 949 415 q 943 349 946 383 q 940 292 940 314 q 958 248 940 264 q 1006 232 975 232 q 1109 296 1071 232 q 1147 478 1147 360 q 707 864 1147 864 q 438 800 554 864 q 256 620 321 736 q 190 350 190 504 q 301 58 190 163 q 613 -46 411 -46 q 767 -32 696 -46 q 914 14 839 -18 l 946 -101 m 643 239 q 752 293 714 239 q 790 422 790 347 q 761 523 790 485 q 671 561 732 561 q 566 508 604 561 q 528 375 528 454 q 556 276 528 314 q 643 239 583 239 z "},"&":{"ha":985,"x_min":50,"x_max":964,"o":"m 403 -22 q 140 47 231 -22 q 50 243 50 115 q 97 405 50 338 q 256 540 144 472 q 180 642 207 593 q 153 757 153 692 q 230 940 153 871 q 451 1008 307 1008 q 675 941 600 1008 q 750 772 750 874 q 698 624 750 685 q 538 503 646 564 l 693 308 q 729 456 728 358 l 940 435 q 906 282 936 356 q 829 156 876 208 l 964 0 l 718 0 l 682 43 q 564 -4 638 14 q 403 -22 490 -22 m 431 625 q 511 686 486 657 q 536 754 536 715 q 515 810 536 790 q 456 831 493 831 q 391 808 414 831 q 368 749 368 786 q 382 692 368 719 q 431 625 396 664 m 419 158 q 497 168 465 158 q 546 192 528 178 l 365 414 q 290 346 314 381 q 267 267 267 311 q 306 188 267 218 q 419 158 344 158 z "},"¶":{"ha":918,"x_min":58,"x_max":815,"o":"m 347 0 l 347 429 q 197 463 261 429 q 95 560 132 497 q 58 704 58 622 q 99 853 58 790 q 212 951 139 917 q 381 986 285 986 l 815 986 l 815 0 l 629 0 l 629 828 l 533 828 l 533 0 l 347 0 z "},"§":{"ha":842,"x_min":72,"x_max":769,"o":"m 439 -92 q 178 -22 274 -92 q 72 161 83 47 l 283 172 q 330 88 292 118 q 433 58 368 58 q 524 79 494 58 q 553 135 553 100 q 511 195 553 169 q 363 240 469 221 q 152 324 215 269 q 93 468 89 378 q 123 558 96 518 q 206 625 150 599 q 120 693 147 656 q 93 779 93 731 q 182 948 93 888 q 428 1008 271 1008 q 661 942 571 1008 q 769 757 751 876 l 560 749 q 515 831 551 801 q 419 861 478 861 q 340 839 371 861 q 310 782 310 817 q 341 725 310 746 q 444 689 372 704 q 685 608 603 660 q 767 450 767 556 q 657 296 767 343 q 742 227 715 267 q 768 131 768 188 q 678 -33 768 26 q 439 -92 589 -92 m 449 367 q 537 390 503 367 q 571 456 571 414 q 546 513 571 490 q 483 545 521 535 q 408 556 446 556 q 324 531 358 556 q 290 468 290 506 q 327 398 290 428 q 449 367 364 368 z "},"©":{"ha":1142,"x_min":58,"x_max":1083,"o":"m 571 -17 q 372 23 465 -17 q 208 133 279 63 q 98 297 138 204 q 58 497 58 390 q 98 695 58 603 q 208 858 138 788 q 372 969 279 929 q 571 1008 465 1008 q 770 969 678 1008 q 933 858 863 929 q 1044 695 1004 788 q 1083 497 1083 603 q 1044 297 1083 390 q 933 133 1004 204 q 770 23 863 63 q 571 -17 678 -17 m 571 111 q 717 141 649 111 q 840 224 786 171 q 923 347 893 276 q 953 497 953 417 q 923 646 953 576 q 840 768 893 715 q 717 851 786 821 q 571 881 649 881 q 424 851 493 881 q 302 768 356 821 q 219 646 249 715 q 189 497 189 576 q 219 347 189 417 q 302 224 249 276 q 424 141 356 171 q 571 111 493 111 m 576 217 q 434 252 496 217 q 338 351 372 288 q 303 497 303 414 q 338 642 303 579 q 434 740 372 706 q 576 775 496 775 q 703 747 647 775 q 794 670 760 719 q 835 557 829 621 l 686 550 q 649 626 679 599 q 576 654 619 654 q 485 613 519 654 q 451 497 451 571 q 485 381 451 424 q 576 339 519 339 q 652 367 622 339 q 689 449 682 396 l 839 443 q 797 325 832 376 q 706 245 763 274 q 576 217 649 217 z "},"®":{"ha":901,"x_min":58,"x_max":843,"o":"m 451 222 q 298 253 369 222 q 173 338 226 283 q 89 463 119 392 q 58 617 58 535 q 89 769 58 697 q 173 894 119 840 q 298 978 226 947 q 451 1008 369 1008 q 603 978 532 1008 q 728 894 675 947 q 813 769 782 840 q 843 617 843 697 q 813 463 843 535 q 728 338 782 392 q 603 253 675 283 q 451 222 532 222 m 451 313 q 603 354 536 313 q 710 465 671 396 q 750 617 750 535 q 710 767 750 699 q 603 877 671 836 q 451 918 536 918 q 299 877 367 918 q 191 767 231 836 q 151 617 151 699 q 191 465 151 535 q 299 354 231 396 q 451 313 367 313 m 288 410 l 288 825 l 454 825 q 581 789 533 825 q 628 693 628 753 q 607 620 628 651 q 547 575 586 589 l 638 410 l 518 410 l 442 558 l 397 558 l 397 410 l 288 410 m 396 642 l 444 642 q 496 653 476 642 q 515 690 515 665 q 496 726 515 715 q 444 738 476 738 l 396 738 l 396 642 z "},"℗":{"ha":901,"x_min":58,"x_max":843,"o":"m 451 222 q 298 253 369 222 q 173 338 226 283 q 89 463 119 392 q 58 617 58 535 q 89 769 58 697 q 173 894 119 840 q 298 978 226 947 q 451 1008 369 1008 q 603 978 532 1008 q 728 894 675 947 q 813 769 782 840 q 843 617 843 697 q 813 463 843 535 q 728 338 782 392 q 603 253 675 283 q 451 222 532 222 m 451 313 q 603 354 536 313 q 710 465 671 396 q 750 617 750 535 q 710 767 750 699 q 603 877 671 836 q 451 918 536 918 q 299 877 367 918 q 191 767 231 836 q 151 617 151 699 q 191 465 151 535 q 299 354 231 396 q 451 313 367 313 m 306 410 l 306 825 l 472 825 q 602 789 558 825 q 646 693 646 753 q 602 595 646 632 q 472 558 558 558 l 415 558 l 415 410 l 306 410 m 414 642 l 463 642 q 514 653 494 642 q 533 690 533 665 q 514 726 533 715 q 463 738 494 738 l 414 738 l 414 642 z "},"™":{"ha":1264,"x_min":103,"x_max":1161,"o":"m 572 499 l 572 986 l 736 986 l 867 632 l 999 986 l 1161 986 l 1161 499 l 1035 499 l 1035 793 l 925 499 l 808 499 l 699 781 l 699 499 l 572 499 m 240 499 l 240 868 l 103 868 l 103 986 l 511 986 l 511 868 l 375 868 l 375 499 l 240 499 z "},"°":{"ha":594,"x_min":51,"x_max":543,"o":"m 297 517 q 174 549 231 517 q 85 637 118 581 q 51 763 51 693 q 85 888 51 832 q 174 976 118 943 q 297 1008 231 1008 q 420 976 364 1008 q 510 888 476 943 q 543 763 543 832 q 510 636 543 692 q 420 549 476 581 q 297 517 364 517 m 297 661 q 369 689 339 661 q 399 763 399 717 q 369 836 399 807 q 297 865 339 865 q 226 836 257 865 q 196 763 196 807 q 226 690 196 718 q 297 661 256 661 z "},"′":{"ha":354,"x_min":56,"x_max":299,"o":"m 56 660 l 110 986 l 299 986 l 226 660 l 56 660 z "},"″":{"ha":606,"x_min":56,"x_max":550,"o":"m 56 660 l 110 986 l 299 986 l 226 660 l 56 660 m 307 660 l 361 986 l 550 986 l 478 660 l 307 660 z "},"|":{"ha":408,"x_min":103,"x_max":306,"o":"m 103 -153 l 103 1042 l 306 1042 l 306 -153 l 103 -153 z "},"¦":{"ha":408,"x_min":103,"x_max":306,"o":"m 103 549 l 103 1042 l 306 1042 l 306 549 l 103 549 m 103 -153 l 103 340 l 306 340 l 306 -153 l 103 -153 z "},"†":{"ha":814,"x_min":103,"x_max":711,"o":"m 310 0 l 310 586 l 103 586 l 103 744 l 310 744 l 310 986 l 504 986 l 504 744 l 711 744 l 711 586 l 504 586 l 504 0 l 310 0 z "},"‡":{"ha":814,"x_min":103,"x_max":711,"o":"m 103 236 l 103 394 l 310 394 l 310 586 l 103 586 l 103 744 l 310 744 l 310 986 l 504 986 l 504 744 l 711 744 l 711 586 l 504 586 l 504 394 l 711 394 l 711 236 l 504 236 l 504 0 l 310 0 l 310 236 l 103 236 z "},"№":{"ha":1624,"x_min":103,"x_max":1521,"o":"m 103 0 l 103 986 l 336 986 l 728 306 l 728 986 l 939 986 l 939 0 l 703 0 l 314 657 l 314 0 l 103 0 m 1267 239 q 1081 305 1149 239 q 1013 482 1013 371 q 1081 658 1013 592 q 1267 725 1149 725 q 1453 658 1385 725 q 1521 482 1521 592 q 1453 305 1521 371 q 1267 239 1385 239 m 1267 350 q 1360 482 1360 350 q 1336 580 1360 546 q 1267 614 1313 614 q 1197 579 1221 614 q 1174 482 1174 544 q 1267 350 1174 350 m 1054 0 l 1054 142 l 1479 142 l 1479 0 l 1054 0 z "},"␌":{"ha":833,"x_min":104,"x_max":743,"o":"m 104 417 l 104 875 l 393 875 l 393 794 l 192 794 l 192 678 l 381 678 l 381 597 l 192 597 l 192 417 l 104 417 m 454 99 l 454 557 l 743 557 l 743 476 l 542 476 l 542 360 l 731 360 l 731 279 l 542 279 l 542 99 l 454 99 z "},"⏎":{"ha":1254,"x_min":58,"x_max":1196,"o":"m 607 -131 l 58 419 l 607 968 l 607 650 l 733 650 l 733 986 l 1196 986 l 1196 189 l 607 189 l 607 -131 m 479 194 l 479 333 l 1050 333 l 1050 840 l 879 840 l 879 506 l 479 506 l 479 643 l 254 419 l 479 194 z "},"␋":{"ha":833,"x_min":67,"x_max":761,"o":"m 207 417 l 67 875 l 153 875 l 250 544 l 347 875 l 433 875 l 293 417 l 207 417 m 553 99 l 553 476 l 426 476 l 426 557 l 761 557 l 761 476 l 635 476 l 635 99 l 553 99 z "},"¢":{"ha":831,"x_min":51,"x_max":793,"o":"m 329 -17 l 340 114 q 129 242 207 140 q 51 494 51 343 q 95 694 51 608 q 219 828 139 779 q 407 883 299 878 l 417 1008 l 522 1008 l 511 878 q 703 784 628 858 q 793 593 779 710 l 578 582 q 497 708 564 676 l 460 269 q 539 313 507 276 q 578 415 571 349 l 793 407 q 684 192 778 272 q 446 107 590 111 l 435 -17 l 329 -17 m 265 494 q 356 285 265 333 l 392 719 q 299 647 332 706 q 265 494 265 589 z "}}}
